<svg xmlns="http://www.w3.org/2000/svg" fill="none" height="5" width="6" stroke="currentColor">
  <path className="hover:fill-yellow-400" fill="#fff"
    d="M10.0557 0.000622467C4.81195 -0.00765311 0.56806 4.22462 0.548767 9.48168C0.530162 14.716 4.78163 18.9876 10.0219 19C15.2787 19.0124 19.5467 14.7553 19.5481 9.49823C19.5495 4.25427 15.3063 0.00889804 10.0557 0.000622467ZM12.5597 5.71491C12.293 5.71491 12.0319 5.68939 11.7783 5.72181C11.4875 5.75836 11.1754 5.79353 10.9259 5.92869C10.7399 6.03007 10.5394 6.27903 10.5201 6.47971C10.4657 7.04521 10.5008 7.61967 10.5008 8.2362C11.1706 8.2362 11.8176 8.2362 12.4997 8.2362C12.3895 8.93135 12.2951 9.57754 12.1745 10.2182C12.1607 10.2899 11.9981 10.3775 11.9023 10.381C11.4469 10.3982 10.99 10.3885 10.4863 10.3885C10.4863 12.1506 10.4863 13.8767 10.4863 15.6215C9.69873 15.6215 8.95869 15.6215 8.17799 15.6215C8.17799 15.4649 8.17799 15.3291 8.17799 15.1939C8.17799 13.7126 8.1711 12.2305 8.1835 10.7492C8.18626 10.4616 8.10013 10.3706 7.81348 10.383C7.31254 10.4044 6.81021 10.3892 6.28515 10.3892C6.28515 9.65753 6.28515 8.96514 6.28515 8.23689C6.90944 8.23689 7.51236 8.23689 8.15043 8.23689C8.16076 8.05966 8.17041 7.91621 8.1773 7.77208C8.209 7.11969 8.1649 6.45281 8.28755 5.81835C8.54388 4.49219 9.52578 3.7867 10.8722 3.85566C11.4303 3.88463 11.9885 3.91014 12.5597 3.93773C12.5597 4.53771 12.5597 5.097 12.5597 5.71491Z" />
</svg>