<svg width="13" height="12" viewBox="0 0 13 12" fill="none" xmlns="http://www.w3.org/2000/svg">
<path d="M6.87819 1.2905C7.4658 0.602459 8.24798 0.165951 9.18946 0.0293237C11.0391 -0.238326 12.8157 1.36197 12.894 3.37004C12.9456 4.68937 12.4918 5.82443 11.7208 6.78363C10.8322 7.88926 9.86391 8.92343 8.89827 9.95479C8.23949 10.6589 7.52587 11.305 6.81355 12C6.13192 11.3351 5.43201 10.7003 4.78368 10.0087C3.80302 8.96196 2.81975 7.91168 1.9096 6.79484C1.20186 5.92743 0.746133 4.89397 0.728504 3.69865C0.688677 1.00954 3.15012 -0.763116 5.44507 0.327102C5.93931 0.561821 6.37219 0.945079 6.87819 1.2905Z" fill="#555555"/>
</svg>
