<svg xmlns="http://www.w3.org/2000/svg" fill="none" height="5" width="6">
  <path className="hover:fill-yellow-400"
    d="M10.262 0.000383155C15.5077 -0.00943535 19.7672 4.24924 19.7599 9.49701C19.7527 14.7469 15.5243 18.977 10.2748 18.986C5.0309 18.9949 0.768819 14.7324 0.777357 9.48848C0.785894 4.23643 5.01084 0.0102017 10.262 0.000383155ZM8.04006 10.4592C7.85095 10.478 7.63708 10.487 7.4279 10.5224C6.59546 10.6633 5.86548 11.0018 5.33699 11.6848C4.61597 12.6163 4.82173 13.6643 5.83303 14.2616C6.46739 14.6364 7.16792 14.776 7.89065 14.8174C8.62491 14.8592 9.33952 14.7636 10.0021 14.4212C10.6488 14.087 11.1478 13.6063 11.2908 12.8686C11.4851 11.8641 11.176 11.036 10.3384 10.4157C10.0947 10.2351 9.86759 10.0259 9.65798 9.80608C9.46204 9.60075 9.47869 9.41206 9.68274 9.20886C9.81807 9.07354 9.97217 8.957 10.1165 8.83106C10.7956 8.23726 11.0787 7.50172 10.8644 6.61464C10.7897 6.30429 10.6398 6.01187 10.5425 5.7583C10.7124 5.6678 10.9015 5.57473 11.0825 5.46801C11.1982 5.39971 11.3015 5.31006 11.4112 5.23151C11.5201 5.15382 11.6178 5.07057 11.5666 4.91689C11.5162 4.76492 11.3912 4.75297 11.2554 4.75339C10.2881 4.7551 9.32074 4.74955 8.3534 4.75681C7.65458 4.76193 7.02662 4.98947 6.48234 5.42575C5.98287 5.82575 5.62684 6.32564 5.57007 6.9822C5.46463 8.20182 6.26035 9.24984 7.46419 9.49744C7.62811 9.53117 7.79503 9.54952 7.92523 9.56958C7.96536 9.88079 8.00207 10.1651 8.04006 10.4592ZM13.2524 8.84387C13.1534 8.84387 13.0774 8.84387 13.0014 8.84387C12.5391 8.84387 12.0768 8.84558 11.6144 8.84344C11.4202 8.84259 11.3331 8.93095 11.3267 9.12775C11.3058 9.79242 11.3024 9.79242 11.9628 9.79242C12.1194 9.79242 12.2757 9.79242 12.4324 9.79242C12.7 9.79242 12.9677 9.79242 13.2251 9.79242C13.24 9.83255 13.249 9.84536 13.249 9.85816C13.2507 10.2705 13.2571 10.6833 13.252 11.0957C13.2439 11.7548 13.2439 11.7211 13.8876 11.7151C14.1263 11.713 14.1971 11.6383 14.198 11.3894C14.1997 10.9271 14.1984 10.4648 14.1984 10.0025C14.1984 9.935 14.1984 9.86756 14.1984 9.79242C14.7589 9.79242 15.2853 9.79114 15.8112 9.79328C15.961 9.79413 16.116 9.754 16.1083 9.59264C16.0968 9.34717 16.2522 9.0586 15.9743 8.86479C15.9337 8.83619 15.8637 8.84558 15.8074 8.84472C15.6084 8.84259 15.4091 8.84387 15.2097 8.84387C14.8776 8.84387 14.5459 8.84387 14.2244 8.84387C14.2099 8.80203 14.2018 8.7888 14.2018 8.77599C14.2001 8.25689 14.201 7.73737 14.1975 7.21827C14.1963 6.99586 14.1258 6.92798 13.9034 6.91944C13.8326 6.91688 13.7613 6.91859 13.69 6.91859C13.2738 6.91901 13.2528 6.93951 13.2528 7.35103C13.2524 7.83982 13.2524 8.32861 13.2524 8.84387Z"
    fill="white" />
  <path
    d="M8.1813 13.8854C7.76722 13.8786 7.33691 13.7795 6.96466 13.4969C6.27907 12.9766 6.2842 12.1279 6.98857 11.6353C7.567 11.2306 8.22143 11.0859 8.89378 11.2933C9.34757 11.4333 9.74757 11.7305 10.005 12.1454C10.3012 12.6222 10.031 13.3518 9.4893 13.6335C9.18877 13.7898 8.72516 13.882 8.1813 13.8854Z"
    fill="white" />
  <path
    d="M9.07511 7.92513C9.03755 8.07625 9.00809 8.31189 8.92101 8.52448C8.69731 9.07133 8.16669 9.2438 7.65954 8.93899C7.13916 8.62608 6.87577 8.1326 6.75453 7.55501C6.67982 7.20027 6.69178 6.84808 6.83564 6.50913C7.06317 5.97338 7.57075 5.77829 8.07875 6.06217C8.76775 6.4468 9.0098 7.09525 9.07511 7.92513Z"
    fill="white" />
</svg>