<svg
    id="Layer_1"
    data-name="Layer 1"
    xmlns="http://www.w3.org/2000/svg"
    viewBox="0 0 32 21"
    width="22"
    height="17"
  >
    <defs>
      <clipPath id="clip-path">
        <path d="M-0.09 0H31.91V21H-0.09z" fill="none" />
      </clipPath>
    </defs>
    <g clipPath="url(#clip-path)">
      <path
        d="M31.91 0L31.91 21 -0.09 21 -0.09 0 31.91 0 31.91 0z"
        fill="#308b43"
      />
      <path
        className="cls-4"
        d="M31.91 19.79L31.91 21 28.63 21 15.89 12.81 13.32 11.16 13.27 11.13 -0.09 2.54 -0.09 0 1.11 0 15.92 9.52 15.92 9.52 18.54 11.2 31.9 19.78 31.9 19.78 31.91 19.79 31.91 19.79z"
      />
      <path
        className="cls-4"
        d="M31.91 0L31.91 3.08 18.6 11.16 18.54 11.2 15.89 12.81 2.42 21 -0.09 21 -0.09 19.25 9.1 13.66 9.1 13.66 13.27 11.13 15.92 9.52 15.92 9.52 31.58 0 31.91 0 31.91 0z"
      />
      <path d="M31.91 3.08L18.6 11.16 31.91 19.79 31.91 3.08 31.91 3.08z" />
      <path d="M-0.09 2.54L-0.09 19.09 13.32 11.16 -0.09 2.54 -0.09 2.54z" />
    </g>
  </svg>