<svg xmlns="http://www.w3.org/2000/svg" fill="none" height="5" width="6">
  <path className="hover:fill-yellow-400"
    d="M9.87739 0.000370308C15.1063 -0.00445635 19.3701 4.2561 19.3742 9.49027C19.3783 14.7038 15.1331 18.9967 9.97101 18.9995C4.643 19.0029 0.387474 14.7817 0.391605 9.49854C0.395735 4.25472 4.64025 0.00519697 9.87739 0.000370308ZM14.464 14.1535C14.4778 14.0763 14.4964 14.0218 14.4964 13.9667C14.4971 12.5773 14.506 11.1872 14.4909 9.7978C14.4847 9.22274 14.2238 8.75041 13.8348 8.32429C13.0921 7.50996 11.0359 7.49548 10.3042 8.35187C10.245 8.42151 10.1665 8.47391 10.035 8.58838C10.035 8.27533 10.035 8.05055 10.035 7.81611C9.40172 7.81611 8.80077 7.81611 8.19225 7.81611C8.19225 9.93915 8.19225 12.0346 8.19225 14.1452C8.81592 14.1452 9.41549 14.1452 10.0515 14.1452C10.0515 13.9963 10.0515 13.8729 10.0515 13.7495C10.0515 12.7848 10.0481 11.8202 10.0529 10.8555C10.0571 10.0336 10.6119 9.46062 11.3918 9.46269C12.116 9.46476 12.5958 10.0115 12.5978 10.8445C12.5999 11.8209 12.5978 12.7972 12.5992 13.7729C12.5992 13.8949 12.6095 14.017 12.6157 14.1535C13.2422 14.1535 13.8348 14.1535 14.464 14.1535ZM5.15171 7.81335C5.15171 7.9616 5.15171 8.08571 5.15171 8.21052C5.15171 9.65714 5.15171 11.1038 5.15171 12.5504C5.15171 12.9979 5.14413 13.4461 5.1579 13.8936C5.16066 13.9853 5.23913 14.1521 5.28594 14.1535C5.87519 14.1714 6.46512 14.1652 7.05162 14.1652C7.05162 12.0125 7.05162 9.91846 7.05162 7.81335C6.41212 7.81335 5.79878 7.81335 5.15171 7.81335ZM6.11612 4.58156C5.47387 4.57535 4.96998 5.08629 4.97135 5.74202C4.97273 6.3757 5.47387 6.88181 6.10166 6.88456C6.72671 6.88663 7.23886 6.38397 7.24918 5.75651C7.26088 5.10973 6.75768 4.58776 6.11612 4.58156Z"
    fill="white" />
</svg>