 <svg
    xmlns="http://www.w3.org/2000/svg"
    width='11'
    height='9'
    fill="none"
    data-name="Layer 1"
    className='w-6'
  >
    <path
      className="hover:fill-yellow-400"
      fill="#fff"
      d="M11 5.974c-.072.216-.113.446-.22.645-.378.698-1.006 1.057-1.839 1.08-.57.017-1.14.006-1.71.003-.267-.002-.341-.077-.343-.33-.002-.19 0-.38 0-.57 0-.33.046-.373.389-.374.521 0 1.042.002 1.563 0 .508-.002.79-.26.79-.73V2c0-.47-.282-.727-.79-.728-.53-.002-1.059 0-1.588 0-.31-.001-.363-.053-.364-.35 0-.213.005-.426-.001-.639-.006-.18.09-.283.27-.282.716.004 1.435-.017 2.146.04.796.065 1.51.76 1.65 1.51.011.058.032.116.047.174v4.249Z"
    />
    <path
      className="hover:fill-yellow-400"
      fill="#fff"
      d="M3.45 5.443H.614c-.427 0-.61-.171-.612-.568-.003-.579-.003-1.157 0-1.736.001-.384.186-.56.593-.56.936-.003 1.872-.001 2.84-.001.005-.091.014-.17.014-.25.002-.533.005-1.066 0-1.599-.004-.241.059-.44.322-.531.243-.085.438-.004.615.162C5.54 1.443 6.7 2.523 7.856 3.607c.294.275.292.534-.004.81C6.702 5.496 5.547 6.57 4.399 7.65c-.183.171-.383.262-.634.173-.261-.092-.32-.295-.317-.535.006-.6.002-1.201.002-1.844Z"
    />
  </svg>