<svg
    xmlns="http://www.w3.org/2000/svg"
    width="24"
    height="19"
    viewBox="0 0 28 19"
    fill="none"
    className="m-auto"
  >
    <path
      fill="#555"
      d="M0 16.995v-.62c.048-.168.087-.337.144-.502 1.628-4.683 3.258-9.367 4.891-14.05C5.43.696 6.408.008 7.585.002c.951-.003 1.906 0 2.858 0 .07 0 .135.006.228.012v.27c0 .779.003 1.559 0 2.338 0 .327.066.63.261.896.34.462.92.657 1.463.492.555-.171.93-.666.94-1.284.011-.81.002-1.623.002-2.433v-.27c.049-.012.064-.02.079-.02C14.406.003 15.4 0 16.39 0c1.231.003 2.189.694 2.6 1.88 1.616 4.638 3.231 9.276 4.84 13.917.085.245.154.508.166.764.069 1.34-.952 2.43-2.273 2.434-2.72.006-5.438.003-8.158 0-.07 0-.138-.006-.235-.01v-.268c0-.786-.002-1.575 0-2.36 0-.319-.069-.615-.258-.875a1.315 1.315 0 0 0-1.459-.495 1.298 1.298 0 0 0-.937 1.208c-.02.834-.009 1.669-.012 2.503v.285c-.069.006-.105.015-.144.015-2.774 0-5.549.006-8.323-.003-.96-.003-1.829-.694-2.108-1.639a10.654 10.654 0 0 0-.09-.36Zm10.68-7.487h-.006c0 .413-.003.829.003 1.241.003.144.003.288.036.428.144.643.754 1.095 1.387 1.043.667-.055 1.21-.575 1.229-1.25.026-.979.005-1.957.005-2.935a.833.833 0 0 0-.03-.211c-.156-.645-.76-1.089-1.396-1.03a1.326 1.326 0 0 0-1.219 1.259c-.027.483-.009.97-.009 1.455Z"
    />
  </svg>