<svg xmlns="http://www.w3.org/2000/svg" id="Layer_1" data-name="Layer 1" viewBox="0 0 32 21" width="32" height="21">
	<title>
		Namibia
	</title>
	<path d="m8 8.82-1.24-1-.52 1.47-.56-1.48-1.24 1 .27-1.56-1.59.27 1-1.21-1.49-.54 1.52-.55L3.12 4l1.59.27-.27-1.55 1.24 1 .56-1.48.56 1.49L8 2.72l-.23 1.56L9.36 4l-1 1.21 1.51.55-1.51.55 1 1.21-1.59-.26L8 8.82ZM-.11 0v16.7L25.52 0Z" />
	<path d="M32 21V4.31L6.33 21H32z" fill="#019548" />
	<path d="m8.33 6.32 1.51-.55-1.51-.55L9.36 4l-1.59.27L8 2.72l-1.24 1-.52-1.47-.56 1.48-1.24-1 .27 1.56L3.12 4l1 1.21-1.52.55 1.52.55-1 1.21 1.59-.27a2.08 2.08 0 0 1-.63-1.49 2.16 2.16 0 1 1 2.16 2.12 2.19 2.19 0 0 1-1.53-.62l-.27 1.56 1.24-1 .56 1.48.56-1.49L8 8.82l-.23-1.56 1.59.27-1-1.21Z" />
	<path d="M6.24 4a1.76 1.76 0 1 1-1.8 1.76A1.78 1.78 0 0 1 6.24 4Zm0 3.87a2.11 2.11 0 1 0-2.16-2.1 2.08 2.08 0 0 0 .63 1.49 2.19 2.19 0 0 0 1.53.62Z" fill="#213e7a" />
	<path d="M6.24 7.53a1.76 1.76 0 1 0-1.8-1.76 1.78 1.78 0 0 0 1.8 1.76Z" fill="#fecf06" />
	<path d="M25.52 0-.11 16.7v1.08L27.14 0h-1.62zM6.33 21 32 4.31V3.22L4.64 21h1.69z" fill="#fff" />
	<path d="M32 3.22V0h-4.86L-.11 17.78V21h4.75L32 3.22z" fill="#ee2237" />
</svg>
