<svg xmlns="http://www.w3.org/2000/svg" id="Layer_1" data-name="Layer 1" viewBox="0 0 32 21" width="32" height="21">
	<defs>
		<clipPath id="clip-path">
			<path d="M0 0h32v21H0z" style="fill: none;">
			</path>
		</clipPath>
	</defs>
	<title>
		Philippines
	</title>
	<g style="clip-path: url(&quot;#clip-path&quot;);">
		<path d="m13.88 10.48.03.02L.09 21H32V10.48H13.88z" style="fill: rgb(204, 23, 44);">
		</path>
		<path d="M32 0H0l13.88 10.48H32V0z" style="fill: rgb(7, 60, 165);">
		</path>
	</g>
	<path d="M0 0v21h.09l13.82-10.5L0 0z" style="fill: rgb(255, 255, 255);">
	</path>
	<path d="M6.66 9.88a1.63 1.63 0 0 1-1.59 1.68 1.68 1.68 0 0 1 0-3.35 1.63 1.63 0 0 1 1.59 1.67Z" fill="#fbd036">
	</path>
	<path d="m5.07 6.31-.23.24.12 1.66.21.02.09-1.7-.19-.22zM5.46 6.7l-.18 1.54.07.02.28-1.38-.17-.18zM4.66 6.71l.19 1.54-.07.01-.28-1.37.16-.18zM7.46 7.38l-.32-.01L6.1 8.63l.14.17 1.21-1.13.01-.29zM7.48 7.95l-1.17.94.04.06 1.12-.75.01-.25zM6.91 7.35 6 8.57l-.06-.04.73-1.17.24-.01zM8.43 9.9l-.22-.24-1.58.12-.02.22 1.61.11.21-.21zM8.06 10.32l-1.46-.21-.01.08 1.29.3.18-.17zM8.06 9.47l-1.46.19-.01-.08 1.29-.28.18.17zM7.42 12.41v-.33l-1.18-1.1-.16.14 1.06 1.29h.28zM6.88 12.44l-.89-1.24-.06.04.71 1.18.24.02zM7.45 11.83l-1.16-.95.04-.07 1.11.77.01.25zM2.68 12.4h.31l1.04-1.25-.13-.18-1.21 1.13-.01.3zM2.66 11.83l1.17-.94-.04-.07-1.12.76-.01.25zM3.23 12.43l.9-1.23.06.05-.72 1.17-.24.01zM1.69 9.88l.22.24 1.57-.11.02-.22-1.61-.11-.2.2zM2.06 9.46l1.45.21.01-.07-1.29-.31-.17.17zM2.06 10.31l1.46-.19.01.08-1.3.29-.17-.18zM2.71 7.35v.33l1.19 1.1.16-.14-1.07-1.28-.28-.01zM3.25 7.33l.89 1.24.06-.05-.71-1.18-.24-.01zM2.69 7.93l1.15.96-.04.06-1.11-.77v-.25zM5.05 13.43l.23-.24-.11-1.66-.21-.02-.1 1.7.19.22zM4.66 13.04l.2-1.54-.08-.02-.28 1.37.16.19zM5.46 13.04l-.18-1.54.08-.02.26 1.37-.16.19zM.92 2.92l.48.46.56-.34-.26.63.48.45-.64-.07-.27.63-.13-.67-.65-.07.56-.34-.13-.68zM.47 15.83l.65-.04.17-.66.23.64.65-.04-.5.44.23.63-.55-.37-.5.43.17-.66-.55-.37zM11.64 8.98l.04.68.63.18-.61.24.04.69-.41-.53-.61.24.36-.57-.41-.53.62.17.35-.57z" fill="#fbd036">
	</path>
</svg>
