<svg xmlns="http://www.w3.org/2000/svg" xml:space="preserve" width="1em" height="1em" style="fill-rule:evenodd;clip-rule:evenodd;stroke-linejoin:round;stroke-miterlimit:2" viewBox="0 0 64 64">
	<path d="M-1024-64H256v800h-1280z" fill="none">
	</path>
	<path d="M46.03 32a4.987 4.987 0 0 1 4.985-4.985A4.988 4.988 0 0 1 56 32a4.988 4.988 0 0 1-4.985 4.985A4.987 4.987 0 0 1 46.03 32Z" fill="#d9d9d9">
	</path>
	<path d="M41.92 41.92a4.99 4.99 0 0 1 7.051 0 4.99 4.99 0 0 1 0 7.051 4.99 4.99 0 0 1-7.051 0 4.99 4.99 0 0 1 0-7.051Z" fill="#b3b3b3">
	</path>
	<circle cx="32" cy="51.015" r="4.985" fill="#8c8c8c">
	</circle>
	<path d="M22.08 41.92a4.99 4.99 0 0 1 0 7.051 4.99 4.99 0 0 1-7.051 0 4.99 4.99 0 0 1 0-7.051 4.99 4.99 0 0 1 7.051 0Z" fill="#666">
	</path>
	<path d="M17.97 32a4.987 4.987 0 0 1-4.985 4.985A4.988 4.988 0 0 1 8 32a4.988 4.988 0 0 1 4.985-4.985A4.987 4.987 0 0 1 17.97 32ZM22.08 22.08a4.99 4.99 0 0 1-7.051 0 4.99 4.99 0 0 1 0-7.051 4.99 4.99 0 0 1 7.051 0 4.99 4.99 0 0 1 0 7.051Z" fill="#404040">
	</path>
	<circle cx="32" cy="12.985" r="4.985">
	</circle>
</svg>
