<?xml version="1.0" encoding="utf-8"?>
<svg version="1.1" id="Layer_1" xmlns="http://www.w3.org/2000/svg" xmlns:xlink="http://www.w3.org/1999/xlink" x="0px" y="0px" width="22" height="17" viewBox="0 0 55.68 38.88" xml:space="preserve">
	<g>
		<path fill="#A51931" d="M3.27,0.24h49.13c1.67,0,3.03,1.36,3.03,3.03v32.33c0,1.67-1.37,3.03-3.03,3.03H3.27 c-1.67,0-3.03-1.37-3.03-3.03V3.27C0.24,1.6,1.6,0.24,3.27,0.24L3.27,0.24z" />
		<polygon fill="#F4F5F8" points="0.24,5.59 55.44,5.59 55.44,33.29 0.24,33.29 0.24,5.59" />
		<polygon fill="#2D2A4A" points="0.24,12.52 55.44,12.52 55.44,26.36 0.24,26.36 0.24,12.52" />
		<path fill="none" stroke="#CCCCCC" strokeWidth="0.4799" strokeMiterlimit="22.9256" d="M3.27,0.24h49.13c1.67,0,3.03,1.36,3.03,3.03v32.33c0,1.67-1.37,3.03-3.03,3.03H3.27 c-1.67,0-3.03-1.37-3.03-3.03V3.27C0.24,1.6,1.6,0.24,3.27,0.24L3.27,0.24z" />
	</g>
</svg>
