<svg
    xmlns="http://www.w3.org/2000/svg"
    width="2em"
    height="2em"
    fill="none"
  >
    <path
      fill="#27BAE8"
      d="M29 14.5C29 22.506 22.506 29 14.5 29 6.495 29 0 22.506 0 14.5 0 6.495 6.495 0 14.5 0 22.506 0 29 6.495 29 14.5Z"
    />
    <path
      fill="#fff"
      d="M23.816 8.722c-.688.3-1.425.508-2.198.601A3.858 3.858 0 0 0 23.3 7.211a7.665 7.665 0 0 1-2.427.93 3.809 3.809 0 0 0-2.793-1.21 3.823 3.823 0 0 0-3.723 4.698A10.833 10.833 0 0 1 6.48 7.633a3.809 3.809 0 0 0-.515 1.92c0 1.324.673 2.498 1.697 3.178a3.846 3.846 0 0 1-1.733-.48v.05a3.82 3.82 0 0 0 3.065 3.746 3.905 3.905 0 0 1-1.01.136c-.244 0-.487-.022-.716-.072a3.836 3.836 0 0 0 3.573 2.657 7.686 7.686 0 0 1-4.747 1.64c-.308 0-.616-.022-.91-.05a10.845 10.845 0 0 0 5.857 1.718c7.032 0 10.877-5.822 10.877-10.877 0-.165-.007-.33-.014-.494a7.864 7.864 0 0 0 1.912-1.983Z"
    />
  </svg>