<svg xmlns="http://www.w3.org/2000/svg" fill="none" height="5" width="6">
  <path className="hover:fill-yellow-400"
    d="M9.41975 3.00846e-05C4.32634 -0.0130729 0.0131294 4.25575 3.3977e-05 9.32247C-0.0137506 14.7237 4.1685 18.9918 9.48247 18.9994C14.7234 19.007 18.9897 14.7561 18.9994 9.51832C19.0083 4.23506 14.7599 0.0138227 9.41975 3.00846e-05ZM14.4181 7.17289C14.265 7.29495 14.1989 7.39081 14.2051 7.58529C14.3657 12.7396 8.8663 15.8036 4.30773 13.4292C4.26017 13.4044 4.21951 13.3678 4.10096 13.283C5.28781 13.2285 6.36715 13.1299 7.32173 12.3079C6.2548 12.1789 5.62002 11.6079 5.212 10.6652C5.54903 10.6652 5.83437 10.6652 6.11972 10.6652C5.11068 10.2197 4.5786 9.47695 4.47521 8.40181C4.81224 8.49008 5.12791 8.57284 5.44289 8.65559C4.39181 7.38116 4.19194 6.47084 4.81983 5.5295C6.1018 6.88807 7.56228 7.8901 9.54933 7.90459C9.54933 7.78045 9.55346 7.69218 9.54864 7.60529C9.49901 6.61222 9.90084 5.85431 10.7775 5.39295C11.6722 4.92262 12.5626 4.99296 13.3649 5.61018C13.6151 5.80259 13.8067 5.83362 14.07 5.70328C14.3671 5.55639 14.6738 5.42743 15.0349 5.26468C14.8757 5.77707 14.56 6.12258 14.2313 6.50463C14.56 6.4205 14.8888 6.33567 15.2176 6.25154C15.2417 6.2805 15.2658 6.30878 15.2892 6.33774C15.0011 6.61911 14.7317 6.92255 14.4181 7.17289Z"
    fill="white" />
</svg>