<svg xmlns="http://www.w3.org/2000/svg" fill="none" height="5" width="6">
  <path className="hover:fill-yellow-400"
    d="M9.58354 0.000596303C4.38193 -0.0352298 0.11324 4.11715 0.00789951 9.29472C-0.101572 14.6487 4.20912 18.9705 9.42174 18.9829C14.7225 18.9953 18.9781 14.7782 18.9884 9.50761C18.9988 4.30455 14.7521 0.0364224 9.58354 0.000596303ZM14.8175 11.7598C14.6936 12.6169 14.3314 13.0447 13.4708 13.1219C12.0222 13.2521 10.5653 13.3203 9.11123 13.341C8.07022 13.3562 7.02714 13.2535 5.98544 13.1963C5.79198 13.186 5.59851 13.1474 5.40779 13.1109C4.7193 12.9807 4.26557 12.568 4.20843 11.8749C4.11961 10.7905 4.09138 9.69983 4.07693 8.61196C4.07004 8.09868 4.12994 7.57989 4.20636 7.07074C4.30551 6.41209 4.69864 5.95669 5.36442 5.87746C6.41025 5.75276 7.46365 5.69488 8.51499 5.62185C8.84616 5.59912 9.18008 5.61841 9.51262 5.61841C9.51331 5.59843 9.51469 5.57776 9.51538 5.55778C10.774 5.6377 12.0346 5.69006 13.2897 5.80512C14.2922 5.89744 14.6977 6.30462 14.8292 7.2981C15.0282 8.78351 15.0323 10.2751 14.8175 11.7598Z"
    fill="white" />
  <path
    d="M8.44269 11.1135C9.38593 10.5644 10.2851 10.0408 11.2476 9.48067C10.2768 8.9233 9.3701 8.40244 8.44269 7.86987C8.44269 8.97566 8.44269 10.0208 8.44269 11.1135Z"
    fill="white" />
</svg>