<svg id="Layer_1" data-name="Layer 1" xmlns="http://www.w3.org/2000/svg" viewBox="0 0 609.83 153.88"><defs><style>.cls-1{fill:#fff;}.cls-2{fill:#fa0001;}</style></defs><title>Artboard 1</title><path class="cls-1" d="M227,10.36h55.86c.48.13.94.28,1.43.37,4.25.77,6,3.52,4.69,7.63-.26.84-.59,1.67-.93,2.49q-12.71,29.73-25.4,59.46a5.54,5.54,0,0,0-.54,2.37,6.58,6.58,0,0,0,.84,2,5.93,5.93,0,0,0,1.9-1.06c1.37-1.67,2.49-3.56,3.89-5.2Q293.42,49.69,318.17,21c4.44-5.13,9.58-9.3,16.53-10.61h41.47a2.8,2.8,0,0,0,.71.36c2.6.56,4.27,2.16,4.32,4.78a19.15,19.15,0,0,1-.9,6.35c-6.39,18.86-12.92,37.68-19.36,56.53a13,13,0,0,0-.6,3.57,4.94,4.94,0,0,0,.61,1.76,5.89,5.89,0,0,0,1.59-1c1.68-2.06,3.23-4.24,4.92-6.3,14.83-18,29.79-36,44.47-54.18,4.41-5.45,9.42-9.55,16.35-11,1.89-.4,3.84-.56,5.76-.84H559.47c.61.23,1.21.51,1.83.69,10.13,2.88,19.54,7.16,27.48,14.23,6.3,5.62,10.63,12.43,12,20.85a63.44,63.44,0,0,1-.2,19.11,66.09,66.09,0,0,1-16.85,36.17c-9.56,10.46-21.36,17.49-34.58,22.35a46.46,46.46,0,0,1-16.48,2.79c-35.4-.15-70.8-.08-106.2-.06-2.67,0-5.34.22-8,.23a16.12,16.12,0,0,1-3.8-.37c-2.33-.57-3.6-2.3-3-4.61a29.73,29.73,0,0,1,2.67-6.95c8.09-14.58,16.38-29.06,24.42-43.67,2.53-4.61,6.12-6.48,11.27-6.42,11.37.13,22.74,0,34.11,0,.5,0,1,0,1.51,0,2.14.13,3.31,1.37,3.05,3.49a12.53,12.53,0,0,1-1,3.68c-2.42,5.25-4.91,10.46-7.42,15.67-1.06,2.2-2.3,4.32-3.36,6.52-1.17,2.41-.34,4,2.27,4.5a13.92,13.92,0,0,0,2.66.23q18.3,0,36.62,0a6.81,6.81,0,0,0,1.5-.06c9.54-2.22,18.54-5.64,26.14-12,5-4.18,8.47-9.35,9.27-15.91A105.47,105.47,0,0,0,556,58.55a35.57,35.57,0,0,0-1.77-12.31c-1.59-4.4-4.4-7.44-9.25-8.11a30.49,30.49,0,0,0-4.17-.19c-27.87,0-55.75.05-83.62-.07-3.75,0-6.22,1.66-8.35,4.32-2.36,3-4.6,6-7,8.94Q423,74.43,404.05,97.68c-4.63,5.69-9,11.66-14,16.95-7.94,8.29-17.66,12.79-29.5,12.58-14.54-.27-29.1-.07-43.65-.07-2,0-4,0-6,0-2.78,0-4.09-1.69-3.47-4.39a26.62,26.62,0,0,1,.8-2.54q8.38-24.6,16.74-49.2a10.42,10.42,0,0,0,.51-2.77,4.38,4.38,0,0,0-.47-1.48,4.12,4.12,0,0,0-1.44.63c-1.43,1.55-2.76,3.19-4.15,4.78q-17.56,20.14-35.13,40.29c-2.27,2.6-4.4,5.34-6.89,7.72-5.77,5.52-12.92,7.63-20.77,7.63H202.05c-3,0-4.28-1.5-3.58-4.47a34.31,34.31,0,0,1,1.79-5.53Q217,79.13,233.85,40.46c.21-.49.39-1,.68-1.75H213.25c-2.21,0-3.75-1-3.89-3.22a13.32,13.32,0,0,1,.82-6c1.87-4.33,4.12-8.49,6.3-12.67A11.61,11.61,0,0,1,224.27,11C225.17,10.8,226.08,10.59,227,10.36Z"/><path class="cls-2" d="M209.6,10.36l2,.7c2,.72,2.37,1.86.94,3.49a14.3,14.3,0,0,1-2.36,2.1L110.07,88.82c-2.71,2-5.46,3.86-8,6-.89.73-1.31,2-2,3.07,1.14.42,2.28,1.2,3.42,1.21,13,.09,26.08.05,39.13.07a1.84,1.84,0,0,0,1.89-1.24Q150.7,85.42,156.93,73c2.08-4.15,5.78-6,10.13-6.8a27.64,27.64,0,0,1,4.82-.35c9.7,0,19.39,0,29.09,0,3.81,0,5.38,2.07,4.22,5.75A42,42,0,0,1,203,76.94c-8.74,18.36-17.41,36.75-26.33,55-1.77,3.62-5.14,6.1-8.61,8.2a23.25,23.25,0,0,1-12.4,3.35c-8-.06-16.05,0-24.08,0a12.9,12.9,0,0,1-3.59-.59c-2.84-.85-3.67-2.74-2.43-5.4,1.32-2.81,2.73-5.59,4.07-8.39.26-.54.43-1.12.74-2H128q-53.85,0-107.69,0a16.15,16.15,0,0,1-9.21-3c-3.05-2.06-3.6-5.1-1.15-7.85a39.12,39.12,0,0,1,6.34-5.64Q67.47,74,118.7,37.35c11.09-7.94,22.13-16,33.32-23.76,2.16-1.51,4.92-2.17,7.4-3.23Z"/></svg>