<?xml version="1.0" encoding="utf-8"?>
<!-- Generator: Adobe Illustrator 24.0.1, SVG Export Plug-In . SVG Version: 6.00 Build 0)  -->
<svg version="1.1" id="Layer_1" xmlns="http://www.w3.org/2000/svg" xmlns:xlink="http://www.w3.org/1999/xlink" x="0px" y="0px"
	 viewBox="0 0 50 50" style="enable-background:new 0 0 50 50;" xml:space="preserve">
<style type="text/css">
	.st0{fill:#DFDCDD;}
	.st1{fill:#BD1312;}
	.st2{fill:#FEFEFE;}
	.st3{fill:#BCB1B1;}
	.st4{fill:#BCB1B2;}
	.st5{fill:#BA1413;}
	.st6{fill:#B8B2B3;}
	.st7{fill:#A09593;}
	.st8{fill:#262642;}
	.st9{fill:#BAB0B0;}
	.st10{fill:#1D1E30;}
	.st11{fill:#1D1E2F;}
	.st12{fill:#1E1D2F;}
	.st13{fill:#1D1D2F;}
	.st14{fill:#E0DDE2;}
	.st15{fill:#E0DDE0;}
	.st16{fill:#E0DCE1;}
	.st17{fill:#E0DEE2;}
	.st18{fill:#DFDEE1;}
	.st19{fill:#DFDEE2;}
	.st20{fill:#E0DEDA;}
	.st21{fill:#DFDCE1;}
	.st22{fill:#DFDDE5;}
	.st23{fill:#DDD9E2;}
	.st24{fill:#DDDBD6;}
	.st25{fill:#DCDBD6;}
	.st26{fill:#DDDCD5;}
	.st27{fill:#DDDCD6;}
	.st28{fill:#DDD9E3;}
	.st29{fill:#E2DDD6;}
	.st30{fill:#E0DDE5;}
	.st31{fill:#DFDFE3;}
	.st32{fill:#E0DFE2;}
	.st33{fill:#DFDFE2;}
	.st34{fill:#DCDBD5;}
	.st35{fill:#E1DEE9;}
	.st36{fill:#DBDAEA;}
	.st37{fill:#E1DFE9;}
	.st38{fill:#EADBE3;}
	.st39{fill:#EAD2E0;}
	.st40{fill:#FDFDFD;}
	.st41{fill:#8C0A0A;}
	.st42{fill:#B8130F;}
	.st43{fill:#C11313;}
	.st44{fill:#22263B;}
	.st45{fill:#BA1414;}
	.st46{fill:#BAAFAD;}
	.st47{fill:#BCB0B2;}
</style>
<g id="YuTmhE.tif">
	<g>
		<path class="st0" d="M4.4,42.5c0-8.5,0-16.9,0-25.4c0.1-0.2,0.3-0.3,0.5-0.3c0.2,0,0.4,0,0.5,0c13.1,0,26.1,0,39.2,0
			c0.3,0,0.6-0.1,0.9,0.2c0.1,0.1,0,0.2,0,0.3c0,6.8,0,13.5,0,20.3c0,0.1,0,0.1,0,0.2C45.4,38,45.1,38,44.9,38c-1.4,0-2.9,0-4.3,0
			c-1.1,0-1.6,0.7-1.6,1.6c0,1.4,0,2.9,0,4.3c0,0.3,0,0.5-0.1,0.7c-0.1,0.1-0.2,0.2-0.4,0.2c-0.1,0-0.2,0-0.3,0
			c-10.2,0-20.4,0-30.6,0c-0.1,0-0.2,0-0.3,0c-0.6-0.1-1.2-0.1-1.7-0.5C5,43.9,4.5,43.3,4.4,42.5z"/>
		<path class="st1" d="M4.4,10.1c0-0.3,0-0.6,0-0.9c0.3-1.5,1.3-2.3,2.9-2.3c1.2,0,2.4,0,3.7,0c0.2,0,0.5,0,0.6,0.2
			c0.1,0.2,0.1,0.5,0.1,0.7c0,0.4,0,0.9,0,1.3c-0.1,0.9,0.3,1.5,1,2c0.1,0.1,0.2,0.3,0.3,0.4c0.4,0.5,1,0.5,1.5,0.2
			c0.5-0.3,0.6-0.9,0.4-1.4c-0.3-0.6-0.8-0.8-1.4-0.7c-0.2,0.1-0.4,0.2-0.6,0c-0.3-0.6-0.1-1.2-0.1-1.8c0-0.3-0.1-0.7,0.2-0.9
			c0.6-0.2,1.2-0.1,1.9-0.1c0.5,0,0.9,0,1.4,0c1.3-0.1,2.6,0,3.9,0c0.7,0,1.4,0,2,0c0.2,0,0.4,0,0.6,0.1c0.1,0.1,0.1,0.1,0.1,0.2
			c0,0.7,0,1.4,0,2c0,0.5,0,1.1,0.5,1.5c0.2,0.1,0.4,0.3,0.5,0.4c0.1,0.1,0.2,0.3,0.3,0.4c0.4,0.4,1,0.5,1.5,0.2
			c0.4-0.3,0.6-0.9,0.4-1.4c-0.2-0.5-0.7-0.8-1.3-0.7c-0.1,0-0.3,0.1-0.4,0.1c-0.2,0-0.3,0-0.4-0.1c-0.1-0.8-0.1-1.5,0-2.3
			C24,7.2,24,7.1,24.1,7c0.6-0.3,1.1-0.1,1.7-0.1c0.1,0,0.1,0,0.2,0c0.5-0.1,0.9,0,1.4,0c1.4-0.1,2.8,0,4.3,0c0.5,0,1.1,0,1.6,0
			c0.2,0,0.4,0,0.6,0.1C34,7.1,34,7.3,34,7.5c0,0.5,0,1,0,1.6c-0.1,0.9,0.3,1.6,1,2c0.1,0.1,0.2,0.3,0.4,0.5c0.4,0.4,1,0.4,1.5,0.1
			c0.4-0.3,0.6-0.8,0.4-1.4c-0.2-0.5-0.7-0.8-1.2-0.7c-0.2,0-0.3,0.1-0.5,0.1c-0.2,0.1-0.4,0-0.5-0.2c-0.1-0.7,0-1.4,0-2.2
			c0-0.1,0-0.2,0.1-0.3c0.6-0.3,1.2-0.1,1.9-0.1c0.4,0,0.9-0.1,1.3,0c1.5,0,3,0,4.5,0c0.9,0,1.7,0.4,2.2,1.1
			c0.3,0.4,0.4,0.8,0.4,1.2c0,0.1,0,0.2-0.1,0.2c-0.1,0.2-0.1,0.3-0.1,0.5c0,1.8,0,3.6,0,5.4c0,0.1,0,0.3,0.1,0.4c0,0.1,0,0.1,0,0.2
			C45.2,16,45,16,44.7,16c-4.4,0-8.7,0-13.1,0c-8.7,0-17.4,0-26.2,0c-0.3,0-0.5,0-0.8-0.1c-0.1,0-0.1-0.1-0.1-0.1c0-1.8,0-3.6,0-5.5
			c0,0,0-0.1-0.1-0.1C4.5,10.2,4.4,10.1,4.4,10.1z"/>
		<path class="st2" d="M45.5,9.3c-0.1-0.7-0.5-1.2-1-1.6C44,7.2,43.4,7,42.8,7c-1.4,0-2.8,0-4.3,0c-0.2-0.2-0.2-0.4-0.2-0.6
			c0-0.4,0-0.9,0-1.3c0-0.5-0.2-0.8-0.6-1.1c-0.9-0.6-2.2-0.6-3.1,0c-0.3,0.3-0.5,0.6-0.5,1c0,0.5,0,1,0,1.5c0,0.2,0,0.4-0.3,0.5
			C31.9,7,30,7,28,7c-0.2,0-0.5,0-0.7,0c-0.2-0.1-0.2-0.3-0.2-0.5c0-0.4,0-0.8,0-1.2c0-0.5-0.2-0.9-0.6-1.2c-0.8-0.7-2.3-0.7-3.1,0
			c-0.4,0.3-0.6,0.7-0.6,1.2c0,0.4,0,0.9,0,1.3c0,0.2,0,0.4-0.2,0.5c-1.7,0-3.4,0-5.1,0c-0.5,0-1,0-1.5,0c-0.2-0.1-0.2-0.3-0.2-0.5
			c0-0.5,0-0.9,0-1.4c0-0.5-0.2-0.8-0.6-1.1c-0.8-0.6-2.2-0.7-3.1,0c-0.4,0.3-0.6,0.6-0.6,1.1c0,0.5,0,1,0,1.5c0,0.2,0,0.4-0.2,0.5
			C11.2,7,11,7,10.8,7C9.7,7,8.5,7,7.4,7C6,7,5,7.7,4.5,9c0,0.1,0,0.2-0.1,0.2c0-1.9,0-3.7,0-5.6c0-0.2,0.1-0.3,0.3-0.3
			c13.6,0,27.1,0,40.7,0c0.2,0,0.3,0.1,0.3,0.3c0,14.3,0,28.6,0,42.9c0,0.2,0,0.3-0.3,0.3c-0.7,0-1.4,0-2.1,0c0-0.1,0.1-0.2,0.2-0.2
			c0.3-0.1,0.6-0.2,0.8-0.4c0.7-0.4,1.1-1,1.1-1.9c0-1.7,0-3.3,0-5c0-0.3,0.1-0.6,0-0.9c0-0.2,0-0.4,0.2-0.5c0-6.9,0-13.9,0-20.8
			c-0.3-0.3-0.2-0.7-0.1-1.1c0-0.1,0.1-0.2,0-0.2c-0.1-0.4,0-0.7,0-1.1c0-1.5,0-3,0-4.6C45.4,9.8,45.4,9.5,45.5,9.3z"/>
		<path class="st3" d="M45.5,38.3c0,2,0,4.1,0,6.1c0,1-1,1.9-2.1,2.1c-11.9,0.1-23.9,0-35.8,0.1c-0.3,0-0.6-0.1-0.8,0
			c-0.4,0.1-0.7,0-1-0.2c-0.7-0.5-1.1-1.1-1.2-1.9c0-0.7,0-1.3,0-2c0.4,0.8,0.9,1.5,1.7,1.9c0.3,0.1,0.7,0.1,1,0.2
			c0,0-0.1,0.1,0,0.1c10.4-0.1,20.8,0,31.2,0c0.2,0,0.5,0,0.6-0.2c0.6-0.5,1.1-1,1.7-1.6c1.4-1.4,2.9-2.9,4.3-4.3
			C45.1,38.5,45.2,38.3,45.5,38.3z"/>
		<path class="st4" d="M45.5,15.9c0,0.4,0,0.7,0,1.1c-0.3,0-0.5,0-0.8,0C31.5,17,18.3,17,5,17c-0.2,0-0.4,0-0.6,0.1
			c0-0.4,0-0.8,0-1.2c0.2-0.1,0.3,0,0.5,0c0.1,0,0.2,0.2,0.3,0.2c0.2,0.1,0.4,0,0.6,0c12.8,0,25.6,0,38.4,0c0.2,0,0.4,0,0.6,0
			c0.1,0,0.2-0.2,0.3-0.2C45.2,15.9,45.4,15.9,45.5,15.9z"/>
		<path class="st5" d="M45.5,15.9c-0.1,0-0.3,0-0.4,0c0,0-0.1,0.1-0.2,0.1c-0.2,0-0.4,0-0.6,0c-12.9,0-25.7,0-38.6,0
			c-0.2,0-0.4,0-0.6,0C5,16,5,16,4.9,16c-0.2,0-0.4,0-0.5,0c0-2,0-3.9,0-5.9c0.1,0,0.1,0,0.2,0c0.1,0.2,0.1,0.4,0.1,0.6
			c0,1.7,0,3.5,0,5.2c13.4,0,26.9,0,40.3,0c0.2,0,0.3,0,0.5-0.1c0,0,0,0,0,0c0,0,0,0,0,0C45.5,15.8,45.5,15.9,45.5,15.9z"/>
		<path class="st6" d="M6.5,46.6c0.1-0.1,0.3-0.1,0.4-0.1c0.6,0.1,1.3,0.1,2,0.1c11.1,0,22.2,0,33.3,0c0.4,0,0.8-0.2,1.1,0
			c-0.1,0-0.1,0.1-0.2,0.1C31,46.7,18.8,46.7,6.5,46.6C6.5,46.7,6.5,46.7,6.5,46.6C6.5,46.7,6.5,46.6,6.5,46.6z"/>
		<path class="st2" d="M6.5,46.6C6.5,46.7,6.5,46.7,6.5,46.6c-0.6,0.1-1.3,0.1-1.9,0.1c-0.2,0-0.2,0-0.2-0.2c0-0.7,0-1.3,0-2
			C4.6,45,4.9,45.6,5.3,46C5.7,46.3,6.1,46.5,6.5,46.6z"/>
		<path class="st7" d="M45.5,38.3c-1.9,1.9-3.8,3.7-5.6,5.6c-0.2,0.2-0.5,0.4-0.7,0.6c-0.1,0.1-0.2,0.1-0.4,0c0-1.8,0-3.5,0-5.3
			c0-0.9,0.6-1.5,1.5-1.5c1.7,0,3.5,0,5.2,0C45.5,38,45.5,38.2,45.5,38.3z"/>
		<path class="st8" d="M14.4,40.1c-0.2,0-0.5,0-0.7,0c-0.1,0-0.1,0.1-0.2,0.1c-0.9,0.1-1.9,0-2.8,0c-0.2,0-0.4-0.2-0.4-0.4
			c0-0.1-0.1-0.2-0.1-0.3c0-1.1,0-2.3,0-3.4c0-0.4,0.3-0.6,0.7-0.6c1,0,2,0,2.9,0c0.5,0.1,0.7,0.3,0.7,0.8c0,1.1,0.2,2.3-0.1,3.4
			C14.3,39.9,14.4,40,14.4,40.1z"/>
		<path class="st8" d="M23,40c-0.4,0.2-0.9,0-1.4,0.1c-0.6,0.2-1.2,0-1.8,0.1c-0.3,0-0.5,0.1-0.8-0.1c-0.4-0.1-0.6-0.3-0.7-0.6
			c-0.1-0.1-0.1-0.2-0.1-0.4c0-0.8,0-1.5,0-2.3c0-0.1,0-0.3,0.1-0.4c0.1-0.8,0.3-1,1.1-1c0.9,0,1.8,0,2.8,0c0.4,0.1,0.5,0.4,0.5,0.8
			c0,1.1,0.1,2.3-0.1,3.4C22.5,40,22.9,39.8,23,40z"/>
		<path class="st8" d="M13.9,32.3c-1,0-2,0-3,0c-0.5,0-0.8-0.3-0.8-0.8c0-1,0-2,0-3.1c0-0.5,0.3-0.8,0.8-0.8c1,0,1.9,0,2.9,0
			c0.5,0.2,0.7,0.3,0.7,0.9c0,0.9,0,1.9,0,2.8C14.5,31.8,14.3,32.1,13.9,32.3z"/>
		<path class="st8" d="M13.9,24.4c-1,0-2,0-3,0c-0.5,0-0.7-0.3-0.7-0.7c0-1.1,0-2.1,0-3.2c0-0.5,0.3-0.7,0.8-0.7c1,0,2,0,3.1,0
			c0.4,0.2,0.5,0.5,0.5,0.9c0,0.9,0,1.9,0,2.8C14.5,23.9,14.3,24.3,13.9,24.4z"/>
		<path class="st8" d="M18.3,20.8C18.3,20.7,18.3,20.7,18.3,20.8c-0.1-0.2-0.1-0.3,0-0.3c0.2-0.5,0.5-0.7,1-0.6c0.9,0,1.9,0,2.8,0
			c0.4,0.2,0.5,0.5,0.5,0.9c0,0.9,0,1.9,0,2.8c0,0.4-0.1,0.7-0.5,0.9c-1,0-2,0-3,0c-0.4,0-0.6-0.3-0.8-0.6c-0.1-0.1-0.1-0.2-0.1-0.4
			c0-0.8,0-1.5,0-2.3C18.2,21,18.2,20.9,18.3,20.8z"/>
		<path class="st8" d="M34.8,28.3c0.2-0.5,0.5-0.6,1-0.6c0.9,0,1.8,0,2.8,0c0.5,0.1,0.6,0.5,0.6,0.9c0,1,0,2,0,2.9
			c0,0.4-0.2,0.7-0.6,0.8c-1,0-1.9,0-2.9,0c-0.1,0-0.2,0.1-0.3,0c-0.2-0.1-0.3-0.2-0.5-0.4c-0.2-0.1-0.2-0.3-0.2-0.4
			c0-0.9,0-1.8,0-2.7C34.7,28.6,34.7,28.4,34.8,28.3z"/>
		<path class="st8" d="M22.1,32.3c-1,0-2,0-3,0c-0.3,0-0.5-0.1-0.6-0.3c-0.3-0.2-0.3-0.6-0.3-0.9c0-0.7,0-1.5,0-2.2
			c0-0.1,0-0.3,0.1-0.4c0.1-0.8,0.3-1,1.1-1c0.9,0,1.8,0,2.7,0c0.4,0.1,0.5,0.4,0.5,0.8c0,1,0,2,0,3C22.7,31.8,22.5,32.1,22.1,32.3z
			"/>
		<path class="st8" d="M27.8,40.1c-0.2,0-0.3,0-0.5,0c-0.4-0.1-0.7-0.3-0.7-0.7c0-1.1,0-2.2,0-3.3c0-0.4,0.3-0.7,0.7-0.7
			c1,0,2,0,2.9,0c0.5,0.2,0.6,0.3,0.6,0.8c0,1,0,2,0,3c0,0.3-0.1,0.5-0.2,0.8c-0.2,0-0.5,0-0.7,0C29.3,40.3,28.5,40.3,27.8,40.1z"/>
		<path class="st8" d="M30.4,32.3c-1,0-2,0-3,0c-0.5,0-0.8-0.3-0.8-0.8c0-1,0-1.9,0-2.9c0-0.7,0.2-1,0.9-1c0.1,0,0.2,0,0.3,0
			c0.8-0.1,1.6,0,2.4,0c0.6,0.1,0.7,0.5,0.7,1c0,1,0,1.9,0,2.9C30.9,31.9,30.7,32.1,30.4,32.3z"/>
		<path class="st8" d="M30.3,24.4c-1,0-2,0-2.9,0c-0.4,0-0.7-0.2-0.7-0.6c0-1.2,0-2.3,0-3.5c0-0.1,0-0.1,0.1-0.2
			c0-0.2,0.1-0.3,0.3-0.3c0.6-0.1,1.3,0,1.9-0.1c0.5,0,1,0,1.5,0c0.4,0.1,0.5,0.4,0.5,0.8c0,1,0,2,0,3.1
			C30.9,24.1,30.8,24.2,30.3,24.4z"/>
		<path class="st1" d="M40,20.7c0,0.2-0.1,0.4-0.2,0.5c-0.7,0.9-1.5,1.7-2.2,2.6c-0.4,0.5-0.8,0.5-1.2,0.1c-0.4-0.4-0.9-0.9-1.3-1.3
			c-0.4-0.4-0.4-0.8-0.1-1.1c0.3-0.3,0.7-0.3,1.1,0.1c0.3,0.2,0.5,0.8,0.8,0.7c0.3,0,0.5-0.5,0.7-0.8c0.4-0.4,0.7-0.9,1.1-1.3
			c0.2-0.2,0.5-0.3,0.8-0.2C39.9,20.2,40,20.4,40,20.7z"/>
		<path class="st9" d="M38.8,44.6c0.1,0,0.2,0,0.4,0c-0.3,0.3-0.7,0.3-1.1,0.3c-6.3,0-12.5,0-18.8,0c-4,0-8.1,0-12.1,0
			c-0.2,0-0.3,0-0.5,0c0.1-0.2,0.4,0,0.5-0.2c10.3,0,20.7,0,31,0C38.4,44.7,38.6,44.7,38.8,44.6z"/>
		<path class="st10" d="M30.3,24.4c0.4-0.2,0.5-0.6,0.5-1c0-0.9,0-1.7,0-2.6c0-0.4-0.1-0.7-0.4-1c0.5,0,1.1-0.1,1.3,0.5
			c0.1,0.2,0.1,0.4,0.1,0.6c0,0.8,0,1.5,0,2.3c0,0.2,0,0.3-0.1,0.5C31.5,24.4,31.3,24.5,30.3,24.4z"/>
		<path class="st10" d="M30.4,32.3c0.3-0.3,0.4-0.6,0.4-1.1c-0.1-0.9,0-1.8,0-2.7c0-0.4-0.1-0.7-0.5-0.9c0,0,0-0.1,0.1,0
			c0.1,0,0.1,0,0.2,0c0.2,0,0.5-0.1,0.7,0c0.2,0.1,0.3,0.3,0.4,0.5c0.2,0.8,0.1,1.7,0.1,2.5c0,0.3,0.1,0.7-0.1,1
			C31.4,32.4,30.9,32.3,30.4,32.3z"/>
		<path class="st10" d="M30.7,40.1c0-0.1-0.3,0-0.1-0.2c0.2-0.2,0.2-0.5,0.2-0.8c0-0.9,0-1.8,0-2.7c0-0.4-0.1-0.7-0.5-0.9
			c0.2,0,0.4,0,0.7,0c0.4,0,0.6,0.2,0.8,0.6c0.1,0.3,0.1,0.6,0.1,1c0,0.7,0,1.4,0,2c0,0.2,0,0.3-0.1,0.5
			C31.5,39.9,31.2,40.2,30.7,40.1z"/>
		<path class="st11" d="M13.9,32.3c0.4-0.3,0.5-0.7,0.5-1.2c0-0.8,0-1.5,0-2.3c0-0.5-0.1-0.8-0.5-1.1c0.2,0,0.4,0,0.7,0
			c0.4,0,0.6,0.2,0.8,0.5c0.1,0.1,0.1,0.3,0.1,0.4c0,0.9,0,1.8,0,2.7c0,0.1,0,0.3-0.1,0.4C15,32.4,14.4,32.3,13.9,32.3z"/>
		<path class="st12" d="M38.6,32.3c0.3-0.2,0.5-0.5,0.4-0.9c0-0.8,0-1.7,0-2.5c0-0.5-0.1-0.9-0.4-1.2c0.2,0,0.3,0,0.5,0
			c0.6,0,0.8,0.2,0.9,0.9c0,0.9,0,1.9,0,2.8c0,0.8-0.2,1-1,1C38.8,32.3,38.7,32.3,38.6,32.3z"/>
		<path class="st11" d="M13.9,24.4c0.4-0.3,0.5-0.8,0.5-1.3c0-0.6,0-1.3,0-1.9c0-0.5,0-1-0.4-1.4c0.1,0,0.2,0,0.4,0
			c0.1,0,0.2-0.1,0.4,0c0.2,0.1,0.4,0.3,0.5,0.5c0.1,0.1,0.2,0.2,0.2,0.4c0,0.9,0,1.7,0,2.6c0,0.2,0,0.3-0.1,0.5
			C14.9,24.4,14.8,24.5,13.9,24.4z"/>
		<path class="st13" d="M22.1,24.4c0.3-0.3,0.4-0.6,0.4-1c0-0.8,0-1.5,0-2.3c0-0.5,0-0.9-0.4-1.3c0.2,0,0.4,0,0.5,0
			c0.4,0,0.7,0.3,0.7,0.7c0,1.1,0,2.2,0,3.3c0,0.4-0.3,0.6-0.7,0.7C22.5,24.4,22.3,24.4,22.1,24.4z"/>
		<path class="st13" d="M22.1,32.3c0.3-0.4,0.4-0.9,0.4-1.4c0-0.7,0-1.4,0-2.1c0-0.4,0-0.8-0.4-1.2c0.2,0,0.4,0,0.6,0
			c0.4,0,0.7,0.2,0.7,0.6c0,1.1,0,2.2,0,3.4c0,0.4-0.3,0.6-0.7,0.6C22.5,32.3,22.3,32.3,22.1,32.3z"/>
		<path class="st11" d="M14.4,40.1C14.3,40,14.1,40.1,14,40c0.4-0.4,0.3-0.9,0.3-1.4c0-0.7,0-1.5,0-2.2c0-0.4-0.1-0.7-0.5-0.9
			c0.2,0,0.4,0,0.6,0c0.5,0,0.7,0.2,0.9,0.6c0.1,1.1,0.1,2.2,0,3.3c0,0.1,0,0.3-0.1,0.4C14.9,40,14.7,40.1,14.4,40.1z"/>
		<path class="st13" d="M23,40c-0.2,0-0.5,0-0.8,0c0.5-0.4,0.3-0.9,0.4-1.4c0-0.7,0-1.4,0-2.1c0-0.4-0.1-0.8-0.4-1.1
			c0.2,0,0.4,0,0.6,0c0.4,0,0.7,0.3,0.7,0.7c0,1.1,0,2.2,0,3.3C23.4,39.7,23.3,40,23,40z"/>
		<path class="st14" d="M34.8,28.3c0,1,0,2,0,3c0,0.2,0,0.5,0.1,0.7c-0.1,0.2-0.2,0.1-0.3,0c0-0.9,0-1.8,0-2.7c0,0.7,0,1.4,0,2
			c0,0.2,0,0.3-0.1,0.5c-0.2,0-0.2-0.1-0.2-0.3c0-0.6,0-1.2,0-1.8c0-0.6,0-1.1,0-1.7c0.2,0.1,0.3,0.2,0.2,0.3c0,0.1,0,0.1,0.1,0.1
			C34.7,28.4,34.8,28.3,34.8,28.3z"/>
		<path class="st15" d="M15.2,23.8c0-1.2,0-2.3,0-3.5c0.1,0.2,0.6,0,0.5,0.4c0,0-0.1,0.1-0.1,0.1c0,0.9,0,1.8,0,2.6c0,0,0,0.1,0,0.1
			C15.5,23.8,15.3,23.7,15.2,23.8z"/>
		<path class="st16" d="M18.3,36.5c0,1,0,2,0,3c-0.2,0.1-0.3,0.2-0.4,0.4c0-0.1-0.1-0.3-0.1-0.4c0.1-0.9,0-1.9,0.1-2.8
			c0-0.1-0.1-0.3,0.2-0.3c0.1,0.8,0,1.5,0,2.3c0,0.2,0,0.4,0,0.5C18.2,38.3,18.1,37.4,18.3,36.5C18.3,36.5,18.3,36.5,18.3,36.5z"/>
		<path class="st17" d="M10.2,39.8c0.2,0.2,0.4,0.3,0.7,0.3c0.9,0,1.8,0,2.7,0c0,0,0,0.1,0,0.1c-1,0.1-2,0-2.7,0
			c0.7,0.1,1.7-0.1,2.6,0c-0.1,0-0.1,0.1-0.2,0.1c-1.1,0-2.2,0-3.2,0c0,0.2,0.3,0,0.3,0.2c-0.2,0-0.4,0.1-0.5-0.1
			c-0.1-0.2,0-0.2,0.2-0.2c0,0,0,0,0-0.1c0,0-0.1,0-0.1,0C9.9,40,10.2,39.9,10.2,39.8z"/>
		<path class="st18" d="M15.1,39.8c0.1-0.3,0.1-0.7,0.1-1c0-0.9,0-1.7,0-2.6c0.2,0.1,0.1,0.3,0.1,0.4c0,1,0.1,2,0,2.9
			C15.3,39.6,15.3,39.8,15.1,39.8z"/>
		<path class="st19" d="M15.2,31.6c0-1.2,0-2.3,0-3.5c0,0,0,0,0,0c0,0,0,0,0.1,0c0,0.2,0.1,0.4,0.1,0.6c0,0.9,0,1.7,0,2.6
			C15.4,31.4,15.4,31.5,15.2,31.6z"/>
		<path class="st20" d="M34.5,31.7c0-1,0-2.1,0-3.1c0.1,0,0.1,0,0.2,0c0,1.1,0.1,2.2-0.1,3.3c0,0,0,0.1,0,0.1
			C34.5,31.9,34.6,31.8,34.5,31.7z"/>
		<path class="st21" d="M18.1,23.8c-0.1-0.2-0.2-0.3-0.2-0.5c0-0.9,0.1-1.8,0-2.7c0.2,0,0.1,0.2,0.2,0.2c0.1,0.2,0.1,0.3,0.1,0.5
			c0,0.8,0,1.5,0,2.3C18.3,23.7,18.3,23.8,18.1,23.8z"/>
		<path class="st21" d="M18.1,31.5c-0.1,0.1-0.2,0-0.2-0.2c0-0.8,0-1.6,0-2.4c0-0.1,0-0.2,0.2-0.3c0.1,0.1,0.1,0.3,0.1,0.4
			c0,0.7,0,1.3,0,2C18.2,31.2,18.2,31.3,18.1,31.5z"/>
		<path class="st22" d="M31.7,39.5c0-1.2,0-2.3,0-3.5c0.2,0.1,0.1,0.3,0.2,0.4c-0.1,1-0.1,1.9,0,2.9C31.8,39.4,31.8,39.4,31.7,39.5z
			"/>
		<path class="st21" d="M18.3,28.6c0,0.9,0,1.8,0,2.7c0,0.3,0,0.5,0.2,0.7c-0.3-0.1-0.3-0.3-0.3-0.5C18.1,30.5,18.1,29.6,18.3,28.6
			C18.3,28.6,18.3,28.6,18.3,28.6z"/>
		<path class="st22" d="M31.7,31.7c0-1.2,0-2.4,0-3.6c0.2,0.1,0.1,0.3,0.1,0.4c0.1,0.8,0,1.5,0,2.3c0,0.2,0,0.4,0,0.6
			C31.8,31.6,31.8,31.7,31.7,31.7z"/>
		<path class="st23" d="M14.2,19.5c-1.1,0-2.2,0-3.3,0c0,0,0,0,0,0C12,19.4,13.1,19.4,14.2,19.5C14.2,19.5,14.2,19.5,14.2,19.5z"/>
		<path class="st22" d="M31.7,23.7c0-1.1,0-2.3,0-3.4c0.1,0.1,0.1,0.2,0.1,0.3C31.9,21.6,31.9,22.6,31.7,23.7
			C31.8,23.6,31.7,23.7,31.7,23.7z"/>
		<path class="st14" d="M18.1,23.8c0-0.1,0.1-0.1,0.1-0.2c-0.1-1-0.1-1.9,0-2.9c0,0,0.1,0,0.1,0c0,1,0,2,0,3
			C18.3,23.9,18.2,23.9,18.1,23.8z"/>
		<path class="st24" d="M13.6,40.3c-0.9,0-1.9,0-2.8,0c0,0,0-0.1,0-0.1C11.7,40.2,12.7,40.2,13.6,40.3c0.1-0.1,0.2-0.1,0.2,0
			C13.7,40.3,13.6,40.3,13.6,40.3z"/>
		<path class="st25" d="M21.6,40.2c0.1,0,0.2,0,0.2,0c0,0,0,0,0,0.1c-0.6,0-1.3,0-1.9,0c-0.2,0-0.5,0-0.7,0.1
			c-0.1,0.1-0.2,0-0.1-0.1C19.9,40.1,20.8,40.1,21.6,40.2z"/>
		<path class="st26" d="M31.8,23.6c0-1,0-2,0-3c0,0,0.1,0.1,0.1,0.1c0,0.9,0,1.8,0,2.7C31.9,23.5,31.8,23.6,31.8,23.6z"/>
		<path class="st26" d="M31.9,31.5c-0.2-0.2-0.1-0.4-0.1-0.6c0-0.8,0-1.5,0-2.3c0.2,0.2,0.1,0.4,0.1,0.6
			C31.9,30,31.9,30.7,31.9,31.5z"/>
		<path class="st27" d="M18.2,28.6c0,1,0,1.9,0,2.9c0,0-0.1,0-0.1,0C18.1,30.5,18.1,29.6,18.2,28.6C18.2,28.6,18.2,28.6,18.2,28.6z"
			/>
		<path class="st28" d="M15.5,28.6c0.2,0.5,0.1,1,0.1,1.5c0,0.5,0.1,0.9-0.1,1.4C15.5,30.5,15.5,29.6,15.5,28.6z"/>
		<path class="st29" d="M15.5,28.6c0,1,0,1.9,0,2.9c-0.2-0.5-0.1-1-0.1-1.5C15.5,29.5,15.4,29.1,15.5,28.6z"/>
		<path class="st29" d="M15.5,39.3c-0.2-0.5-0.1-1-0.1-1.5c0-0.5-0.1-0.9,0.1-1.4C15.6,37.4,15.6,38.4,15.5,39.3z"/>
		<path class="st28" d="M15.5,39.3c0-1,0-1.9,0-2.9c0.2,0.5,0.1,1,0.1,1.5C15.6,38.4,15.7,38.9,15.5,39.3z"/>
		<path class="st27" d="M18.2,36.5c0,0.9,0,1.8,0,2.7c0,0-0.1,0-0.1,0C18.1,38.3,18.1,37.4,18.2,36.5C18.2,36.5,18.2,36.5,18.2,36.5
			z"/>
		<path class="st26" d="M31.9,39.3c-0.1-0.2-0.1-0.4-0.1-0.5c0-0.8-0.1-1.5,0.1-2.3C31.9,37.4,31.9,38.4,31.9,39.3z"/>
		<path class="st28" d="M15.5,20.8C15.6,20.8,15.6,20.8,15.5,20.8c0.1,0.8,0.1,1.6,0.1,2.4c0,0.2,0,0.3-0.1,0.5c0,0,0,0,0,0
			C15.5,22.7,15.5,21.7,15.5,20.8z"/>
		<path class="st30" d="M22,24.7c-0.9,0-1.7,0-2.6,0c0,0,0,0,0,0C20.3,24.6,21.1,24.6,22,24.7C22,24.6,22,24.6,22,24.7z"/>
		<ellipse class="st30" cx="12.2" cy="24.6" rx="1.8" ry="0"/>
		<path class="st27" d="M18.2,20.8c0,1,0,1.9,0,2.9c-0.2-0.2-0.1-0.4-0.1-0.6C18.1,22.3,18.1,21.5,18.2,20.8
			C18.2,20.8,18.2,20.8,18.2,20.8z"/>
		<path class="st31" d="M21.6,40.2c-0.8,0-1.7,0-2.5,0c0,0-0.1-0.1-0.1-0.1C19.9,40.1,20.7,40.1,21.6,40.2
			C21.6,40.2,21.6,40.2,21.6,40.2z"/>
		<path class="st32" d="M30.4,27.6C30.3,27.6,30.3,27.6,30.4,27.6c-0.9,0-1.7,0-2.5,0C28.7,27.5,29.5,27.5,30.4,27.6z"/>
		<path class="st33" d="M27.8,40.1c0.7,0,1.5,0,2.2,0c0,0,0,0.1,0,0.1C29.3,40.3,28.6,40.3,27.8,40.1C27.8,40.2,27.8,40.2,27.8,40.1
			z"/>
		<path class="st30" d="M27.9,24.6c0.6,0,1.3,0,1.9,0c0,0,0,0,0,0C29.2,24.7,28.5,24.7,27.9,24.6C27.9,24.6,27.9,24.6,27.9,24.6z"/>
		<path class="st34" d="M27.9,40.2c0.7,0,1.4,0,2.1,0C29.3,40.4,28.6,40.4,27.9,40.2z"/>
		<path class="st32" d="M31.2,27.7c-0.2,0-0.5,0-0.7,0C30.8,27.5,31,27.5,31.2,27.7z"/>
		<path class="st35" d="M27,19.9c-0.1,0.1-0.2,0.2-0.3,0.3C26.6,19.9,26.7,19.8,27,19.9z"/>
		<path class="st36" d="M35.4,32.3c0.1,0,0.2,0,0.3,0C35.6,32.4,35.4,32.4,35.4,32.3C35.2,32.3,35.2,32.3,35.4,32.3
			C35.3,32.3,35.3,32.3,35.4,32.3z"/>
		<path class="st37" d="M14.7,19.8c-0.1,0-0.2,0-0.4,0C14.4,19.7,14.5,19.6,14.7,19.8z"/>
		<path class="st14" d="M18.3,20.4c0,0.1,0,0.2,0,0.3c-0.1-0.1-0.1-0.2-0.1-0.3C18.2,20.4,18.3,20.4,18.3,20.4z"/>
		<path class="st38" d="M34.4,22.4c0.1,0.2,0.1,0.3,0,0.4C34.4,22.7,34.5,22.6,34.4,22.4z"/>
		<path class="st39" d="M35.8,21.1c0.1,0,0.1,0,0.2,0c0,0,0.1,0.1,0.1,0.1c0,0.1-0.1,0-0.1,0C35.8,21.2,35.8,21.2,35.8,21.1z"/>
		<path class="st8" d="M11.5,7.1c0.1-0.5,0-0.9,0.1-1.4c0-1.5,0.7-2.3,2.2-2.3c0.6,0,1.1,0.1,1.6,0.4c0.5,0.3,0.8,0.8,0.8,1.4
			c0,0.6,0,1.2,0,1.8c-0.5,0-0.9,0-1.4,0c-0.1-0.1-0.2-0.3-0.2-0.5c0-0.3,0-0.5,0-0.8c0-0.3,0-0.6-0.3-0.7c-0.4-0.1-0.7-0.1-1.1,0.1
			c-0.1,0.1-0.2,0.2-0.2,0.4c0,0.3,0,0.6,0,1c0,0.2,0,0.4-0.1,0.6c0,0.9-0.1,1.8,0.1,2.7c0.3,0.1,0.6,0.1,0.9,0.2
			c0.5,0.1,0.8,0.5,0.7,0.9c-0.1,0.5-0.5,0.8-1,0.7c-0.4,0-0.7-0.1-1-0.4c-0.8-0.4-1.2-1-1.2-1.9C11.5,8.6,11.5,7.8,11.5,7.1z"/>
		<path class="st8" d="M33.8,7c0.1-0.4,0.1-0.9,0.1-1.4c0-1.5,0.7-2.3,2.2-2.3c0.6,0,1.2,0.1,1.7,0.5c0.4,0.3,0.7,0.7,0.7,1.2
			c0,0.6,0,1.2,0,1.9c-0.5,0-0.9,0-1.4,0C37,6.9,37,6.7,37,6.5c0-0.3,0-0.5,0-0.8c0-0.7-0.7-1.1-1.3-0.7c-0.2,0.1-0.2,0.3-0.2,0.4
			c0,0.3,0,0.7,0,1c0,0.2,0,0.4-0.1,0.5c0,0.9,0,1.7,0,2.6c0.2,0.2,0.5,0.2,0.8,0.3c0.2,0,0.4,0.1,0.6,0.2c0.4,0.4,0.4,1.1-0.2,1.3
			c-0.5,0.2-1.1,0.1-1.6-0.2c-0.8-0.4-1.2-1-1.2-1.9C33.9,8.6,33.8,7.8,33.8,7z"/>
		<path class="st8" d="M22.7,7.1c0-0.5,0-1.1,0-1.6c0-1,0.5-1.6,1.4-1.9c0.6-0.2,1.3-0.2,1.9,0c0.9,0.3,1.3,0.9,1.3,1.9
			c0,0.5,0,1.1,0,1.6c-0.5,0-0.9,0-1.4,0c-0.2-0.1-0.1-0.3-0.1-0.5c0-0.3,0-0.6,0-0.9C25.8,5.1,25.6,5,25,5c-0.6,0-0.8,0.2-0.8,0.7
			c0,0.3,0,0.6,0,0.8c0,0.2,0,0.4-0.1,0.6c0,0.9,0,1.8,0,2.7c0.3,0.1,0.7,0.2,1,0.2c0.5,0.1,0.8,0.5,0.7,0.9
			c-0.1,0.4-0.5,0.8-0.9,0.7c-0.4,0-0.8-0.1-1.1-0.4c-0.8-0.4-1.2-1-1.1-1.9c0.1-0.7,0.1-1.4,0-2.1C22.7,7.2,22.7,7.1,22.7,7.1z"/>
		<path class="st40" d="M24.1,7c-0.1-0.6,0-1.2,0-1.8c0-0.3,0.6-0.5,1.1-0.4c0.3,0.1,0.8,0,0.8,0.5c0,0.6,0,1.1,0,1.7
			C25.3,7,24.7,7,24.1,7z"/>
		<path class="st2" d="M35.3,7c0-0.6,0-1.2,0-1.8c0,0,0-0.1,0-0.1c0.1-0.3,0.6-0.5,1.1-0.4c0.3,0,0.7,0,0.7,0.5c0,0.6,0,1.1,0,1.7
			C36.5,7,35.9,7,35.3,7z"/>
		<path class="st2" d="M12.9,7.1c0-0.6,0-1.2,0-1.7c0,0,0-0.1,0-0.1c0-0.3,0.5-0.5,1.1-0.4c0.3,0,0.8,0,0.8,0.5c0,0.6,0,1.1,0,1.7
			C14.1,7,13.5,7,12.9,7.1z"/>
		<path class="st41" d="M35,11.2c0.3,0.1,0.7,0.2,1,0.2c0.5,0.1,0.8-0.2,0.9-0.6c0-0.5-0.2-0.7-0.7-0.8c-0.3,0-0.7,0-0.8-0.4
			c0.3,0,0.6-0.2,0.9-0.2c0.7,0,1.2,0.5,1.3,1.1c0.1,0.8-0.3,1.3-1,1.5C35.8,12.2,35.3,11.9,35,11.2z"/>
		<path class="st41" d="M23.8,11.2c0.3,0.1,0.7,0.2,1,0.2c0.4,0.1,0.9-0.2,0.9-0.6c0-0.4-0.3-0.7-0.7-0.8c-0.3,0-0.6,0-0.9-0.4
			c0.2-0.1,0.5-0.2,0.7-0.3c0.7-0.1,1.3,0.3,1.4,1c0.2,0.6-0.2,1.3-0.7,1.5c-0.6,0.3-1.3,0.1-1.7-0.5C23.8,11.4,23.8,11.3,23.8,11.2
			z"/>
		<path class="st41" d="M12.6,11.2c0.3,0.1,0.7,0.2,1,0.2c0.5,0.1,0.8-0.2,0.9-0.6c0.1-0.5-0.2-0.8-0.7-0.8c-0.3,0-0.6,0-0.8-0.3
			c0.9-0.6,1.9-0.2,2.2,0.8c0.1,0.5-0.2,1.2-0.7,1.4c-0.5,0.3-1.2,0.2-1.6-0.2C12.8,11.6,12.6,11.4,12.6,11.2z"/>
		<path class="st42" d="M45.3,15.8c-0.1-0.1-0.1-0.3-0.1-0.4c0-1.8,0-3.7,0-5.5c0-0.2,0-0.4,0.2-0.5c0.1,0.3,0,0.7,0,1
			c0,1.6,0,3.2,0,4.9C45.4,15.4,45.5,15.6,45.3,15.8z"/>
		<path class="st43" d="M45.3,15.8c0-2.1-0.1-4.3,0.1-6.4c0,0,0-0.1,0.1-0.1c0,0.3,0,0.5,0,0.8c-0.1,1.3,0,2.5,0,3.8
			C45.5,14.5,45.5,15.1,45.3,15.8C45.4,15.8,45.4,15.8,45.3,15.8C45.4,15.8,45.4,15.8,45.3,15.8z"/>
		<path class="st43" d="M4.7,15.9c-0.1-0.1-0.1-0.3-0.1-0.5c0-1.8,0-3.5,0-5.3c0,0,0.1,0,0.1,0c0.1,0.1,0,0.2,0,0.3
			c0,1.7,0,3.5,0,5.2C4.7,15.6,4.7,15.7,4.7,15.9C4.7,15.8,4.7,15.8,4.7,15.9z"/>
		<path class="st42" d="M4.7,15.8c0-1.9,0-3.8,0-5.7c0.1,0.1,0.1,0.2,0.1,0.4c0,1.7,0,3.3,0,5C4.8,15.5,4.8,15.7,4.7,15.8z"/>
		<path class="st44" d="M22.7,7.2c0.1,0.7,0.1,1.4,0,2.1C22.7,8.6,22.7,7.9,22.7,7.2z"/>
		<path class="st45" d="M45.4,15.8c0-1.7,0-3.5,0-5.2c0-0.2,0-0.4,0.1-0.5C45.5,12,45.5,13.9,45.4,15.8
			C45.5,15.8,45.5,15.8,45.4,15.8z"/>
		<path class="st46" d="M4.9,16C5,16,5,16,4.9,16c0.3,0.1,0.4,0,0.6,0c13,0,26,0,39,0c0.2,0,0.3,0,0.5,0c0,0,0.1,0,0.1,0
			c0,0.1,0,0.2-0.1,0.3c0,0-0.1,0-0.1,0c-13.3,0-26.5,0-39.8,0c0,0-0.1,0-0.1,0C4.9,16.1,4.9,16.1,4.9,16z"/>
		<path class="st46" d="M45,16.2c-0.1,0.1-0.3,0.1-0.5,0.1c-13,0-26,0-39,0c-0.2,0-0.3,0-0.5-0.1c0,0,0,0,0,0c0.2-0.1,0.3,0,0.5,0
			c13,0,26,0,39,0C44.7,16.2,44.8,16.1,45,16.2L45,16.2z"/>
		<path class="st47" d="M45,16c-0.1,0.1-0.3,0.1-0.5,0.1c-13,0-26,0-39,0c-0.2,0-0.3,0-0.5-0.1c0.1,0,0.3,0,0.4,0
			c13.1,0,26.1,0,39.2,0C44.7,15.9,44.8,16,45,16z"/>
		<path class="st29" d="M15.5,20.8c0,1,0,1.9,0,2.9c-0.2-0.5-0.1-1-0.1-1.5C15.5,21.7,15.4,21.2,15.5,20.8z"/>
		<path class="st47" d="M45,16.2c-13.3,0-26.6,0-40,0c0.1-0.1,0.3-0.1,0.5-0.1c13,0,26,0,39,0C44.7,16.1,44.8,16.1,45,16.2z"/>
	</g>
</g>
</svg>
