<svg id="Layer_1" data-name="Layer 1" xmlns="http://www.w3.org/2000/svg" viewBox="0 0 400 400"><defs><style>.cls-1{fill:#c9cbce;}</style></defs><title>Artboard 1 copy</title><path class="cls-1" d="M366.79,192.52a460.29,460.29,0,0,0-54.86-12.76c-17.41-2.95-33.68-6.27-48.82-17.12-12.29-8.8-27.43-16.26-42.18-18.5-51.37-7.8-102.65-8.44-150.87,15.91-9.83,5-19.57,8.25-30.9,5.95-4.48-.91-9.76,0-14.13,1.54-2.59.93-6.31,5.52-5.75,7.21,2.65,7.95-.2,14.32-3,21.44A37,37,0,0,0,14,214.55c.85,5.33,4,13,8.09,14.57,10.56,4,22.19,5.28,33.51,7.66,3.28-23.47,15.92-37,33.89-35.87,7.55.48,15.78,3.82,22,8.24,10.21,7.23,12.33,19,11.79,31.25H282c-.13-24.2,12.9-39.65,33.29-39.87s33.86,15.56,33.53,40.29c5.69,0,10.73.14,15.77,0,11.11-.36,21.35-7.11,21.76-19.7C386.82,205.1,383.18,197.4,366.79,192.52Z"/><path class="cls-1" d="M89.56,206.91c-14.42-.14-27.4,12.58-27.24,26.71.16,14.65,12.39,27,26.79,27.05s27-12.2,27.05-26.69A27.16,27.16,0,0,0,89.56,206.91Z"/><path class="cls-1" d="M315.3,206.88a26.35,26.35,0,0,0-26.8,26.61c0,15.1,11.51,27,26.27,27.18a26.55,26.55,0,0,0,26.76-26.58C341.65,218.9,330.24,207.06,315.3,206.88Z"/></svg>