<?xml version="1.0" encoding="utf-8"?>
<!-- Generator: Adobe Illustrator 24.0.1, SVG Export Plug-In . SVG Version: 6.00 Build 0)  -->
<svg version="1.1" id="Layer_1" xmlns="http://www.w3.org/2000/svg" xmlns:xlink="http://www.w3.org/1999/xlink" x="0px" y="0px"
	 viewBox="0 0 50 50" style="enable-background:new 0 0 50 50;" xml:space="preserve">
<style type="text/css">
	.st0{fill:#FEFEFE;}
	.st1{fill:#FCFAF9;}
	.st2{fill:#F8FEFD;}
	.st3{fill:#F3F6F7;}
	.st4{fill:#F3F7F4;}
	.st5{fill:#EC232B;}
	.st6{fill:#FDFDFC;}
	.st7{fill:#D91D27;}
	.st8{fill:#D81E27;}
	.st9{fill:#F8C55D;}
	.st10{fill:#F6C45A;}
	.st11{fill:#EE212D;}
	.st12{fill:#F3F5F5;}
	.st13{fill:#D71F28;}
	.st14{fill:#D61E26;}
	.st15{fill:#EF212B;}
	.st16{fill:#F8F9F8;}
	.st17{fill:#F6C35B;}
	.st18{fill:#DBE5E2;}
	.st19{fill:#F4C45B;}
	.st20{fill:#F4F6F6;}
	.st21{fill:#B41222;}
	.st22{fill:#BB1A1E;}
	.st23{fill:#BA1116;}
	.st24{fill:#E40119;}
	.st25{fill:#F7C35F;}
	.st26{fill:#D42531;}
	.st27{fill:#D72029;}
	.st28{fill:#BE181F;}
	.st29{fill:#55827E;}
	.st30{fill:#E7E9E4;}
	.st31{fill:#AE2124;}
	.st32{fill:#E8CD89;}
	.st33{fill:#EA1B33;}
	.st34{fill:#EF0716;}
	.st35{fill:#F6E0E1;}
	.st36{fill:#EA2731;}
	.st37{fill:#CC0E21;}
	.st38{fill:#DA131A;}
	.st39{fill:#F2111D;}
	.st40{fill:#9C3533;}
	.st41{fill:#D82D2C;}
	.st42{fill:#BE2B29;}
	.st43{fill:#E41B1C;}
	.st44{fill:#9B1E27;}
	.st45{fill:#E71B2F;}
	.st46{fill:#DD1826;}
	.st47{fill:#94727C;}
	.st48{fill:#C43E3F;}
	.st49{fill:#DB1325;}
	.st50{fill:#982D32;}
	.st51{fill:#954847;}
	.st52{fill:#BF1C26;}
	.st53{fill:#8F3139;}
	.st54{fill:#C2050F;}
	.st55{fill:#D6333B;}
	.st56{fill:#A8C09C;}
	.st57{fill:#8F7979;}
	.st58{fill:#F6DEDD;}
	.st59{fill:#CBCBCB;}
	.st60{fill:#FBEFEF;}
	.st61{fill:#E2C163;}
	.st62{fill:#701014;}
	.st63{fill:#720F14;}
	.st64{fill:#F7BD53;}
	.st65{fill:#FAE3E5;}
	.st66{fill:#FBF3ED;}
	.st67{fill:#FBFCFC;}
	.st68{fill:#EFBC71;}
	.st69{fill:#F4C15F;}
	.st70{fill:#F9ECE0;}
	.st71{fill:#EE222D;}
	.st72{fill:#FEFAFA;}
	.st73{fill:#F4C054;}
	.st74{fill:#6E1012;}
	.st75{fill:#E4BE6C;}
	.st76{fill:#EC262E;}
	.st77{fill:#F4AB5B;}
	.st78{fill:#FBBA9E;}
	.st79{fill:#EC272F;}
	.st80{fill:#ED2A31;}
	.st81{fill:#F1BFC3;}
	.st82{fill:#FDF0D5;}
	.st83{fill:#741011;}
	.st84{fill:#F9FEF8;}
	.st85{fill:#7F2119;}
	.st86{fill:#FBFEF4;}
	.st87{fill:#5E0403;}
	.st88{fill:#5F0501;}
	.st89{fill:#ED2526;}
	.st90{fill:#D80A14;}
	.st91{fill:#F7C9C8;}
	.st92{fill:#F7252C;}
	.st93{fill:#C7131C;}
	.st94{fill:#C21210;}
	.st95{fill:#DB111C;}
	.st96{fill:#D73224;}
	.st97{fill:#F12330;}
	.st98{fill:#D61615;}
	.st99{fill:#FC2729;}
	.st100{fill:#FA272F;}
	.st101{fill:#F3272E;}
	.st102{fill:#EFA25F;}
	.st103{fill:#B61D0C;}
	.st104{fill:#B31D1F;}
	.st105{fill:#DA2127;}
	.st106{fill:#F3252D;}
	.st107{fill:#750F10;}
	.st108{fill:#F52735;}
	.st109{fill:#E21818;}
	.st110{fill:#F2292C;}
	.st111{fill:#FAA48C;}
	.st112{fill:#BE2D33;}
	.st113{fill:#F6C256;}
	.st114{fill:#F22725;}
	.st115{fill:#FBD1BB;}
	.st116{fill:#FA2732;}
	.st117{fill:#ED2D36;}
	.st118{fill:#BA1C24;}
	.st119{fill:#F8243B;}
	.st120{fill:#BB3D11;}
	.st121{fill:#E4BE71;}
	.st122{fill:#CB181E;}
	.st123{fill:#F5282E;}
	.st124{fill:#A81B1D;}
	.st125{fill:#F62528;}
	.st126{fill:#DB2B24;}
	.st127{fill:#D90F15;}
	.st128{fill:#DB2123;}
	.st129{fill:#BA232C;}
	.st130{fill:#F52422;}
	.st131{fill:#BE220B;}
	.st132{fill:#A3232B;}
	.st133{fill:#D40C11;}
	.st134{fill:#F12B35;}
	.st135{fill:#D7060D;}
	.st136{fill:#B42B30;}
	.st137{fill:#CF191F;}
	.st138{fill:#C70C18;}
	.st139{fill:#FA2930;}
	.st140{fill:#CE181E;}
	.st141{fill:#DC1C20;}
	.st142{fill:#F88A77;}
	.st143{fill:#C32924;}
	.st144{fill:#E21721;}
	.st145{fill:#BB1919;}
	.st146{fill:#C91810;}
	.st147{fill:#B52428;}
	.st148{fill:#DD1014;}
	.st149{fill:#DD0F14;}
	.st150{fill:#B82D2C;}
	.st151{fill:#AC3833;}
	.st152{fill:#DE1014;}
	.st153{fill:#E03F46;}
	.st154{fill:#C9181F;}
	.st155{fill:#BD1D27;}
	.st156{fill:#E02629;}
	.st157{fill:#BE242F;}
	.st158{fill:#DECBCB;}
	.st159{fill:#F8C45C;}
	.st160{fill:#D9D8D7;}
	.st161{fill:#F7C35C;}
	.st162{fill:#CA1E23;}
	.st163{fill:#BB1320;}
	.st164{fill:#E42533;}
	.st165{fill:#D5A860;}
	.st166{fill:#FDB96F;}
	.st167{fill:#BA0910;}
	.st168{fill:#DA1414;}
	.st169{fill:#BE0A12;}
	.st170{fill:#7C1F1C;}
	.st171{fill:#DD242F;}
	.st172{fill:#DF1E29;}
	.st173{fill:#D71F27;}
	.st174{fill:#D71D23;}
	.st175{fill:#6B5D5D;}
	.st176{fill:#D11821;}
	.st177{fill:#E01D2B;}
	.st178{fill:#E2232F;}
	.st179{fill:#AA111C;}
	.st180{fill:#F4B14D;}
	.st181{fill:#F4B34C;}
	.st182{fill:#F6C458;}
	.st183{fill:#E01E2A;}
	.st184{fill:#D01820;}
	.st185{fill:#C91C23;}
	.st186{fill:#F9C153;}
	.st187{fill:#FDB472;}
	.st188{fill:#FEE696;}
	.st189{fill:#F2C04D;}
	.st190{fill:#FAE4DC;}
	.st191{fill:#F7C25B;}
	.st192{fill:#FFFFFF;}
	.st193{fill:#F7C35B;}
	.st194{fill:#D6D6D9;}
	.st195{fill:#D7D7D9;}
	.st196{fill:#F8C35C;}
	.st197{fill:#D9D9DB;}
	.st198{fill:#F5C55E;}
	.st199{fill:#F5C559;}
	.st200{fill:#E0DAD1;}
	.st201{fill:#DDDAD6;}
	.st202{fill:#FAFCF9;}
	.st203{fill:#FCFCFA;}
	.st204{fill:#FDFDF9;}
	.st205{fill:#F6C567;}
	.st206{fill:#DCDCDC;}
	.st207{fill:#EACF8D;}
	.st208{fill:#F0D691;}
	.st209{fill:#DFD3C2;}
	.st210{fill:#F4F6F3;}
	.st211{fill:#FDC85F;}
	.st212{fill:#A62B30;}
	.st213{fill:#B32D23;}
	.st214{fill:#D90C17;}
	.st215{fill:#FEFCFE;}
	.st216{fill:#FEFEF6;}
	.st217{fill:#FAFEF9;}
	.st218{fill:#FBC45C;}
	.st219{fill:#FDFCFB;}
	.st220{fill:#F8FDF7;}
	.st221{fill:#CC2F1A;}
	.st222{fill:#F5B14E;}
	.st223{fill:#AE0E13;}
	.st224{fill:#AA1714;}
	.st225{fill:#9D1405;}
	.st226{fill:#C17E36;}
	.st227{fill:#AE320C;}
	.st228{fill:#AB190D;}
	.st229{fill:#AE1711;}
	.st230{fill:#F4C654;}
	.st231{fill:#F2C850;}
	.st232{fill:#F8C54D;}
	.st233{fill:#DCD9E6;}
	.st234{fill:#C87A36;}
	.st235{fill:#F8CE62;}
	.st236{fill:#F8CE63;}
	.st237{fill:#F5BE58;}
	.st238{fill:#F5BF54;}
	.st239{fill:#F9CD61;}
	.st240{fill:#F2B44E;}
	.st241{fill:#F7BE54;}
	.st242{fill:#F7C55A;}
	.st243{fill:#D9D8DB;}
	.st244{fill:#F4CA71;}
	.st245{fill:#F3BE52;}
	.st246{fill:#F1BC4D;}
	.st247{fill:#F4BF58;}
	.st248{fill:#F7BE57;}
	.st249{fill:#F9C85E;}
	.st250{fill:#F4DE78;}
	.st251{fill:#F4C157;}
	.st252{fill:#F5BF58;}
	.st253{fill:#F6D66E;}
	.st254{fill:#FEC253;}
	.st255{fill:#F3DF77;}
</style>
<g id="erD0Ei.tif">
	<g>
		<path class="st0" d="M39.6,2c2.8,0,5.6,0,8.4,0c0.3,0,0.4,0.1,0.4,0.4c0,15.1,0,30.2,0,45.4c0,0.4-0.1,0.3-0.4,0.3
			c-15.4,0-30.8,0-46.2,0c0-15.2,0-30.4,0-45.6C1.7,2.1,1.8,2,2.1,2c2.8,0,5.5,0,8.3,0c0.3,0.4,0.1,0.8,0.1,1.2c0,0.3,0,0.7,0,1
			c0,0.4-0.2,0.6-0.5,0.8C9.8,5.2,9.4,5.3,9.1,5.3C8.9,5.4,8.7,5.4,8.5,5.5C8.2,5.7,7.9,5.6,7.7,5.8C7.1,5.9,6.5,6,6.1,6.4
			C6,6.4,6,6.4,6,6.5c-0.1,0.9,0,1.8,0,2.7c0,0.2,0,0.5-0.1,0.7C5.6,10,5.4,9.9,5.2,10c-0.8,0-1.7,0-2.5,0c-0.2,0-0.4-0.1-0.5,0.1
			c0,0.2,0.1,0.4,0.2,0.6c0.2,0.7,0.6,1.3,0.8,2c0,0.2,0.1,0.3,0.2,0.5c-0.1,0.6-0.4,1.2-0.6,1.8c-0.1,0.1-0.2,0.3-0.2,0.4
			c-0.2,0.3-0.3,0.7-0.4,1c0,0.1-0.1,0.2,0.1,0.3c1.5,0.1,2.9,0,4.4,0c1.1,0,2.2,0,3.2,0c0.6,0,0.7,0.1,0.7,0.7c0,0.8,0,1.6,0,2.4
			c0,6.9,0,13.8,0,20.7c0,0.2-0.1,0.5,0.1,0.6c0.2,0.1,0.5,0.1,0.7,0.1c6.3,0,12.6,0,19,0c0.1,0,0.1,0,0.2,0c0.2,0,0.4,0.1,0.5,0.3
			c0,0.1,0.1,0.3,0.1,0.4c0,0.2,0,0.3-0.1,0.5c0,0.1-0.1,0.3-0.1,0.4c-0.1,0.1-0.1,0.2-0.2,0.4c-0.3,0.7-0.4,1.4-0.8,2
			c-0.1,0.1-0.1,0.3-0.1,0.4c0,0.1-0.1,0.2-0.1,0.3c0,0.1,0,0.1,0,0.2c0,0,0,0-0.1,0.1c0,0,0,0,0.1,0c0.1,0,0.2-0.1,0.3-0.2
			c0.6-0.3,1.1-0.6,1.7-1c0.2,0,0.3-0.2,0.4-0.3c0.2-0.1,0.5-0.3,0.8-0.3c0.1,0,0.2,0.1,0.3,0.1c0.6,0.6,0.8,1.4,1.2,2.1
			c0.1,0.2,0.2,0.5,0.5,0.7c0.4-1.3,0.7-2.5,1.2-3.7c0-0.1,0.1-0.2,0.1-0.3c0.2-0.4,0.1-0.9,0.5-1.2c0.1,0,0.1,0,0.2,0
			c0.3,0.3,0.3,0.7,0.4,1c0,0.2,0,0.3,0.1,0.5c0.2,0.7,0.5,1.4,0.6,2.1c0,0.2,0,0.3,0.1,0.5c0.1,0.2,0.1,0.4,0.2,0.6
			c0,0.1,0.1,0.2,0.1,0.3c0,0.1,0,0.2,0.1,0.3c0.3-0.1,0.3-0.4,0.4-0.7c0.2-0.2,0.2-0.5,0.4-0.8c0.1-0.1,0.1-0.3,0.2-0.4
			c0.2-0.3,0.3-0.6,0.4-0.8c0.2-0.4,0.4-0.5,0.8-0.2c0.4,0.2,0.8,0.5,1.2,0.7c0.1,0,0.2,0.1,0.2,0.1c0.3,0.2,0.6,0.4,0.9,0.5
			c0.1,0,0.1,0.1,0.1,0.1c0.1,0.1,0.2,0.1,0.4,0.2c0.2,0,0-0.1,0-0.1c-0.1-0.1-0.1-0.3-0.2-0.4c0,0,0-0.1,0-0.1c0-0.1,0-0.2-0.1-0.2
			c-0.1-0.1-0.2-0.3-0.2-0.4c-0.1-0.3-0.2-0.5-0.3-0.8c0-0.1-0.1-0.2-0.1-0.3c-0.4-0.9-0.7-1.8-1-2.7c-0.2-0.4-0.3-0.8-0.5-1.2
			c-0.1-0.2-0.1-0.4-0.1-0.6c0-0.3,0.1-0.6,0.4-0.6c0.6-0.1,0.8-0.5,0.8-1c0.1-0.2,0.2-0.3,0.4-0.4c0.4-0.2,0.6-0.5,0.4-0.9
			c0-0.1,0-0.3,0-0.4c0-0.1,0.1-0.2,0.1-0.2c0.4-0.3,0.5-0.6,0.3-1.1c-0.1-0.3,0-0.6,0.2-0.8c0.2-0.2,0.2-0.5,0-0.7
			c-0.3-0.3-0.3-0.7-0.2-1c0.1-0.4,0-0.6-0.2-0.9c-0.3-0.2-0.4-0.5-0.3-0.9c0.1-0.2,0-0.4-0.3-0.6c-0.1-0.1-0.3-0.2-0.4-0.3
			c-0.1-0.1-0.2-0.2-0.2-0.4c0-0.5-0.3-0.8-0.8-0.9c-0.2-0.1-0.4-0.2-0.5-0.4c-0.2-0.4-0.4-0.6-0.9-0.5c-0.1,0-0.2,0-0.2-0.1
			c-0.1-0.1-0.2-0.2-0.3-0.3c-0.1-0.1-0.1-0.2-0.2-0.3c-0.1-0.2-0.1-0.3-0.1-0.5c0-3,0-6,0-9c0-0.4,0.3-0.5,0.7-0.5c1.3,0,2.7,0,4,0
			c1.1,0,2.2,0,3.4,0c0.2,0,0.4,0.1,0.5-0.2c-0.3-0.5-0.4-1.1-0.8-1.6c0-0.2-0.1-0.4-0.2-0.5c-0.1-0.3-0.2-0.7-0.4-1
			c0-0.1,0-0.1,0-0.2c0.1-0.3,0.2-0.5,0.3-0.7c0.1-0.1,0.1-0.3,0.1-0.4c0.3-0.6,0.6-1.3,0.9-1.9c0-0.1,0.1-0.2-0.1-0.3
			c-0.9,0-1.9,0-2.8,0c-0.7,0-0.8-0.1-0.8-0.7c0-0.9,0-1.8,0-2.6c0,0,0-0.1,0-0.1c0-0.1-0.1-0.1-0.2-0.2c-0.1,0-0.1,0-0.2-0.1
			c-0.5-0.2-1-0.3-1.5-0.5c-0.1,0-0.2-0.1-0.3-0.1c-0.4-0.2-0.9-0.1-1.3-0.4c-0.1-0.1-0.2-0.1-0.3-0.1C40.3,5,40.1,5,40,5
			c0,0-0.1-0.1-0.1-0.1c0-0.1-0.1-0.1-0.2-0.2c-0.1-0.1-0.3-0.2-0.3-0.4c0-0.7,0-1.4,0-2C39.5,2.1,39.5,2.1,39.6,2z"/>
		<path class="st1" d="M10.5,2C20,2,29.5,2,39,2c0,0.1,0,0.1,0,0.2c-0.3,0.2-0.6,0.2-0.9,0.2c-4.3,0-8.6,0-12.9,0c-4.3,0-8.6,0-13,0
			c-0.6,0-1.2-0.1-1.7,0.4c-0.2,0-0.2-0.1-0.2-0.2C10.4,2.4,10.5,2.2,10.5,2z"/>
		<path class="st2" d="M39,2.1C39,2,39,2,39,2.1C39.2,2,39.3,2,39.5,2c0.1,0.8,0.1,1.7,0,2.5C39,4.5,39,4.5,39,4.1
			C39.1,3.4,39.1,2.7,39,2.1z"/>
		<path class="st3" d="M39.4,4.4c0.2-0.4,0.1-0.8,0.1-1.1c0-0.4,0-0.9,0-1.3c0,0,0.1,0,0.1,0c0,0.7,0,1.3,0,2c0,0.4,0.1,0.6,0.4,0.8
			c-0.2,0.2-0.4,0.1-0.6,0c0,0-0.1-0.1-0.1-0.1C39.3,4.5,39.3,4.5,39.4,4.4z"/>
		<path class="st4" d="M10.5,2c0.1,0.3,0,0.5,0,0.8c0.1,0.1,0.1,0.3,0,0.5c0,0.1-0.1,0.1-0.1,0C10.4,2.8,10.4,2.4,10.5,2
			C10.4,2,10.5,2,10.5,2z"/>
		<path class="st5" d="M2.1,10.1C1.9,9.8,2.1,9.8,2.3,9.8c1.2,0,2.3,0,3.5,0c0,0,0.1-0.1,0.1-0.1c0,0,0-0.1,0.1-0.1
			c0-0.8,0-1.6,0-2.4c0-0.5,0.1-0.7,0.7-0.7c0.3,0,0.5,0,0.7-0.2C7.6,6,7.7,6.2,7.9,6.3C8,6.4,8.1,6.5,8.2,6.4
			c0.1-0.1,0.1-0.2,0.1-0.3c0-0.2-0.2-0.1-0.3-0.1c-0.2,0-0.4,0-0.4-0.2c0.2-0.3,0.6-0.1,0.8-0.3c0.2,0,0.5,0,0.7-0.2
			c0.3,0,0.6-0.1,0.8-0.3c0.1,0,0.2,0,0.2,0c0.1,0,0.2,0,0.4,0C10.7,5,10.9,4.9,11,4.7c0.1-0.1,0.3-0.2,0.5-0.2
			c0.1,0,0.3-0.1,0.4-0.1c0,0,0.1,0,0.1,0.1c0,0.1,0,0.1,0,0.2c0.1-0.1,0.1-0.1,0.1-0.2c0,0,0-0.1,0.1-0.1c0.2-0.1,0.4,0,0.6-0.1
			c0.1,0,0.3,0.1,0.4-0.1c0.1-0.1,0.1-0.1,0.2-0.1c0.2,0,0.3,0,0.5,0c0.1,0,0.2,0,0.2-0.1c0.1-0.1,0.2-0.1,0.4-0.1
			c0,0,0.1,0,0.1,0.1c0.2,0.1,0.4,0.1,0.6,0c0,0,0-0.1,0-0.1c0,0,0-0.1,0.1-0.1c0.1,0,0.1,0,0.2,0c0,0,0.1,0,0.1,0
			c0,0,0.1,0,0.1,0.1c0.1,0,0.2,0.1,0.3,0.1c0.1,0,0.1,0,0,0c0,0,0,0,0,0c0,0,0-0.1,0-0.1c0.1-0.1,0.1-0.1,0.2-0.1
			c0.1,0,0.2,0,0.3,0.1c0.2,0.1,0-0.1,0.1-0.1c0.1-0.1,0.2-0.1,0.3-0.1c0.2,0,0.3,0,0.5,0c0.1,0,0.1,0,0.2,0.1
			c-0.1,0.4-0.4,0.1-0.5,0.2c0.3,0.1,0.5,0,0.8-0.2c0.1,0,0.1,0,0.2,0c0-0.1-0.1-0.1-0.1-0.1c0,0,0-0.1,0.1-0.1
			c0.1,0,0.1-0.1,0.2-0.1c0.1,0,0.2,0,0.3,0.1c0,0,0.1,0.1,0.1,0.1c0.6,0,1.2-0.1,1.7-0.1c0.3,0,0.6,0.1,1-0.1c-0.3,0.1-0.7,0-1,0.1
			c-0.1,0.1-0.2,0-0.4,0c0,0-0.1-0.1,0-0.1c0.1-0.1,0.2-0.1,0.4-0.2c0.2,0,0.4,0,0.6,0c0.2,0,0.5,0,0.7,0c0.5,0,0.9-0.1,1.4,0.1
			c0,0,0.1,0,0,0c0,0-0.1-0.1-0.1-0.1c0-0.1,0-0.1,0.1-0.1c0.3-0.1,0.6-0.1,0.9,0c0.1,0,0.3,0.1,0.4,0.1c0.7,0.1,1.5,0.1,2.2,0
			c0,0,0.1-0.1,0.1-0.1c0.3-0.1,0.6-0.1,0.9,0c0,0,0.1,0.1,0.1,0.1c0.4,0.1,0.8,0,1.2,0c0.2,0,0.5,0,0.7,0c0.2,0,0.3,0,0.5,0
			c0.2,0,0.3,0,0.5,0c0.1,0,0.1,0,0.2,0.1c0,0,0.1,0.1,0.1,0.1c0,0,0,0.1-0.1,0c0,0,0,0,0,0c0.2-0.1,0.3-0.1,0.5,0c0,0,0.1,0,0.1,0
			c0.2,0.1,0.5,0,0.7,0c0.2,0,0.4,0.1,0.7,0.1c0.2,0,0.5,0,0.7,0c0.3,0,0.6,0.1,0.9,0.2c0.1,0.2,0.3,0.1,0.4,0.1
			c0.1,0,0.2,0,0.3,0.1c0.1,0-0.1,0.1,0,0.1c0.1,0,0.1,0,0.2,0c0,0,0.1,0.1,0.1,0.1c0.1,0.2,0.3,0.1,0.5,0.1c0.2,0,0.4,0,0.5-0.1
			c0.3,0.1,0.6,0,0.8,0.2c0,0,0,0.1-0.1,0.1c0,0,0.1,0,0.1,0c0.1,0,0.2,0,0.3,0c0.1,0,0.3-0.1,0.4,0c0.1,0,0.2,0.1,0.3,0.2
			c0.1,0.1,0.3,0.1,0.4,0c0,0,0.1,0,0.1,0c0,0,0.1,0,0.1,0c0.2,0.2,0.4,0.1,0.5,0.2c0.1,0,0.2,0,0.2,0.1c0.1,0.2,0.3,0,0.4,0.1
			c0,0,0.1,0,0.1,0.1l0,0c0,0.1,0.1,0.3,0.3,0.3c0.4,0.1,0.7,0.3,0.6,0.8c0,0.3,0.2,0.4,0.5,0.4c0.4,0.1,0.9,0,1.3,0
			c0.1,0,0.3,0,0.4,0c0.6,0,0.8,0.1,0.8,0.8c0,0.2,0,0.5,0,0.7c0-0.4,0-0.8,0-1.2c0-0.2-0.1-0.4,0.1-0.6c0-0.1,0-0.1,0.1-0.1
			c0.2,0.4,0,0.9,0.1,1.3c0,0.1,0,0.1,0,0.2c0,0.7,0,1.3,0,2c0-0.7,0-1.4,0-2.1c0-0.4-0.1-0.8,0.1-1.2c0.2,0.2,0.1,0.5,0.1,0.7
			c0,0.8,0,1.7,0,2.5c0,0.3,0.1,0.4,0.4,0.4c1,0,2,0,2.9,0c0.2,0,0.3-0.1,0.5,0.1c-0.2,0.2-0.4,0.2-0.6,0.2c-0.8,0-1.6,0-2.4,0
			c-0.2,0-0.4,0-0.5,0.1c-0.2,0.5-0.1,0.9-0.1,1.4c0,0.6,0,1.3,0,1.9c0,0.3,0,0.6-0.2,0.8c-0.1,0.1-0.1,0.1-0.2,0.1
			c-0.1,0-0.2,0-0.2,0c-0.2-0.1-0.3-0.2-0.5-0.2c0,0-0.1,0-0.1,0c-0.2-0.1-0.4-0.1-0.6-0.2c-0.9-0.3-1.7-0.5-2.6-0.7
			c-0.1,0-0.1,0-0.2-0.1c-0.1,0-0.1-0.1-0.2-0.1c-0.1,0-0.2,0-0.2,0c0,0-0.1,0-0.1,0C39.1,13,39,13,39,13c0,0-0.1,0-0.1,0
			c-0.1,0-0.2,0-0.3,0c-0.1,0-0.1,0-0.2,0c-0.1,0-0.1-0.1-0.1-0.1c0-0.2,0-0.4-0.1-0.5c0-0.4-0.2-0.4-0.6-0.4
			c-0.7,0-1.4,0.1-2.2,0.2c0,0-0.1,0.1-0.1,0.1c0,0.1-0.1,0.1-0.2,0.1c-0.3,0-0.6,0.1-0.8-0.2c0-0.1,0.1-0.1,0.1-0.1
			c-0.1,0-0.3,0.1-0.5,0.1c-0.7,0-1.4-0.2-2.2-0.3c-0.1,0-0.2,0-0.3-0.1c0-0.1,0-0.1,0.1-0.1c0-0.1-0.1,0-0.1,0
			c-0.2,0.1-0.4,0.1-0.7,0.1c-0.3,0-0.6,0-0.8-0.1c-0.2,0-0.4,0-0.5-0.2c0-0.1,0-0.1,0.1-0.1c-0.1-0.1-0.1,0-0.2,0
			c-0.3,0.1-0.5,0-0.8,0c-0.1,0-0.1-0.1-0.2-0.1c-0.5-0.1-1.1-0.1-1.6,0c-0.1,0-0.1,0.1-0.2,0.1c-0.2,0.1-0.4,0-0.6,0
			c-0.9,0-1.7,0-2.6,0c-0.1,0-0.1,0-0.2-0.1c-0.6-0.2-1.1-0.1-1.7-0.1c-0.1,0-0.1,0.1-0.2,0.1c-0.1,0-0.1,0-0.2,0
			c-0.2-0.1-0.4,0-0.6-0.1c0,0.1,0.1,0.1,0.2,0.1c0,0,0,0.1,0,0.1c-0.1,0-0.1,0.1-0.2,0.1c-0.1,0-0.3,0-0.4,0
			c-0.1,0-0.1-0.1-0.2-0.1c-0.2-0.1-0.4-0.1-0.5,0c-0.1,0-0.2,0.1-0.3,0.1c0,0-0.1,0-0.1,0c-0.2,0-0.3-0.1-0.5,0c0,0,0,0.1-0.1,0.1
			c-0.1,0.1-0.1,0.1-0.2,0.1c0,0-0.1,0-0.1,0c0,0-0.1,0-0.1-0.1c-0.4-0.1-0.7,0-1,0.1c0,0-0.1,0-0.1,0.1c0,0-0.1,0-0.1,0
			c-0.3,0-0.6-0.1-0.8,0.1c0,0,0,0.1,0,0.1c-0.1,0.1-0.2,0.1-0.3,0.1c-0.2,0-0.4,0.1-0.5,0.1c-0.1,0-0.2-0.1-0.3-0.1
			c-0.1,0-0.1,0,0,0c0.1,0,0,0.1,0,0c0,0,0,0.1,0,0.1c0,0-0.1,0-0.1,0.1c-0.2,0-0.3,0-0.5,0c-0.2,0-0.4-0.1-0.5,0.1
			c-0.1,0.1-0.3,0.1-0.4,0.1c-0.1,0-0.3,0-0.4,0c-0.1,0-0.1,0,0,0c0,0,0,0,0,0c0,0,0,0.1-0.1,0.1c-0.2,0.1-0.4,0.1-0.7,0.1
			c0,0-0.1,0-0.1,0c-0.1,0-0.1,0-0.2,0c-0.2,0-0.3,0.1-0.5,0.1c0,0-0.1,0-0.1,0c-0.1,0-0.3,0-0.4,0c0,0.1-0.1,0.1-0.1,0.1
			c-0.1,0-0.1,0.1-0.2,0.1c-0.1,0-0.2,0-0.3,0.1c-0.2,0-0.3,0.1-0.4,0.1c-0.1,0-0.2,0-0.3,0c-0.2,0-0.4,0-0.5,0.2c0,0-0.1,0-0.1,0
			c-0.2,0-0.3,0.1-0.5,0.1c-0.1,0-0.1,0-0.2,0c-0.5,0.1-0.9,0.3-1.4,0.4c-0.2,0-0.3,0.1-0.5,0.2c-0.1,0-0.1,0-0.2,0
			c-0.3-0.1-0.3-0.4-0.3-0.6c0-1.1,0-2.1,0-3.2c0-0.2,0-0.3-0.1-0.5c-0.6-0.1-1.2,0-1.7-0.1C3.3,10,2.7,10,2.1,10.1z"/>
		<path class="st6" d="M11,12.9c0,0,0.1,0,0.1,0c0.3-0.1,0.3,0,0.4,0.3c0,0.2,0,0.5,0,0.7c0,8.5,0,17,0,25.5c0,0.2,0,0.4,0,0.5
			c0,0.3,0.1,0.4,0.4,0.4c0.2,0,0.3,0,0.5,0c6,0,12,0,18,0c0.3,0,0.5,0,0.8,0c0.4,0.3,0.1,0.6-0.1,0.9c-0.1,0.2-0.4,0-0.5,0.1
			c0,0-0.1,0-0.1,0c-0.2-0.1-0.4,0-0.6,0c-6.2,0-12.4,0-18.6,0c-0.2,0-0.5,0-0.7-0.1c-0.2-0.2-0.1-0.4-0.1-0.6c0-7.7,0-15.5,0-23.2
			c0-1.3-0.1-2.5-0.1-3.8c0-0.3,0.1-0.5,0.3-0.7C10.8,12.9,10.9,12.9,11,12.9z"/>
		<path class="st5" d="M30.9,42.4c0-0.2,0.1-0.3,0.1-0.5c0.1-0.2,0-0.3,0-0.5c0,0,0-0.1,0-0.1c0.3-0.3,0.3-0.6,0.5-0.9
			c0,0,0-0.1,0.1-0.1c0.1-0.1,0.1-0.2,0.1-0.4c0-0.1,0.1-0.1,0.2-0.2c0.1-0.1,0.2-0.1,0.3-0.2c0.1,0,0.2,0,0.2,0.1
			c0,0,0.1,0.1,0.1,0.1c0.3,0.2,0.6,0,0.9,0.2c0.1,0,0.2,0.1,0.2,0.2c0.1,0.1,0.2,0.3,0.3,0.5c0,0,0,0.1,0.1,0.1
			c0.1,0,0.1,0.2,0.2,0.3c0.2,0.1,0.1-0.2,0.3-0.2c0.3-0.1,0.6,0,0.9,0c0.1,0,0.2,0.1,0.2,0.2c0.1,0.2,0.3,0.2,0.5,0.1
			c0.2-0.1,0.4-0.2,0.6-0.1c0.2,0.3,0.2,0.7,0.1,1c0,0.1-0.1,0.1-0.1,0.2c-0.3,0.3-0.2,0.8-0.5,1.2c-0.1,0.1,0,0.2-0.1,0.3
			c-0.4,1.3-0.8,2.7-1.2,4.1c-0.7-1-1.1-2.2-1.8-3.1c-0.1-0.1-0.1-0.2-0.3-0.1c-0.3,0-0.5,0.3-0.8,0.3c-0.1,0.1-0.2,0.2-0.3,0.3
			c-0.6,0.4-1.1,0.7-1.7,1c-0.2,0.1-0.3,0.1-0.4-0.1c0-0.1,0-0.2,0.1-0.3c0.2-0.1-0.1-0.4,0.1-0.5c0.3-0.7,0.5-1.4,0.8-2.1
			c0-0.1,0.1-0.1,0.2-0.2C30.9,42.8,30.9,42.6,30.9,42.4z"/>
		<path class="st7" d="M36.7,41.9c0.1-0.3,0.1-0.6,0-1c0.1-0.1,0.2-0.1,0.2,0c0.4,0.4,0.9,0.2,1.3,0.1c0.4,0.1,0.9-0.1,1.3,0
			c0.6,0.1,1.3-0.1,2,0.2c0,0,0.2,0,0.2-0.1c0-0.2,0-0.2,0.3-0.2c0.3,0.9,0.7,1.8,1,2.7c0,0.1,0,0.2,0.1,0.3c0,0.3,0.3,0.5,0.3,0.9
			c-0.2,0.3,0.1,0.3,0.2,0.4c0,0.1,0,0.2,0,0.3c0,0,0,0,0,0c0.2,0.1,0.1,0.3,0.2,0.4c0.1,0.1,0.2,0.3-0.1,0.3c-0.2,0-0.3,0-0.4-0.2
			c-0.1,0,0-0.2-0.1-0.1c-0.3-0.2-0.7-0.4-1-0.6c0-0.1,0-0.3-0.2-0.1c-0.4-0.2-0.8-0.4-1.2-0.7c-0.5-0.3-0.5-0.3-0.8,0.3
			c-0.1,0.2-0.2,0.5-0.4,0.7c-0.2,0-0.1,0.3-0.2,0.4c-0.2,0.2-0.2,0.6-0.4,0.8c-0.3,0.5-0.4,0.5-0.8,0c-0.2-0.2-0.2-0.4-0.2-0.6
			c-0.1-0.2,0-0.3-0.1-0.5c-0.3-0.7-0.5-1.4-0.7-2.1c-0.1-0.1,0-0.4-0.1-0.5c-0.1-0.3-0.2-0.7-0.4-1C36.7,42.1,36.7,42,36.7,41.9z"
			/>
		<path class="st7" d="M5.8,9.9c0.1,0.1,0.1,0.2,0.1,0.3c-0.2,1.2,0,2.4-0.1,3.6c0,0.2,0,0.4,0.3,0.5c0.1,0.1,0.3,0.3,0.5,0.3
			c0.8,0.3,1.6,0.7,2.4,1c0.3,0.1,0.6,0.2,0.8,0.4c0.1,0.1,0.2,0.1,0.2,0.3c0,0.1-0.1,0.1-0.1,0.1c-0.2,0.1-0.4,0.1-0.6,0.1
			c-1.7,0-3.4,0-5.1,0c-0.6,0-0.6,0-0.6-0.6c0-0.2-0.1-0.4-0.4-0.3c-0.4,0.2-0.5-0.1-0.5-0.4c0-0.1,0-0.1,0-0.2
			c0.2-0.4,0.3-0.9,0.5-1.3c0.1-0.2,0.2-0.3,0.1-0.5c-0.1-0.1-0.1-0.3-0.2-0.4c-0.3-0.7-0.7-1.3-0.8-2c-0.1-0.2-0.2-0.4-0.2-0.7
			c0.5-0.1,1.1,0,1.6-0.1C4.5,9.9,5.1,10,5.8,9.9z"/>
		<path class="st7" d="M46.7,13.4c0.3,0.3,0.3,0.6,0.4,1c0,0,0,0,0,0.1c0,0.1,0,0.2,0.1,0.4c0,0,0.1,0.1,0.1,0.1
			c0.4,0.5,0.5,1.1,0.8,1.6c0,0,0,0-0.1,0.1c-0.1,0-0.1,0-0.2,0c-1.6,0.1-3.3,0-4.9,0c-0.2,0-0.5,0-0.7,0.1c-0.5,0.1-1,0-1.5,0.1
			c-0.1,0-0.1,0-0.2,0c-0.2,0-0.4-0.1-0.6,0c-0.1,0-0.2,0-0.3-0.1c-0.1-0.2-0.1-0.3,0.1-0.4c0.1-0.1,0.2-0.1,0.3-0.2
			c0.2-0.1,0.3-0.1,0.5,0c0.6,0.2,1.2,0.1,1.8,0.1c1.5,0.1,2.9,0.2,4.1,0.1c-0.7,0-1.7,0-2.7,0c-0.2-0.4-0.4-0.8-0.1-1.2
			c0.1-0.1-0.2-0.1-0.1-0.2c0-0.2,0.2-0.2,0.3-0.3c0,0,0.1,0,0.1,0c0.1,0,0.2,0,0.3,0c0.2-0.2,0.2-0.5,0.2-0.8c0-0.6,0-1.2,0-1.9
			c0-0.3,0.2-0.5,0.5-0.5c0.5,0,1,0,1.5,0c0.6,0,0.8,0.3,0.6,0.9c0,0.2,0.1,0.3,0,0.5c-0.2,0.2-0.1,0.5-0.3,0.7
			C46.6,13.3,46.5,13.4,46.7,13.4z"/>
		<path class="st8" d="M46.8,12.2c0.2-0.7,0.1-0.8-0.6-0.8c-0.4,0-0.8,0-1.3,0c-0.4,0-0.5,0.1-0.5,0.5c0,0.6,0,1.3,0,1.9
			c0,0.2-0.1,0.5-0.1,0.7c0,0.2-0.2,0-0.2,0c-0.1-0.1-0.1-0.1-0.1-0.2c0.2-0.3,0.2-0.6,0.2-0.9c0-1.1,0-2.3,0-3.4
			c1.1-0.1,2.3,0,3.4,0c0.2,0,0.2,0.1,0.3,0.2c-0.3,0.7-0.6,1.3-0.9,2C47,12.2,46.9,12.2,46.8,12.2z"/>
		<path class="st9" d="M44.1,33.7c-0.2,0.4-0.3,0.8,0,1.2c0.1,0.2,0,0.3-0.1,0.5c-0.2,0.2-0.3,0.3-0.5,0.5c-0.2,0.5-0.2,0.5-0.6,0.1
			c0-0.1,0-0.2,0-0.3c0.5-1.3,0.6-2.6,0.2-3.9c-0.1-0.4-0.3-0.7-0.3-1.1c0-0.2,0-0.3,0.2-0.4c0.1-0.1,0.2-0.2,0.3-0.1
			c0.1,0,0.1,0.2,0.1,0.3c0,0.3-0.1,0.5,0.2,0.7c-0.1-0.1-0.2-0.2-0.2-0.3c0-0.4,0-0.9-0.2-1.2c0,0,0-0.1,0.1-0.1
			c0.3,0.1,0.4,0.3,0.4,0.6c-0.1,0.4,0,0.7,0.3,1c0.2,0.2,0.4,0.4,0.2,0.8c-0.2,0.3-0.1,0.7,0.2,1C44.3,33.3,44.3,33.5,44.1,33.7z"
			/>
		<path class="st10" d="M43.1,29.6c0.5,0.5-0.1,1.3,0.6,1.8c-0.4,0-0.5-0.2-0.6-0.4c-0.1-0.2,0.2-0.3,0-0.6
			c-0.1,0.1-0.3,0.1-0.3,0.3c-0.2,0-0.2-0.2-0.3-0.3c-0.5-1-1.4-1.8-2.3-2.5c-0.2-0.2-0.5-0.2-0.7-0.4c-0.1-0.1-0.3-0.1-0.4-0.3
			c0-0.1,0-0.2,0-0.3c0.1-0.2,0.3-0.3,0.6-0.2c0.1,0,0.1,0.1,0.1,0.2c0.1,0.1,0.2,0.1,0.3,0.2c0.1,0,0.1,0.1,0.2,0.1
			c0.7-0.3,0.9,0.1,1.1,0.6c0.1,0.2,0.1,0.2,0.3,0.3c0.8,0.2,0.8,0.3,0.9,1.1c0.1,0.1,0.1,0.2,0.2,0.3C42.9,29.4,43,29.6,43.1,29.6z
			"/>
		<path class="st11" d="M43.9,6.2c0,0.7,0,1.3,0,2c0,0-0.1,0-0.1,0c0-0.2,0-0.5,0-0.7c0-0.6-0.3-0.9-0.9-0.8c-0.5,0.1-1,0-1.5,0
			c-0.6,0-0.7-0.2-0.7-0.8c0-0.3-0.3-0.4-0.6-0.5c-0.3-0.1-0.3-0.2-0.2-0.4c0.1,0,0.3,0,0.4,0.1c0,0.2,0.2,0,0.3,0.1
			c0.4,0.2,1,0.1,1.4,0.4c0,0-0.1,0.1-0.1,0.1c0.1,0,0.2,0.1,0.4,0c0.4,0,0.8,0.3,1.2,0.3C43.7,5.9,43.8,6.1,43.9,6.2z"/>
		<path class="st12" d="M10.8,13c-0.4,0.3-0.3,0.8-0.3,1.2c0,3.2,0,6.4,0,9.5c0,5.6,0,11.2,0,16.9c0,0.2-0.1,0.4,0.1,0.6
			c0.1,0.1,0,0.1-0.1,0.2c-0.1,0-0.1-0.1-0.1-0.2c0.1-7.2,0-14.4,0-21.6c0-0.7,0-1.5,0-2.2c0-0.4-0.1-0.6-0.5-0.6
			c-2.5,0-4.9,0-7.4,0C2.3,16.9,2,17,2,16.7c1-0.1,1.9,0,2.9,0c1.6,0,3.1,0,4.7,0c0.2,0,0.4,0.1,0.6-0.1c0-0.1,0.1-0.2,0.1-0.2
			c0-0.9,0-1.7,0-2.6c0-0.2,0-0.5,0.1-0.6c0,0,0.1-0.1,0.1-0.1C10.6,12.9,10.7,12.9,10.8,13z"/>
		<path class="st13" d="M2.8,15.1c0.3,0,0,0.3,0.2,0.4c0.2-0.3,0.5-0.3,0.7-0.1c0.3,0.2,0.1,0.6,0.1,0.9c2.1,0,4.2,0,6.4,0
			c0,0,0,0.1,0,0.1c0,0.3-0.3,0.3-0.5,0.3c-1.9,0-3.7,0-5.6,0c-0.4,0-0.8-0.1-1.2,0c0,0-0.1,0-0.1,0c-0.2,0-0.3-0.2-0.5-0.1
			c-0.1,0-0.1-0.1-0.1-0.1c0.2-0.3,0.2-0.7,0.5-1C2.7,15.3,2.6,15.2,2.8,15.1z"/>
		<path class="st14" d="M41.9,41c-0.1,0.1-0.4-0.2-0.2,0.2c0,0,0.1,0.1,0,0.2c-0.1-0.3-0.2,0.2-0.3,0c-0.1-0.4-0.4-0.2-0.6-0.2
			c-0.8,0-1.6-0.2-2.3,0c-0.1,0-0.2,0-0.3-0.1c0-0.2,0.1-0.3,0.3-0.3c0.3,0,0.5-0.1,0.8-0.1c0.4,0,0.4-0.2,0.4-0.5
			c0-0.1,0.1-0.1,0.1-0.1c0.3,0,0.6-0.1,0.9-0.1c0.4,0.1,0.3-0.2,0.4-0.5c0-0.1,0.1-0.2,0.2-0.2c0.1,0.1,0.1,0.3,0.2,0.4
			C41.6,40.2,41.8,40.6,41.9,41z"/>
		<path class="st15" d="M7.7,5.7C7.8,5.9,8,5.8,8.2,5.8c0.1,0,0.2-0.1,0.3,0c0,0.2,0.1,0.5-0.1,0.7C8.2,6.7,8.1,6.7,8,6.6
			c-0.3-0.4-0.6-0.3-0.8,0C7,6.7,6.9,6.6,6.8,6.6C6.2,6.5,6.1,6.7,6.1,7.2c0,0.7,0,1.4,0,2.2c0,0.2,0.1,0.3-0.1,0.5
			C5.9,9.7,5.9,9.6,5.9,9.5c0-1,0-1.9,0-2.9c0-0.1,0-0.2,0.1-0.3C6.5,5.8,7.1,5.8,7.7,5.7z"/>
		<path class="st16" d="M10.5,41.4c0-0.1,0.1-0.1,0.1-0.2c0.3,0.1,0.5,0.1,0.8,0.1c6.2,0,12.3,0,18.5,0c0.2,0,0.4-0.1,0.6,0.1
			C23.8,41.4,17.2,41.4,10.5,41.4z"/>
		<path class="st17" d="M41.2,39.4c-0.1,0-0.1,0.1-0.1,0.2c0,0.1,0,0.1-0.1,0.1c-0.1,0.1-0.3,0.1-0.4,0c-0.1,0-0.1-0.1-0.2-0.2
			c-0.2-0.2,0-0.4,0.2-0.5c0.2-0.1,0.2,0,0.1-0.2c0.2-0.5,0.6-0.8,0.9-1c0.2-0.1,0.3-0.2,0.5-0.3c0.2-0.2,0.2,0,0.3,0.1
			c0,0,0.1,0,0.1,0c0,0.8,0,0.8-0.8,1.1c-0.3,0.1-0.4,0.3-0.4,0.6C41.3,39.3,41.3,39.4,41.2,39.4z"/>
		<path class="st18" d="M39.3,13c0.1,0,0.2,0,0.3,0c0.1,0.1,0.1,0.3,0.1,0.5c0,0.9,0,1.8,0,2.8c0,0.2-0.2,0.4,0.1,0.5
			c2-0.1,4.1-0.1,6.1-0.1c0.7,0,1.3,0.1,2,0c0,0,0.1-0.1,0.1-0.1l0,0c0.1,0,0.2,0.1,0.2,0.2c0,0.1-0.1,0.1-0.2,0.1
			c-0.1,0-0.2,0-0.3,0c-2.5,0-5,0-7.6,0c-0.2,0-0.5-0.1-0.5,0.3c-0.1,0-0.1,0-0.2,0c-0.1-0.2-0.1-0.5-0.1-0.7
			C39.3,15.3,39.4,14.1,39.3,13z"/>
		<path class="st19" d="M42.5,37.5c0,0-0.1,0-0.1,0c0-0.2-0.2-0.3-0.2-0.5c0.2-0.3,0.2-0.8,0.7-0.9c0.2,0.1,0.2,0.1,0.3-0.1
			c0-0.1,0.1-0.2,0.2-0.1C43.7,36.7,43.2,37.2,42.5,37.5z"/>
		<path class="st20" d="M39.5,17.2C39.5,17.2,39.6,17.2,39.5,17.2c0.1,3,0.1,6.1,0.1,9.1c-0.1,0-0.1,0-0.2-0.1
			c-0.1-0.2-0.1-0.4-0.1-0.6c0-2.6,0-5.1,0-7.7C39.4,17.6,39.3,17.4,39.5,17.2z"/>
		<path class="st21" d="M2.1,16.4c0,0,0.1,0.1,0.1,0.1c0.1,0,0.1,0.1,0.2,0.1c0.5,0.1,1,0,1.5,0c2,0,4.1,0,6.1,0c0.1,0,0.2,0,0.4,0
			c0,0.2-0.1,0.2-0.2,0.2c-2.6,0-5.2,0-7.9,0c-0.1,0-0.2,0-0.3-0.1C2,16.6,2,16.5,2.1,16.4z"/>
		<path class="st1" d="M11.5,4.5c-0.2,0.1-0.3,0.1-0.5,0.2c-0.1,0.1-0.2,0.2-0.4,0.2c-0.2-0.1-0.4-0.1-0.5,0.1C10,5,10,4.9,9.9,4.9
			c0.1-0.2,0.5-0.2,0.5-0.6c0,0,0.1-0.1,0.1-0.1c0.4,0,0.6-0.2,0.6-0.6c0-0.2,0-0.4,0.1-0.6c0.1-0.1,0.2-0.4,0.4,0
			C11.4,3.5,11.6,4,11.5,4.5z"/>
		<path class="st22" d="M5.8,9.9c-0.5,0.2-1,0-1.5,0.1c-0.2,0-0.4,0-0.6,0c-0.5,0.1-1,0-1.6,0.1c0.1,0.2,0.2,0.4,0.2,0.6
			c-0.3-0.1-0.2-0.4-0.3-0.6c0.1-0.3,0.3-0.2,0.4-0.2C3.6,9.9,4.7,9.9,5.8,9.9z"/>
		<path class="st23" d="M48,10.2C47.9,10,47.7,10,47.5,10c-1.1,0-2.1,0-3.2,0c0.1-0.2,0.3-0.1,0.5-0.1c1.1,0,2.1,0,3.2,0
			C48.2,10,48,10.1,48,10.2z"/>
		<path class="st22" d="M5.9,9.8c0,0-0.1,0-0.1,0c0-0.8,0-1.7,0-2.5c0-0.3,0-0.7,0.1-1C6,7.5,6,8.6,5.9,9.8z"/>
		<path class="st24" d="M5.9,9.8c0-1.2,0-2.3,0-3.5c0,0,0,0,0.1,0C6,7.5,6,8.6,5.9,9.8C6,9.8,5.9,9.8,5.9,9.8z"/>
		<path class="st25" d="M39.5,26.3C39.5,26.3,39.6,26.3,39.5,26.3c0.1,0.2,0.1,0.3,0.2,0.4c-0.2,0-0.4,0.1-0.5,0.2
			c-0.1-0.1-0.2-0.1-0.4-0.1c-0.2,0-0.4,0-0.4-0.3c0,0,0-0.1,0-0.1c0,0,0.1-0.1,0.1-0.1c0.1,0,0.3,0,0.4-0.1c0,0,0.1,0,0.1,0
			c0.1-0.1,0.2,0.3,0.4,0C39.4,26.2,39.5,26.2,39.5,26.3z"/>
		<path class="st26" d="M38.2,46.8c0.1,0,0.1,0,0.2,0.1c0.2,0.2,0.3,0.4,0.4,0c0,0,0.1,0,0.2,0c0,0.3-0.3,0.6-0.4,0.8
			c-0.1,0.1-0.1,0-0.2-0.1c-0.1-0.1,0-0.3-0.1-0.5C38.2,47,38.3,46.9,38.2,46.8z"/>
		<path class="st11" d="M44.1,7.5c-0.2-0.4,0-0.9-0.1-1.4c0.1,0,0.1,0.1,0.1,0.1C44.2,6.7,44.2,7.1,44.1,7.5z"/>
		<path class="st27" d="M43.5,45.3c-0.1,0-0.3,0.1-0.4-0.1c0-0.1,0-0.2,0.2-0.3C43.3,45.1,43.6,45.1,43.5,45.3z"/>
		<path class="st28" d="M44.1,7.5c0-0.4,0-0.8,0-1.2c0,0,0.1,0,0.1,0C44.2,6.7,44.2,7.1,44.1,7.5C44.2,7.5,44.1,7.5,44.1,7.5
			L44.1,7.5z"/>
		<path class="st29" d="M31.1,41.5c0.1,0.2,0.2,0.4-0.1,0.5c-0.1-0.1-0.1-0.1-0.1-0.3C30.9,41.6,31,41.5,31.1,41.5z"/>
		<path class="st30" d="M10.5,4.3C10.5,4.3,10.4,4.3,10.5,4.3c-0.1-0.4-0.1-0.7-0.1-1.1c0,0,0.1,0,0.1,0C10.7,3.6,10.7,4,10.5,4.3z"
			/>
		<path class="st31" d="M43.6,46.3c0.1-0.1,0.1-0.2,0.1-0.3c0.2,0.1,0.2,0.3,0.2,0.4C43.8,46.5,43.7,46.4,43.6,46.3z"/>
		<path class="st32" d="M44.1,33.7c0.1-0.2,0.1-0.5,0-0.7C44.3,33.3,44.5,33.5,44.1,33.7z"/>
		<path class="st33" d="M30.9,42.4c0.2,0.2,0.2,0.4-0.1,0.6c-0.1-0.1-0.1-0.1,0-0.2C30.8,42.7,30.8,42.6,30.9,42.4z"/>
		<path class="st16" d="M31.1,41.5c-0.1,0.1-0.1,0.1-0.2,0.2c0-0.2-0.1-0.3-0.3-0.3c0.1-0.3,0.3,0,0.4-0.1
			C31,41.3,31.1,41.3,31.1,41.5C31.1,41.4,31.1,41.4,31.1,41.5z"/>
		<path class="st34" d="M9.1,5.2C9,5.5,8.7,5.5,8.4,5.4C8.6,5.2,8.9,5.4,9.1,5.2z"/>
		<path class="st35" d="M39.5,4.8c-0.1,0-0.2-0.1-0.2-0.1c0,0,0,0,0-0.1c0,0,0,0,0,0c0.2,0,0.5,0.1,0.7,0.1c0,0.1,0,0.1,0,0.2
			c0,0-0.1,0-0.1,0C39.8,4.8,39.6,4.9,39.5,4.8z"/>
		<path class="st36" d="M29.6,46c0.1,0.1,0.3,0.1,0.4,0.1c0,0.3-0.2,0.2-0.4,0.2c-0.1,0-0.1-0.1,0-0.2C29.6,46.1,29.6,46,29.6,46z"
			/>
		<path class="st37" d="M2.8,15.1c0,0.1,0.1,0.3-0.2,0.3c0-0.2,0-0.3,0.2-0.4C2.8,15,2.8,15.1,2.8,15.1z"/>
		<path class="st5" d="M40.7,5.1c-0.1,0.2-0.3,0.1-0.4,0C40.2,5,40.3,5,40.4,5C40.5,5,40.6,5,40.7,5.1z"/>
		<path class="st38" d="M39.4,46c0-0.1,0-0.3,0-0.4c0.1-0.2,0.1-0.1,0.2,0.1C39.5,45.7,39.5,45.8,39.4,46z"/>
		<path class="st39" d="M42.3,5.6c-0.1,0.1-0.3,0.1-0.4,0c0,0-0.2,0-0.1-0.1c0,0,0.1,0,0.2,0C42.1,5.5,42.2,5.6,42.3,5.6z"/>
		<path class="st40" d="M29.8,45.2c-0.1,0.2,0.1,0.3,0,0.5c-0.1,0.2-0.1,0-0.1,0C29.7,45.5,29.6,45.3,29.8,45.2z"/>
		<path class="st41" d="M31.8,45.1c0-0.2,0.1-0.3,0.3-0.3C32,45,32,45.1,31.8,45.1z"/>
		<path class="st42" d="M41.2,39.4c0-0.1,0.1-0.1,0.1-0.2c0,0.2,0.1,0.4,0.1,0.6C41.3,39.7,41.3,39.6,41.2,39.4z"/>
		<path class="st43" d="M46.7,13.4c0,0.1-0.1,0.1-0.1,0.1c0,0-0.1-0.1-0.1-0.2c0-0.1,0.1-0.1,0.2,0C46.6,13.3,46.7,13.4,46.7,13.4z"
			/>
		<path class="st44" d="M37.9,45.7c0.2,0.1,0.3,0.3,0.1,0.5C37.9,46,37.9,45.9,37.9,45.7z"/>
		<path class="st45" d="M42,45.3c0-0.2,0.1-0.2,0.2-0.1c0.2,0.1-0.1,0.1-0.1,0.2C42.1,45.4,42,45.3,42,45.3z"/>
		<path class="st46" d="M47.2,14.9C47.2,14.9,47.2,14.9,47.2,14.9c-0.2-0.1-0.3-0.3-0.2-0.5c0,0,0,0,0,0
			C47.3,14.5,47.3,14.7,47.2,14.9z"/>
		<path class="st47" d="M32.9,44.5c0-0.1,0.1-0.2,0.2-0.1c0.1,0.1,0.1,0.2,0,0.3C33,44.6,32.9,44.6,32.9,44.5z"/>
		<path class="st48" d="M3.2,12.8c0.2,0.1,0.2,0.2,0.2,0.4C3.2,13,3.2,12.9,3.2,12.8z"/>
		<path class="st49" d="M46.8,12.2c0.1,0,0.2,0,0.2,0c0,0.1,0,0.3-0.1,0.4C47,12.4,46.9,12.3,46.8,12.2z"/>
		<path class="st50" d="M38.3,47.1c0.2,0.1,0.1,0.3,0.1,0.5C38.3,47.4,38.3,47.2,38.3,47.1z"/>
		<path class="st51" d="M30.8,42.8c0,0.1,0,0.1,0,0.2c0,0.1-0.1,0.1-0.2,0.1C30.6,43,30.7,42.9,30.8,42.8z"/>
		<path class="st52" d="M36.1,43.6c0-0.1,0-0.3,0-0.4c0-0.1,0.1,0,0.1,0.1C36.2,43.4,36.2,43.5,36.1,43.6z"/>
		<path class="st53" d="M37.1,43.1c0.2,0.1,0.1,0.3,0.1,0.5C37.1,43.5,37.1,43.3,37.1,43.1z"/>
		<path class="st54" d="M43,44c-0.2,0-0.2-0.1-0.1-0.3C43,43.8,43,43.9,43,44z"/>
		<path class="st27" d="M43.1,46c0-0.1,0-0.2,0.1-0.2c0.2,0,0.1,0.2,0,0.3C43.2,46.1,43.1,46,43.1,46z"/>
		<path class="st25" d="M40.1,27.1c-0.1,0-0.3,0-0.3-0.2C39.9,26.9,40,26.9,40.1,27.1z"/>
		<path class="st55" d="M29.6,46.1c0,0.1,0,0.1,0,0.2c0,0.1,0,0.2-0.1,0.2c0,0-0.1,0-0.1-0.1C29.4,46.3,29.5,46.2,29.6,46.1z"/>
		<path class="st56" d="M42.7,29.4c-0.2,0-0.2-0.2-0.2-0.3C42.7,29.2,42.7,29.3,42.7,29.4z"/>
		<path class="st57" d="M36.7,41.9c0.1,0,0.1,0.1,0.1,0.2c0,0-0.1,0-0.1,0C36.7,42.1,36.7,42,36.7,41.9z"/>
		<path class="st6" d="M10.5,4.3c0-0.4,0-0.7,0-1.1c0-0.2,0-0.3,0-0.5c0,0,0.1,0,0.1-0.1C10.9,2,11.5,2.2,12,2.2
			c8.8,0,17.6,0,26.4,0c0.2,0,0.4,0.1,0.6-0.1c0.3,0,0.2,0.3,0.2,0.4c0,0.6,0.1,1.2-0.1,1.8c0,0.2,0.2,0.1,0.3,0.1
			c0,0-0.1,0.1-0.1,0.1c-0.2,0.1-0.4,0.1-0.6,0l0,0l0,0c-0.2-0.3-0.1-0.6-0.1-0.9c0-0.4-0.2-0.5-0.5-0.5c-2.1,0-4.3,0-6.4,0
			c-1.2,0-2.4,0-3.7,0c-0.1,0-0.3,0-0.4-0.1c-0.3,0-0.7,0-1,0c-0.9,0.2-1.8,0.1-2.6,0c-0.3,0-0.7,0-1,0c-0.5,0.2-1,0.1-1.5,0.1
			c-1.1-0.1-2.1-0.1-3.2,0c-2.1,0.1-4.1,0-6.2,0c-0.1,0-0.3,0-0.4-0.1c-0.3-0.2-0.3,0.1-0.3,0.2c0,0.2-0.1,0.4-0.1,0.5
			C11.3,4.3,11,4.4,10.5,4.3z"/>
		<path class="st58" d="M38.7,4.5c0.2,0,0.4,0,0.6,0c0,0,0,0.1,0,0.1c0,0,0,0.1,0,0.1C39.1,4.7,38.8,4.8,38.7,4.5z"/>
		<path class="st59" d="M20.5,11.4c0.1,0,0.1,0,0.2,0c0.4-0.2,0.8-0.1,1.1-0.1c1.6,0,3.3,0,4.9,0.1c1.2,0.1,2.4,0.3,3.6,0.6
			C30.5,12,30.8,12,31,12c0.2,0,0.3,0,0.5,0c1.5,0.4,3,0.4,4.5,0.6c0.5,0.1,0.9-0.1,1.4,0c0.4,0,0.5,0.1,0.4,0.5
			c-0.1,0.2,0,0.5,0,0.7c0,3.3,0,6.6,0,9.8c0,0.6-0.2,1.2-0.2,1.9c0,0.4-0.4,0.4-0.7,0.4c-0.1,0-0.3-0.1-0.4,0
			c-0.3,0-0.6-0.3-0.9-0.1c0,0-0.1,0-0.1,0.1c-0.2,0-0.2,0.2-0.3,0.3c0,0-0.1,0.1-0.1,0.1c-0.2,0.1-0.3,0-0.5,0.1
			c-0.2,0-0.3,0-0.5,0c-0.3,0-0.3,0.3-0.4,0.4c0,0-0.1,0.1-0.1,0.1c-0.2,0.2-0.4,0.2-0.7,0.2c-0.2,0-0.4,0-0.6,0.2
			c-0.1,0.1-0.1,0.1-0.2,0.1c-0.2,0.2-0.3,0.4-0.4,0.6c-0.1,0.1-0.2,0.1-0.3,0.2c-0.2,0-0.3,0.1-0.5,0.2c-0.4,0.2-0.3,0.6-0.5,0.9
			c-0.1,0.1-0.2,0.1-0.3,0.1c-0.3,0-0.4,0.2-0.3,0.4c-0.2,0.4,0,0.8-0.2,1.2c0,0.1-0.1,0.2-0.1,0.2c-0.1,0.1-0.1,0.1-0.2,0.2
			c-0.2,0.2-0.3,0.5-0.2,0.7c0.2,0.3,0.1,0.6-0.1,0.9c-0.2,0.3-0.2,0.6,0,0.9c0.2,0.3,0.2,0.6,0.1,0.9c-0.1,0.2-0.1,0.3-0.1,0.5
			c0,0.1-0.1,0.3,0.2,0.3c0.1,0.1,0.3,0.2,0.3,0.3c0.1,0.2,0.1,0.4,0,0.6c-0.1,0.3,0,0.5,0.3,0.5c0.2,0.1,0.4,0.2,0.5,0.4
			c0.1,0.1,0.1,0.3,0.2,0.4c0.1,0.5,0.4,0.7,0.8,0.8c0.2,0.1,0.4,0.2,0.4,0.5c0,0.3-0.1,0.5-0.4,0.6c-0.2,0-0.5,0-0.7,0
			c-5.9,0-11.8,0-17.8,0c-0.2,0-0.3,0-0.5,0c-0.4,0-0.5-0.2-0.5-0.5c0-0.1,0-0.3,0-0.4c0-8.3,0-16.6,0-24.9c0-0.2,0-0.5,0-0.7
			c0,0,0,0,0,0c0.2-0.1,0.4-0.3,0.6-0.4c0.3-0.1,0.6-0.1,0.9,0c0.9,0.2,1.8-0.1,2.5-0.6c0.3-0.2,0.7-0.4,1-0.4c0.5,0,1-0.2,1.5-0.3
			c0.6-0.2,1.1-0.2,1.7-0.2C20.2,11.5,20.4,11.5,20.5,11.4z"/>
		<path class="st60" d="M12,13.2c0,8.7,0,17.4,0,26.1c0,0.4,0.1,0.5,0.5,0.5c6.3,0,12.7,0,19,0c0,0.1,0,0.1,0,0.2
			c-0.1,0.1-0.1,0.1-0.2,0.1c-0.1,0-0.3,0-0.4,0c-6,0-12,0-18,0c-0.4,0-0.8,0.1-1.1-0.3c0-0.1,0-0.1,0-0.2c0.1-0.3,0-0.6,0-1
			c0-0.2,0-0.5,0-0.7c0-7.8,0-15.6,0-23.4c0-0.2,0-0.5,0-0.7c0.2-0.4,0-0.8,0.2-1.1c0.3,0,0.5-0.1,0.8-0.1c0.7-0.2,1.3-0.2,2-0.4
			l0,0c0.3-0.1,0.6,0,0.9-0.2c0.1,0,0.2-0.1,0.3-0.1c0.1-0.2,0.3-0.1,0.5-0.2c0.2-0.1,0.3,0.1,0.5,0l0,0c0.1-0.1,0.1-0.1,0.2,0
			c0.1,0.2-0.1,0.2-0.2,0.3c-0.9,0.3-1.7,0.7-2.7,0.9c-0.4,0.1-0.8,0-1.3,0C12.5,13,12.2,12.9,12,13.2z"/>
		<path class="st61" d="M31.7,40.3C31.7,40.3,31.7,40.4,31.7,40.3c-0.1,0.2-0.3,0.2-0.4,0.1c-3.9,0-7.8,0-11.7,0c-2.6,0-5.1,0-7.7,0
			c-0.4,0-0.5-0.1-0.5-0.5c0-8.8,0-17.6,0-26.5c0-0.2,0.2-0.5-0.3-0.5c0.1-0.1,0.3-0.1,0.5-0.2c0.1,0.1,0.1,0.2,0.1,0.3
			c0.1,0.4,0,0.9,0,1.3c0,8,0,16,0,24.1c0,0.4,0.1,0.8,0,1.3c0,0.3,0.1,0.5,0.5,0.5c0.2,0,0.5,0,0.7,0c6.1,0,12.3,0,18.4,0
			C31.4,40.1,31.6,40.2,31.7,40.3z"/>
		<path class="st62" d="M40.5,16.1c-0.1,0-0.3,0.1-0.4,0.1c-0.2,0.1-0.4,0-0.4-0.2c0-1-0.1-1.9,0.1-2.9c1,0.1,1.9,0.4,2.7,0.8
			c0.2,0.2,0.4,0.2,0.6,0.2c0,0,0.1,0,0.1,0c0.1,0.1,0.3,0.1,0.5,0.2c0.1,0,0.1,0,0.2,0c0.1,0.1,0.1,0.1,0,0.2l0,0
			c-0.3-0.1-0.5,0.4-0.9,0.1c-0.1,0.1,0,0.2,0,0.3c0,0.1-0.1,0.2-0.2,0.2c0,0-0.1,0-0.1,0.1c-0.5,0.2-0.9,0.4-1.4,0.6
			C41,15.9,40.8,16,40.5,16.1z"/>
		<path class="st63" d="M8.9,15.7c-0.8-0.3-1.6-0.6-2.4-1c-0.1-0.3,0.1-0.4,0.3-0.5C7.2,14,7.7,14,8,13.7c0.1,0,0.1,0,0.2,0
			c0.1,0,0.3-0.1,0.4-0.1c0,0,0.1,0,0.1,0c0.1-0.2,0.3-0.2,0.5-0.2c0.3,0.2,0.7,0.4,0.8,0.8c0.1,0.3,0.1,0.5-0.1,0.8
			c-0.1,0.1-0.1,0.2-0.2,0.4c-0.1,0.3-0.2,0.4-0.5,0.2C9.1,15.4,9,15.4,8.9,15.7z"/>
		<path class="st25" d="M37.8,26c0.1,0,0.3,0.1,0.3-0.1c0-0.1,0-0.2,0-0.3c0-4.3,0-8.6,0-12.9c0.1-0.1,0.1-0.1,0.2,0
			c0,0,0.1,0.1,0.1,0.1c0.2,0.2,0.1,0.4,0.1,0.6c0,4.1,0,8.3,0,12.4c0,0.2,0,0.4-0.1,0.6l0,0C37.9,26.4,37.8,26.3,37.8,26z"/>
		<path class="st64" d="M11.6,12.9c0-0.1,0-0.1,0-0.2c0.1,0,0.1,0,0.2,0c0.1,0.4,0.1,0.7,0,1.1c0,0.3,0,0.5,0,0.8
			c0,7.9,0,15.9,0,23.8c0,0.2,0,0.3,0,0.5c0.1,0.3,0.1,0.5,0,0.8l0,0c-0.1,0-0.1,0-0.1-0.1c0-6.7,0-13.4,0-20.1c0-2,0-4,0-6.1
			C11.6,13.2,11.7,13,11.6,12.9z"/>
		<path class="st65" d="M36.5,12.3c-0.5,0.2-0.9,0-1.4,0c-1.5-0.1-3-0.4-4.5-0.6c-1.5-0.2-2.9-0.4-4.4-0.4c0,0-0.1,0-0.1-0.1
			c0.2,0,0.4,0,0.6,0c0.6-0.1,1.2-0.1,1.9,0c0.3,0.1,0.6,0,0.9,0.1c0.5,0.1,0.9,0.1,1.4,0.2c0.2,0,0.4-0.1,0.6,0
			c0.9,0.1,1.7,0.2,2.6,0.4c0.1,0,0.2-0.1,0.3,0c0.3,0.1,0.6,0.1,0.9,0.2c0.1,0,0.2-0.1,0.3,0c0.1,0,0.2,0,0.3,0.1
			c0.1,0,0.2,0,0.3,0c0.1,0,0.3,0.1,0.4,0.1C36.5,12.3,36.5,12.3,36.5,12.3z"/>
		<path class="st66" d="M34.9,3.8c-0.1-0.1-0.2-0.1-0.3-0.1c-0.1,0-0.3,0.1-0.4,0c-0.3-0.1-0.6-0.1-0.9-0.2c0-0.2,0.2-0.2,0.3-0.2
			c1.4,0,2.8,0,4.2,0c0.1,0,0.2,0,0.3,0.1c0.2,0.2,0.1,0.5,0.1,0.7c0,0.2-0.2,0.3-0.4,0.2c-0.1,0-0.3-0.1-0.4,0.1
			c-0.1-0.1-0.2-0.1-0.3-0.2c-0.2-0.2-0.6,0.1-0.8-0.2c-0.3,0.1-0.6,0-0.8,0C35.3,3.9,35.1,3.9,34.9,3.8z"/>
		<path class="st67" d="M39.5,26.3C39.5,26.3,39.4,26.3,39.5,26.3c-0.2,0.1-0.3,0.1-0.3,0c-0.1-0.1-0.1-0.2,0-0.3
			c0.1-0.3,0.1-0.6,0.1-0.9c0-2.4,0-4.8,0-7.2c0-0.2,0.1-0.4-0.1-0.6c-0.1-0.1-0.2,0-0.2-0.1c-0.1-0.2-0.1-0.3,0-0.5
			c0.1-0.2,0.1-0.5,0.1-0.7c0-0.8,0-1.6,0-2.5c0-0.2,0-0.4,0.1-0.5c0,0,0.1,0,0.1,0c0.2,0.1,0.2,0.3,0.2,0.6c0,1.2,0,2.4,0,3.6
			C39.5,20.2,39.5,23.2,39.5,26.3z"/>
		<path class="st68" d="M37.8,4.4c0.3,0,0.3-0.1,0.3-0.4c0-0.2,0-0.4,0-0.5c0,0,0-0.1,0-0.1c0.3,0.1,0.1,0.5,0.3,0.6
			c0-0.1,0-0.2,0-0.2c0-0.5,0-0.5-0.6-0.5c-1.9,0.2-3.8,0.1-5.7,0.1c-0.2,0-0.4-0.2-0.5-0.1c-0.1,0.1-0.2,0.1-0.2,0.2
			c-0.1,0-0.1,0-0.2,0c0,0-0.1,0-0.1,0c-0.1-0.1-0.3,0-0.5-0.1c0,0,0-0.1,0-0.1c0.1-0.1,0.3-0.1,0.3-0.1c-0.1,0-0.3-0.1-0.5,0
			c-0.2,0-0.3,0-0.5,0c-0.2,0-0.4,0-0.6,0c-0.6,0-1.2,0.1-1.8-0.1c0,0,0,0,0-0.1c1.1,0,2.2,0,3.2,0c2.5,0,5,0,7.4,0
			c0.4,0,0.5,0.1,0.5,0.5c0,0.4,0,0.7,0,1.1c0,0-0.1,0-0.1,0c-0.2,0.1-0.3-0.1-0.5,0C37.9,4.5,37.8,4.5,37.8,4.4z"/>
		<path class="st69" d="M11.6,3c2.2,0,4.4,0,6.7,0c1-0.1,1.9,0,2.9,0c0.1,0,0.1,0.1,0.1,0.1c-0.2,0.1-0.3,0-0.5,0.1
			c-0.4,0-0.7,0-1,0.1c-1.1,0-2.2-0.1-3.3,0.2c-1.3-0.1-2.5,0-3.8,0c-0.2,0-0.4-0.1-0.6,0.1c0,0,0,0.1,0,0.1
			c-0.1,0.3,0.2,0.6-0.1,0.9c-0.1,0.1-0.3,0.1-0.4,0.1C11.4,4,11.2,3.5,11.6,3z"/>
		<path class="st70" d="M14.4,4c-0.1,0-0.3,0-0.4,0.1c-0.1,0.1-0.2,0.1-0.3,0.2c-0.1,0-0.2,0-0.4,0c-0.1,0-0.2,0-0.2,0.1
			c-0.1,0.1-0.3,0-0.4,0.1c-0.2,0.2-0.3,0-0.5,0C11.8,4.5,12,4.1,11.9,4c-0.1-0.2,0-0.4,0.2-0.5c0.1,0,0.3,0,0.4,0
			c1.1,0,2.1-0.1,3.2,0c0.1,0.2,0.1,0.2-0.3,0.3c-0.1,0-0.1,0-0.2,0c-0.1,0.1-0.3,0.1-0.4,0.2c-0.1,0-0.1,0.1-0.2,0.1
			C14.5,4,14.5,4,14.4,4z"/>
		<path class="st71" d="M35.8,12.2c-0.1,0-0.2,0-0.3-0.1c0-0.2-0.2,0-0.2-0.1c-0.1-0.1,0-0.2,0.1-0.2c0.7,0,1.5-0.2,2.2-0.2
			c0.5,0,0.7,0.1,0.6,0.6c-0.2,0.3-0.5,0.3-0.8,0.3c-0.1,0-0.2,0-0.3,0c-0.2,0-0.4-0.1-0.6-0.1l0,0c0,0,0,0,0,0c0,0,0-0.1,0-0.1
			c0.1,0,0.1-0.1,0-0.1c0,0-0.1,0-0.1,0C36.1,12.1,36,12.1,35.8,12.2z"/>
		<path class="st72" d="M39.2,16.1c0.1,0.2,0,0.4-0.1,0.6c-0.1,0.2-0.1,0.3,0,0.5c0.1,0.2,0.1,0.3,0.1,0.5c-0.1,0.2-0.1,0.5-0.1,0.7
			c0,2.3,0,4.6,0,7c0,0.3,0,0.6-0.1,0.9c0,0,0,0.1,0,0.1c0,0-0.1,0-0.1,0c0,0,0,0-0.1-0.1c-0.1-0.3-0.1-0.5-0.1-0.8
			c0-2.6,0-5.1,0-7.7c0-0.3,0-0.6,0-0.9c0-1.1,0-2.2,0-3.3c0-0.2,0-0.5,0.1-0.6c0,0,0.1,0,0.1,0c0.2,0.2,0.1,0.5,0.1,0.7
			C39.2,14.4,39.1,15.2,39.2,16.1z"/>
		<path class="st73" d="M32,3.2c2-0.1,4,0.1,6-0.1c0.5,0,0.6,0.2,0.5,0.6c0,0.2,0.1,0.4,0,0.6c-0.2,0-0.2-0.2-0.2-0.4
			c0-0.2,0.1-0.4-0.1-0.6c-1,0.1-2,0-3,0c-0.9,0-1.7,0-2.6,0c-0.2,0.2-0.4,0-0.6,0c-0.2-0.1-0.4,0.1-0.6-0.1
			c0.1-0.1,0.1-0.1,0.2-0.2C31.7,3.1,31.8,3.1,32,3.2z"/>
		<path class="st74" d="M8.9,15.7c0-0.1-0.1-0.2-0.1-0.4c0.2,0.1,0.5,0,0.7,0.2c0.1,0.1,0.2,0,0.2-0.1c-0.1-0.3,0.1-0.4,0.3-0.6
			c0.2-0.2-0.1-1-0.5-1.1c-0.2,0-0.3-0.1-0.3-0.3c0,0,0,0,0-0.1c0,0,0,0,0,0c0.1,0,0.2,0,0.4,0c0.2,0,0.3,0,0.4-0.2
			c0.1,0,0.2,0,0.3,0c0,0,0,0.1,0,0.1c0,0.8,0,1.7,0,2.5c0,0.2,0.1,0.5-0.3,0.4C9.7,16,9.3,15.9,8.9,15.7z"/>
		<path class="st75" d="M38.4,26.4c0-4.5,0-9.1,0-13.6c0.1,0,0.1,0,0.2,0c0,0.1,0,0.1,0,0.2c0,4.2,0,8.4,0,12.7
			C38.7,25.9,38.7,26.1,38.4,26.4C38.5,26.4,38.5,26.4,38.4,26.4z"/>
		<path class="st76" d="M13.1,10c0.4,0,0.8,0,0.8-0.6c0-0.2,0.1-0.3,0.2-0.2c0.2,0,0.4,0.3,0.5,0.4c0.1,0.2,0,0.4-0.2,0.5
			c-0.2,0.1-0.3,0.2-0.5,0.2c-0.3,0-0.6,0.1-0.9,0.2c-0.3,0.1-0.5-0.2-0.6-0.5C12.7,9.9,12.9,10.1,13.1,10z"/>
		<path class="st77" d="M16.3,3.2c1.1-0.3,2.2-0.1,3.3-0.2c0,0.1,0,0.1-0.1,0.1c-0.5,0.2-1,0.1-1.5,0.1c-0.1,0-0.1,0-0.2,0
			c-0.2,0.2-0.4,0.1-0.6,0.1c-0.2,0-0.5,0-0.7,0c-0.4,0.1-0.8,0-1.2-0.1c0-0.2,0.2-0.2,0.3-0.2C15.8,3.2,16,3.2,16.3,3.2z"/>
		<path class="st78" d="M32.5,3.4c0.2-0.1,0.4-0.1,0.6-0.1c1.5,0,3.1,0.1,4.6-0.1c0.1,0,0.3,0,0.4,0.1c0,0,0,0.1,0,0.1
			c-1.5,0-2.9,0-4.4,0c-0.1,0-0.3,0-0.4,0.1C33.1,3.5,32.8,3.6,32.5,3.4z"/>
		<path class="st79" d="M14.1,6.9c0,0.3-0.1,0.4-0.4,0.5c-0.4,0-0.4-0.2-0.4-0.5c0-0.4,0.3-0.3,0.5-0.3C14.1,6.5,14.1,6.6,14.1,6.9z
			"/>
		<path class="st80" d="M13.1,10c-0.2,0.4-0.5-0.1-0.7,0.1c-0.3-0.6-0.2-0.8,0.3-0.8C13.1,9.4,13.1,9.7,13.1,10z"/>
		<path class="st81" d="M15.3,3.3c0.4,0,0.8,0,1.3,0c0,0,0,0,0,0.1c0,0,0,0,0,0c-0.1,0-0.2,0.1-0.3,0.1c-0.2-0.1,0,0.1-0.1,0.1
			c0,0-0.1,0-0.1,0c-0.1,0-0.1,0-0.2,0.1c-0.1,0.1-0.2,0.1-0.4,0c0,0-0.1,0-0.1,0c0.1-0.1,0.3-0.1,0.4-0.2c-0.6-0.1-1.2,0-1.8,0
			c-0.7,0-1.4,0.1-2.1,0c0,0,0-0.1,0-0.1c0,0,0.1-0.1,0.1-0.1c1.1,0,2.1,0,3.2,0C15.2,3.3,15.3,3.3,15.3,3.3z"/>
		<path class="st82" d="M11.9,3.4c1.3,0,2.6,0,3.8,0c0,0,0,0,0,0c0,0,0,0.1,0,0.1c-1.1,0-2.3,0-3.4,0c-0.2,0-0.4-0.1-0.4,0.2
			c0,0.2-0.1,0.5,0.2,0.6c0,0,0,0.1-0.1,0.1c-0.1,0.1-0.1,0.1-0.2,0c0,0-0.1,0-0.1,0C11.9,4.1,11.7,3.8,11.9,3.4z"/>
		<path class="st83" d="M8,13.7c-0.2,0.5-0.8,0.3-1.1,0.5c-0.2,0.1-0.4,0.2-0.4,0.4c-0.2,0-0.4-0.1-0.4-0.4c0,0,0.1,0,0.1,0
			c0.1-0.1,0.3-0.1,0.4-0.2C7.1,14,7.6,13.9,8,13.7z"/>
		<path class="st84" d="M38.6,12.9C38.6,12.8,38.6,12.8,38.6,12.9c0.1-0.1,0.2-0.1,0.3,0c0,1.3,0,2.7,0,4c-0.3-0.1-0.2-0.3-0.2-0.5
			c0-0.9,0-1.8,0-2.7C38.7,13.4,38.7,13.2,38.6,12.9C38.6,12.9,38.6,12.9,38.6,12.9z"/>
		<path class="st85" d="M39.8,13.1c0,0.9,0,1.8,0,2.7c0,0.2,0,0.4,0.3,0.4c-0.1,0.1-0.2,0.1-0.3,0.1c-0.1,0-0.1,0-0.1-0.1
			c0-1.1-0.1-2.1,0-3.2C39.7,13.1,39.8,13.1,39.8,13.1z"/>
		<path class="st86" d="M39.2,16.1c-0.2-0.1-0.1-0.3-0.1-0.5c0-0.9,0.1-1.8-0.1-2.7c0.1,0,0.1,0.1,0.2,0.1
			C39.2,14,39.2,15,39.2,16.1z"/>
		<path class="st87" d="M39.7,13.1c0,1.1,0,2.2,0,3.2c0,0-0.1,0-0.1,0c0-1.1,0-2.2,0-3.3C39.6,13,39.7,13,39.7,13.1z"/>
		<path class="st88" d="M10.3,13.2c0,0,0-0.1,0-0.1c0,0,0.1-0.1,0.1-0.1c0,1.1,0,2.2,0,3.3c-0.1,0-0.1-0.1-0.1-0.2
			c0-0.9,0-1.7,0-2.6C10.2,13.5,10.2,13.4,10.3,13.2z"/>
		<path class="st89" d="M37.4,12.5c0.2-0.2,0.5-0.2,0.8-0.3c0.4,0.1,0.2,0.3,0.1,0.5c-0.1,0-0.1,0-0.2,0
			C37.9,12.6,37.7,12.5,37.4,12.5z"/>
		<path class="st90" d="M23.8,3c0.9,0,1.8,0,2.6,0c0,0,0,0.1,0,0.1c-0.8,0.1-1.6,0.1-2.3,0C24,3.1,23.9,3.1,23.8,3z"/>
		<path class="st91" d="M14.6,12.2c-0.6,0.3-1.3,0.3-2,0.4c0,0,0-0.1,0-0.1c0.1-0.1,0.3,0,0.4-0.1c0.2,0,0.4,0,0.5-0.1
			c0.1-0.2,0.3,0,0.5-0.1C14.2,12.2,14.4,12.2,14.6,12.2z"/>
		<path class="st92" d="M24.1,3.1c0.8,0,1.6,0,2.3,0C25.7,3.2,24.9,3.2,24.1,3.1z"/>
		<path class="st93" d="M44.1,7.5C44.1,7.5,44.2,7.5,44.1,7.5c0.1,0.7,0.1,1.5,0.1,2.2c0,0-0.1,0-0.1,0C44.1,9,44.1,8.2,44.1,7.5z"
			/>
		<ellipse class="st94" cx="24.9" cy="11" rx="1.5" ry="0"/>
		<path class="st95" d="M28.5,11.3c-0.6,0-1.2-0.1-1.9-0.1c0,0,0.1-0.1,0.1-0.1c0.6-0.1,1.2-0.1,1.8,0
			C28.6,11.1,28.6,11.2,28.5,11.3C28.6,11.2,28.6,11.3,28.5,11.3z"/>
		<path class="st96" d="M27.5,3c0.6,0,1.3,0,1.9,0c0,0,0.1,0,0.1,0.1c-0.7,0-1.4,0-2.2,0C27.3,3,27.4,3.1,27.5,3z"/>
		<path class="st97" d="M19.8,3.3c0.1,0,0.3,0,0.4,0l0,0c-0.6,0.1-1.2,0.2-1.8,0.2c0,0,0,0,0,0c0,0,0.1,0,0.1-0.1
			c0.1-0.1,0.3-0.1,0.5-0.2c0.1,0,0.2,0,0.3,0C19.4,3.3,19.6,3.2,19.8,3.3z"/>
		<path class="st98" d="M23.3,11.2c-0.4,0-0.9,0-1.3,0c-0.2,0-0.4,0.1-0.6,0c0,0,0.1-0.1,0.1-0.1C22.1,11,22.7,11,23.3,11.2
			C23.3,11.1,23.3,11.1,23.3,11.2z"/>
		<path class="st99" d="M23.3,11.1c-0.6,0-1.2,0-1.9,0C22.1,10.9,22.7,10.9,23.3,11.1z"/>
		<path class="st100" d="M28.5,11.1c-0.6,0-1.2,0-1.8,0C27.4,10.9,27.9,10.9,28.5,11.1z"/>
		<path class="st97" d="M20.2,3.3c0.3-0.2,0.7,0,1.1-0.1C20.9,3.5,20.6,3.5,20.2,3.3C20.2,3.3,20.2,3.3,20.2,3.3z"/>
		<path class="st101" d="M17,11.7c-0.1,0-0.1,0-0.2,0c0.2-0.3,0.8-0.4,1.3-0.2c-0.2,0.1-0.4,0-0.6,0.1C17.3,11.7,17.1,11.6,17,11.7
			L17,11.7z"/>
		<path class="st102" d="M21.2,3C21.2,3,21.2,3,21.2,3c0.1-0.2,0.1-0.1,0.2-0.1c0.5,0,1,0,1.5,0c0,0,0,0,0,0.1
			c-0.4,0.1-0.9,0-1.3,0.1C21.4,3.1,21.3,3.1,21.2,3z"/>
		<path class="st103" d="M21.5,3.1c0.4,0,0.9,0,1.3,0c0.1,0,0.1,0,0.2,0c0,0,0,0,0,0.1C22.5,3.1,22,3.1,21.5,3.1
			C21.4,3.1,21.4,3.1,21.5,3.1C21.5,3.1,21.5,3.1,21.5,3.1z"/>
		<path class="st102" d="M18,3.3c0.5-0.2,1-0.2,1.6-0.2c0,0,0,0,0,0.1c0,0,0,0.1-0.1,0.1c-0.1,0-0.2,0-0.4,0c-0.2,0-0.3,0-0.5,0.1
			c-0.1,0-0.2,0-0.3,0C18.3,3.3,18.2,3.3,18,3.3z"/>
		<path class="st101" d="M15.7,11.9c-0.1,0-0.3-0.1-0.1-0.1c0.3-0.1,0.7-0.3,1.1,0c-0.2,0.1-0.4,0-0.6,0.1
			C15.9,11.8,15.8,11.8,15.7,11.9z"/>
		<path class="st104" d="M28.5,11.3C28.6,11.2,28.6,11.2,28.5,11.3c0.4-0.1,0.8-0.1,1.2-0.1c0,0,0,0.1,0,0.1c-0.1,0-0.1,0-0.2,0
			C29.2,11.3,28.8,11.3,28.5,11.3z"/>
		<path class="st105" d="M20,11.4c-0.3,0-0.6,0-0.9,0.1c0,0-0.1,0-0.1-0.1c0.1-0.1,0.2-0.1,0.3-0.1c0.2-0.1,0.4-0.1,0.6,0
			C19.9,11.3,20,11.3,20,11.4z"/>
		<path class="st106" d="M17.8,3.5c-0.3,0.2-0.6,0.2-1,0.2c0.2-0.2,0.5,0,0.6-0.2C17.6,3.4,17.7,3.4,17.8,3.5z"/>
		<path class="st107" d="M43.1,14.1c-0.2,0-0.5,0.1-0.6-0.2C42.8,13.9,43,13.9,43.1,14.1z"/>
		<path class="st108" d="M12,4.4c0.1,0,0.1,0,0.2,0c0.1,0,0.2,0,0.1,0.2c-0.1,0.1-0.3,0.2-0.5,0.1C11.8,4.6,12,4.6,12,4.4z"/>
		<path class="st109" d="M35.4,3.9C35.7,4,36,4,36.3,4.1c-0.2,0.1-0.4,0-0.6,0.1c-0.2,0-0.3,0-0.5-0.1c0,0,0-0.1,0-0.1
			C35.3,3.9,35.3,3.9,35.4,3.9z"/>
		<path class="st110" d="M15.4,3.9c-0.3,0.2-0.6,0.3-1,0.1c0.2-0.1,0.3-0.1,0.5-0.2C15.1,3.8,15.2,3.9,15.4,3.9z"/>
		<path class="st111" d="M16.6,3.4C16.6,3.4,16.6,3.4,16.6,3.4c0.2-0.1,0.4-0.1,0.7-0.1c0,0,0.1,0.1,0.1,0.1c0,0,0,0.1-0.1,0.1
			c-0.2,0-0.3,0-0.5,0C16.7,3.5,16.6,3.5,16.6,3.4z"/>
		<path class="st112" d="M21.4,11.2c0.2,0,0.4,0,0.6,0c-0.4,0.1-0.8,0.1-1.2,0.1c0,0,0-0.1,0-0.1c0.1,0,0.3,0,0.4,0
			C21.2,11.2,21.3,11.2,21.4,11.2z"/>
		<path class="st113" d="M11.8,13.8c0-0.4,0-0.7,0-1.1c0,0,0.1,0,0.1,0C11.8,13,11.9,13.4,11.8,13.8z"/>
		<path class="st114" d="M35.2,4c0.2,0,0.4-0.1,0.5,0.1C35.3,4.3,35.2,4.3,35.2,4z"/>
		<path class="st115" d="M16.6,3.4c0.1,0,0.1,0,0.2,0.1c-0.1,0-0.2,0-0.3,0.1c-0.1,0.1-0.2,0.1-0.3,0c0-0.1-0.3-0.1,0-0.2
			C16.3,3.4,16.5,3.4,16.6,3.4z"/>
		<path class="st102" d="M19.6,3.1C19.6,3.1,19.6,3.1,19.6,3.1c0.4-0.1,0.7-0.1,1.1-0.1c0,0,0,0.1,0,0.1c-0.2,0-0.4,0-0.6,0
			C19.9,3.2,19.8,3.2,19.6,3.1L19.6,3.1z"/>
		<path class="st116" d="M10.6,4.8c0.1,0,0.3-0.1,0.4-0.1c-0.1,0.3-0.2,0.5-0.5,0.2C10.5,4.9,10.6,4.9,10.6,4.8z"/>
		<path class="st91" d="M15.5,12c-0.3,0.2-0.6,0.2-0.9,0.2c0,0,0-0.1,0-0.1c0.1-0.1,0.2-0.1,0.3,0C15.1,12,15.3,12,15.5,12z"/>
		<path class="st117" d="M21.2,11.2c-0.1,0-0.3,0-0.4,0c-0.2,0.1-0.4,0.1-0.6,0C20.5,11,20.8,11,21.2,11.2z"/>
		<path class="st118" d="M9.2,13.3C9.2,13.4,9.2,13.4,9.2,13.3c-0.2,0.1-0.3,0.2-0.5,0.3C8.8,13.3,9,13.3,9.2,13.3z"/>
		<path class="st63" d="M10,13.2c0,0.4-0.2,0.3-0.4,0.2C9.7,13.2,9.8,13.2,10,13.2z"/>
		<path class="st119" d="M29.8,3.3c-0.2,0.1-0.5,0.1-0.7,0C29.3,3.2,29.6,3.3,29.8,3.3z"/>
		<path class="st120" d="M20.7,3.1C20.7,3.1,20.7,3.1,20.7,3.1C20.9,3.1,21,3.1,21.2,3c0.1,0,0.2,0,0.3,0c0,0,0,0,0,0.1
			C21.2,3.1,20.9,3.1,20.7,3.1z"/>
		<path class="st121" d="M30.4,3.2c0.2-0.2,0.5-0.1,0.8-0.1c-0.2,0.1-0.4,0.1-0.6,0.1C30.5,3.2,30.4,3.2,30.4,3.2z"/>
		<path class="st122" d="M15.4,3.9c-0.2,0-0.3,0-0.5,0c-0.1,0.1-0.2,0.1-0.3,0c0,0,0.1-0.1,0.1-0.1c0.1-0.1,0.3-0.1,0.5,0
			C15.3,3.8,15.3,3.8,15.4,3.9z"/>
		<path class="st123" d="M30.1,11.2c0.3-0.1,0.5-0.1,0.8,0C30.6,11.3,30.4,11.3,30.1,11.2z"/>
		<path class="st124" d="M19,11.4C19.1,11.4,19.1,11.4,19,11.4c-0.1,0.1-0.2,0.1-0.4,0.1c-0.1,0-0.2,0.1-0.3,0c0,0,0-0.1,0-0.1
			C18.5,11.3,18.7,11.3,19,11.4C19,11.4,19,11.4,19,11.4z"/>
		<path class="st125" d="M32.1,11.4c0.2,0,0.4,0,0.6,0c0,0,0,0,0,0C32.4,11.5,32.3,11.5,32.1,11.4C32.1,11.4,32.1,11.4,32.1,11.4z"
			/>
		<path class="st126" d="M17.2,3.5C17.2,3.5,17.2,3.5,17.2,3.5c0.2-0.2,0.4-0.1,0.6-0.1c0,0,0.1,0,0.1,0.1c0,0-0.1,0-0.1,0
			c-0.1,0-0.3,0-0.4,0C17.4,3.5,17.3,3.5,17.2,3.5z"/>
		<path class="st107" d="M43.7,14.3c-0.2,0-0.4,0.1-0.5-0.2C43.4,14.1,43.6,14.2,43.7,14.3z"/>
		<path class="st127" d="M16,11.8c0.2-0.2,0.5-0.1,0.7-0.1c0,0,0.1,0,0.1,0c-0.1,0.2-0.3,0.1-0.5,0.1C16.2,11.8,16.1,11.9,16,11.8z"
			/>
		<path class="st128" d="M31.4,3.3c0.2,0.1,0.4-0.1,0.6,0.1c-0.3,0-0.5,0.1-0.8-0.1C31.2,3.3,31.3,3.3,31.4,3.3z"/>
		<path class="st129" d="M13.7,4.1C13.8,4,13.9,4,14,4c0.1,0,0.2,0,0.1,0.1c-0.1,0.2-0.2,0-0.3,0C13.8,4.2,13.7,4.2,13.7,4.1z"/>
		<path class="st130" d="M16,3.8C16,3.8,16,3.8,16,3.8C16.1,3.9,16.1,3.9,16,3.8c-0.1,0.1-0.3,0.2-0.5,0C15.7,3.8,15.8,3.8,16,3.8z"
			/>
		<path class="st131" d="M30.6,3.2c0.2,0,0.3-0.1,0.5,0.1C30.9,3.3,30.7,3.4,30.6,3.2C30.4,3.3,30.6,3.3,30.6,3.2z"/>
		<path class="st132" d="M10.6,4.8c0,0-0.1,0.1-0.1,0.1c-0.1,0-0.3,0-0.4,0.1C10.2,4.7,10.4,4.7,10.6,4.8z"/>
		<path class="st133" d="M34.2,3.7c0.1,0,0.2,0,0.4,0c-0.1,0.1-0.2,0.1-0.3,0.1C34.1,3.9,34.2,3.8,34.2,3.7z"/>
		<path class="st134" d="M18.9,11.4c-0.2,0-0.4,0-0.6,0C18.5,11.2,18.7,11.3,18.9,11.4z"/>
		<path class="st135" d="M17.5,11.6c0.2-0.2,0.4-0.1,0.6-0.1c0,0,0,0.1,0,0.1c-0.1,0-0.2,0-0.4,0C17.6,11.6,17.5,11.6,17.5,11.6z"/>
		<path class="st136" d="M16,11.8c0.1,0,0.2,0,0.3,0c-0.1,0.1-0.3,0.1-0.5,0.1c0,0-0.1,0-0.1,0C15.8,11.7,15.9,11.8,16,11.8z"/>
		<path class="st137" d="M34.3,11.9c-0.1,0-0.2,0-0.3,0c0.2-0.1,0.3-0.1,0.6,0C34.4,11.9,34.4,11.9,34.3,11.9z"/>
		<path class="st138" d="M20.2,11.2c0.2,0,0.4,0,0.6,0c0,0,0,0.1,0,0.1c0,0,0,0,0,0s0,0,0,0C20.5,11.2,20.3,11.3,20.2,11.2z"/>
		<path class="st139" d="M19.9,11.3c-0.2,0-0.4,0-0.6,0C19.5,11.1,19.7,11.1,19.9,11.3z"/>
		<path class="st140" d="M16.2,3.6c0.1,0,0.2,0,0.3,0c0,0,0.2,0,0.1,0.1C16.4,3.8,16.2,3.8,16.2,3.6C16.1,3.7,16.2,3.6,16.2,3.6z"/>
		<path class="st83" d="M8.6,13.6c-0.1,0.2-0.3,0.1-0.4,0.1C8.4,13.6,8.5,13.5,8.6,13.6z"/>
		<path class="st141" d="M10.8,13c-0.1,0-0.2,0-0.3,0c0.1-0.2,0.3-0.1,0.5-0.1C10.9,12.9,10.9,12.9,10.8,13z"/>
		<path class="st142" d="M17.8,3.4c-0.2,0-0.4,0-0.6,0c0,0,0-0.1,0-0.1C17.5,3.4,17.7,3.4,17.8,3.4C17.8,3.4,17.8,3.4,17.8,3.4z"/>
		<path class="st143" d="M14,12.2c-0.1,0.1-0.3,0.1-0.5,0.1C13.7,12,13.9,12.2,14,12.2z"/>
		<path class="st144" d="M38,4.5c0.2-0.2,0.3,0,0.5,0C38.3,4.7,38.2,4.6,38,4.5z"/>
		<path class="st145" d="M37.1,4.2c0.2,0,0.3,0,0.3,0.2C37.3,4.4,37.1,4.4,37.1,4.2C36.8,4.2,37,4.3,37.1,4.2z"/>
		<path class="st146" d="M19.2,3.3c0.1,0,0.2,0,0.4,0c0.1,0,0.1,0,0.2,0c0,0,0,0.1,0,0.1C19.6,3.3,19.4,3.3,19.2,3.3
			C19.2,3.3,19.2,3.3,19.2,3.3C19.2,3.3,19.2,3.3,19.2,3.3z"/>
		<path class="st147" d="M35.4,3.9c-0.1,0-0.2,0-0.2,0c-0.1-0.1-0.3,0.1-0.3-0.1C35.1,3.8,35.3,3.8,35.4,3.9z"/>
		<path class="st148" d="M14.6,3.9c0.1,0,0.2,0,0.3,0C14.8,4.1,14.6,4,14.4,4c0,0,0-0.1,0-0.1C14.5,3.9,14.5,3.9,14.6,3.9z"/>
		<path class="st149" d="M13.7,4.1c0,0,0.1,0,0.1,0c-0.2,0.1-0.3,0.1-0.5,0C13.5,4.1,13.6,4.1,13.7,4.1z"/>
		<path class="st150" d="M12.7,4.3c0.1-0.1,0.2-0.1,0.4-0.1C13,4.4,12.9,4.3,12.7,4.3z"/>
		<path class="st151" d="M39.5,4.8c0.1,0,0.3,0,0.4,0.1C39.8,4.9,39.6,5,39.5,4.8z"/>
		<path class="st152" d="M16,3.8c-0.2,0-0.3,0-0.5,0c0,0,0-0.1,0-0.1c0.1,0,0.2,0,0.4,0C15.9,3.8,15.9,3.8,16,3.8z"/>
		<path class="st81" d="M15.2,3.8c-0.2,0-0.3,0-0.5,0C14.9,3.7,15,3.7,15.2,3.8C15.2,3.8,15.2,3.8,15.2,3.8z"/>
		<path class="st153" d="M18.4,11.5c0.1,0,0.2,0,0.3,0c-0.2,0.1-0.3,0.1-0.5,0.1C18.2,11.5,18.3,11.5,18.4,11.5z"/>
		<path class="st154" d="M14.9,12c-0.1,0-0.2,0-0.3,0c0,0-0.1,0-0.1-0.1c0-0.1,0-0.1,0.1-0.1C14.7,12,14.8,12,14.9,12z"/>
		<path class="st155" d="M35.3,12c0.1,0,0.2-0.1,0.3,0.1c0,0-0.1,0-0.1,0.1C35.4,12.1,35.3,12.1,35.3,12C35.2,12,35.3,12,35.3,12z"
			/>
		<path class="st156" d="M18.4,3.3c0.1,0,0.2,0,0.3,0c0.1,0,0.2,0,0.2,0c-0.1,0.2-0.3,0.1-0.5,0.1C18.4,3.4,18.4,3.4,18.4,3.3z"/>
		<path class="st157" d="M13.1,12.4c-0.1,0.1-0.2,0.1-0.4,0.1C12.8,12.3,12.9,12.4,13.1,12.4z"/>
		<path class="st7" d="M6.6,14.1c-0.1,0.1-0.2,0.2-0.4,0.2C6.3,14.1,6.4,14.1,6.6,14.1z"/>
		<path class="st107" d="M43.9,14.5c0-0.1,0-0.1,0-0.2c0.1,0,0.1,0,0.2,0c0,0.1,0.1,0.1,0.1,0.2C44.1,14.5,44,14.5,43.9,14.5z"/>
		<path class="st97" d="M19.8,3.3c-0.1,0-0.1,0-0.2,0c0,0,0-0.1,0-0.1c0.2,0,0.3,0,0.5,0C20,3.3,19.9,3.2,19.8,3.3z"/>
		<path class="st73" d="M29.4,3.1C29.4,3.1,29.4,3.1,29.4,3.1c0.1-0.1,0.3-0.1,0.4,0C29.7,3.1,29.6,3.1,29.4,3.1z"/>
		<path class="st158" d="M31.3,40.4c0.1,0,0.3,0,0.4,0c-0.2,0.3-0.1,0.8-0.6,1c0,0-0.1-0.1-0.1-0.1C31.1,41,31.2,40.7,31.3,40.4z"/>
		<path class="st159" d="M40.8,38.8c0.3,0.1-0.1,0.3,0.1,0.5c-0.3,0.1-0.1-0.4-0.4-0.2c-0.1,0.1-0.3,0.2,0.1,0.2c0.1,0,0,0.2,0,0.2
			c-0.1,0.1-0.2,0.1-0.4,0.2c0,0-0.1,0-0.1,0.1c-0.1,0-0.1,0.1-0.2,0.1c0,0.1-0.1,0.1-0.2,0.2c0,0-0.1,0.1-0.1,0.1
			c0,0.1,0,0.2-0.1,0.2c-0.1,0.1-0.3,0.1-0.5,0.1c-0.1,0-0.2,0-0.3-0.1c-0.2,0-0.4-0.1-0.6,0.1c-0.1,0.1-0.3,0.2-0.4,0.3
			c-0.2,0.1-0.4,0.1-0.6,0c-0.1,0-0.2-0.1-0.2-0.1c-0.2-0.2-0.4-0.1-0.7,0c-0.3,0.1-0.5,0.4-0.9,0.1c0-0.1,0-0.1-0.1-0.2
			c-0.1,0-0.2-0.1-0.4-0.1c-0.2-0.2-0.4-0.1-0.6,0c-0.1,0-0.1,0-0.2,0.1c-0.1,0-0.3,0-0.4-0.1c-0.1-0.2-0.2-0.3-0.3-0.5
			c-0.2-0.3-0.2-0.5,0.2-0.7c0.1,0,0.2,0,0.3,0c0.9,0.5,1.9,0.5,2.9,0.6c0.4,0,0.8-0.1,1.2-0.2c0.3,0,0.6-0.1,0.8-0.2
			c0,0,0.1,0,0.1,0c0.4-0.1,0.8-0.3,1.1-0.5C40.3,38.9,40.5,38.8,40.8,38.8z"/>
		<path class="st160" d="M31.5,39.9c0,0,0-0.1,0-0.1c0.2-0.5,0.2-0.7-0.4-0.9c-0.5-0.1-0.7-0.4-0.7-0.9c-0.1-0.1-0.1-0.2-0.2-0.3
			c-0.1-0.1-0.3-0.3-0.5-0.3c-0.2-0.1-0.3-0.3-0.3-0.6c0-0.2,0.1-0.4,0-0.7c-0.1-0.1-0.2-0.2-0.3-0.3c-0.1-0.1-0.2-0.2-0.3-0.3
			c0-0.1,0-0.2,0-0.3c0.3-0.5,0.2-0.9-0.1-1.4c-0.2-0.2,0-0.4,0.1-0.6c0.3-0.3,0.3-0.7,0.1-1.1c-0.2-0.4,0-0.6,0.3-0.8
			c0.2,0.1,0.1,0.4,0.3,0.5c0.2,0.4,0.1,0.7-0.1,1.1c-0.2,0.2-0.2,0.4,0,0.7c0.2,0.3,0.3,0.7,0.2,1c-0.2,0.4,0,0.7,0.3,0.9
			c0.1,0.1,0.2,0.2,0.2,0.3c0.1,0.1,0.1,0.2,0.1,0.3c0,0.2-0.2,0.4-0.1,0.6c0.1,0.1,0.1,0.2,0.2,0.2c0.2,0.2,0.4,0.3,0.6,0.4
			c0,0.1,0.1,0.1,0.1,0.2c0,0.4,0.2,0.6,0.3,0.9c0,0.1,0,0.1,0.3,0c0.5,0.1,0.6,0.3,0.7,0.8c-0.1,0.1-0.1,0.3-0.2,0.4
			c-0.1,0-0.1,0.1-0.2,0.1C31.7,40,31.6,40,31.5,39.9z"/>
		<path class="st161" d="M32.1,39.4c0-0.4-0.2-0.8-0.7-0.8c-0.1,0-0.1,0-0.2,0c-0.2-0.3-0.5-0.6-0.4-1c0-0.1,0.1-0.1,0-0.2
			c-0.3,0-0.5-0.1-0.6-0.4c-0.1-0.1-0.1-0.2-0.2-0.2c-0.4-0.2,0.1-0.4,0-0.6c0.2-0.1,0-0.4,0.2-0.4c0.2,0,0.2,0.1,0.3,0.3
			c0.1,0.4,0.3,0.7,0.6,1c0.4,0.3,0.7,0.7,1,1c0.4,0.3,0.7,0.7,1.2,0.9c0.1,0.1,0.3,0.1,0.3,0.3c-0.1,0.2-0.1,0.4-0.1,0.6
			c-0.1,0-0.1,0-0.2,0c-0.1,0-0.1-0.1-0.1-0.1c-0.3-0.2-0.6,0-0.9-0.2c-0.1,0-0.1-0.1-0.2-0.1C32.1,39.6,32.1,39.5,32.1,39.4z"/>
		<path class="st162" d="M37.8,40.9c0.1-0.1,0.2-0.2,0.4-0.3c0.2-0.1,0.5,0,0.7-0.1c0.1,0,0.1,0,0.2,0.1c0.2,0.2,0.3,0,0.5-0.1
			c0-0.1,0.1-0.1,0.1-0.2c0.2,0.4,0.1,0.5-0.4,0.6c-0.4,0-0.8-0.1-1.1,0.2c-0.5,0.4-1.1,0.2-1.6-0.1c-0.2,0.1-0.4,0.2-0.6,0.2
			c-0.2,0-0.5,0.2-0.6-0.2c0.3,0.2,0.6-0.1,0.8-0.2c0.2-0.1,0.5-0.1,0.7,0c0.1,0,0.1,0.1,0.2,0.1C37.4,41.1,37.6,41.1,37.8,40.9z"/>
		<path class="st163" d="M34.3,40.5c0,0,0.1,0,0.1,0c0.2,0.1,0.5,0,0.7,0.1c0.1,0.1,0.2,0.1,0.3,0.2c-0.3,0-0.7,0-1,0
			c0,0-0.1-0.1-0.1-0.1C34.3,40.6,34.3,40.6,34.3,40.5z"/>
		<path class="st164" d="M34.3,40.7C34.3,40.7,34.4,40.7,34.3,40.7c-0.1,0.2,0.4,0.2,0.1,0.3c-0.1,0-0.3-0.1-0.6-0.3
			C34,40.6,34.1,40.6,34.3,40.7z"/>
		<path class="st165" d="M31.5,39.9c0.1,0,0.2,0,0.3,0c0,0.1,0,0.3-0.1,0.4c-0.1,0-0.2,0-0.3-0.1c-0.1-0.1-0.1-0.1,0-0.2
			C31.4,40,31.4,39.9,31.5,39.9z"/>
		<path class="st166" d="M32.4,39.7c0.3-0.1,0.7-0.3,1,0.1c0,0-0.1,0-0.1,0c-0.2,0-0.5,0-0.7,0C32.4,39.8,32.4,39.8,32.4,39.7
			C32.4,39.7,32.4,39.7,32.4,39.7z"/>
		<path class="st167" d="M33.2,39.8C33.3,39.8,33.3,39.8,33.2,39.8c0.1,0.1,0.1,0.1,0.1,0.2c-0.3-0.2-0.7,0.1-1-0.2c0,0,0.1,0,0.1,0
			C32.7,39.7,33,39.7,33.2,39.8z"/>
		<path class="st168" d="M32.1,39.4c0.1,0,0.1,0.1,0.1,0.2c-0.1,0.1-0.1,0.2-0.2,0.2C31.9,39.6,31.9,39.5,32.1,39.4z"/>
		<path class="st169" d="M34.3,40.7c-0.2,0-0.3,0-0.5,0c0,0,0-0.1,0-0.1c0.2,0,0.3,0,0.5,0C34.3,40.6,34.3,40.6,34.3,40.7z"/>
		<path class="st27" d="M43.5,45.6c0,0.1,0,0.2-0.1,0.2c-0.1,0-0.1-0.1-0.1-0.1C43.4,45.5,43.5,45.6,43.5,45.6
			C43.5,45.6,43.5,45.6,43.5,45.6z"/>
		<path class="st170" d="M10.3,13.2c0,1,0,2,0,3c-0.1,0.1-0.2,0.1-0.3,0c0,0,0,0,0,0c0,0,0-0.1,0-0.1c0.2,0,0.2-0.2,0.2-0.3
			c0-0.8,0.1-1.5-0.1-2.3C10.1,13.5,10.1,13.3,10.3,13.2z"/>
		<path class="st171" d="M2.2,10.1c0.5-0.2,1,0,1.6-0.1C3.2,10.2,2.7,10.1,2.2,10.1z"/>
		<path class="st172" d="M3.7,14.3c-0.2,0-0.4,0-0.4-0.3c0-0.2,0.2,0,0.3,0C3.8,14,3.6,14.3,3.7,14.3z"/>
		<path class="st173" d="M41.3,15.7c0.5-0.2,1-0.5,1.5-0.6c0.2,0.1,0.4,0,0.6-0.1c0.1-0.1,0-0.1,0-0.2c0-0.1,0.1-0.2,0.2-0.1
			c0.1,0.1,0.3,0.2,0.4,0.2c-0.3,0.1-0.4,0.2-0.2,0.6c0.1,0.1,0,0.4,0,0.6c-0.5,0.2-1,0.2-1.4-0.1c-0.2-0.1-0.4-0.2-0.7-0.1
			C41.4,16,41.3,15.9,41.3,15.7z"/>
		<path class="st174" d="M41.3,15.7c0.1,0.1,0.2,0.2,0.3,0.1c0.3-0.3,0.5-0.1,0.7,0.1c0.4,0.3,1,0.2,1.4,0.2
			c0.1,0.2,0.3,0.1,0.5,0.1c0.9,0,1.8,0,2.7,0.1c-0.5,0-1,0-1.5,0c-1.5,0-3,0-4.5,0c-0.2,0-0.4,0.1-0.5-0.2
			C40.7,15.8,41,15.8,41.3,15.7z"/>
		<path class="st175" d="M48,16.6c0.1,0.1,0.1,0.1,0,0.2c-0.1,0-0.2,0-0.3,0c-2.7,0-5.4,0-8,0c0,0,0,0,0-0.1c0,0,0,0,0,0
			c0.1,0,0.2,0,0.3,0c0.2-0.1,0.3-0.1,0.5,0c0,0,0.1,0,0.1,0c0.6-0.1,1.3-0.1,1.9-0.1C44.4,16.6,46.2,16.6,48,16.6z"/>
		<path class="st176" d="M48,16.6c-0.1,0.1-0.2,0.1-0.4,0.1c-2.4,0-4.7,0-7.1,0c0.5-0.2,1,0,1.6-0.1c0.2-0.1,0.4,0,0.6,0
			c1.5,0,3,0,4.5,0c0.2,0,0.4,0,0.6-0.1c0,0,0.1,0,0.1,0C48,16.5,48,16.5,48,16.6z"/>
		<path class="st177" d="M47.9,16.5c-0.1,0.2-0.3,0.1-0.5,0.1c-1.8,0-3.5,0-5.3,0c0.1,0,0.1-0.1,0.2-0.1
			C44.2,16.5,46.1,16.5,47.9,16.5z"/>
		<path class="st107" d="M43.5,14.7c-0.1,0-0.2,0.1-0.2,0.2c0,0-0.1,0.1-0.1,0.1c-0.1,0-0.2,0-0.3-0.1c0-0.1,0-0.2,0-0.3
			c0-0.1,0.1-0.2,0.1-0.2c0.3,0.4,0.6-0.3,0.9,0C43.8,14.6,43.7,14.7,43.5,14.7z"/>
		<path class="st178" d="M47,14.4c0,0.2,0.1,0.3,0.1,0.5C46.9,14.8,46.9,14.6,47,14.4z"/>
		<path class="st179" d="M39.7,16.7C39.7,16.7,39.7,16.7,39.7,16.7c-0.2,0-0.1-0.2-0.1-0.4c0,0,0.1,0,0.1,0c0,0,0.1,0,0.1,0
			C39.7,16.4,39.7,16.5,39.7,16.7z"/>
		<path class="st176" d="M40.5,16.7c-0.2,0-0.3,0-0.5,0C40.2,16.5,40.3,16.5,40.5,16.7z"/>
		<path class="st180" d="M39.2,27.2c1.2,0.6,2.2,1.4,3,2.5c0.2,0.3,0.4,0.7,0.6,1c0.4,0.8,0.5,1.6,0.6,2.4c0.1,0.9-0.1,1.8-0.5,2.7
			c-0.1,0.1-0.2,0.3-0.4,0.2c-0.2-0.1-0.1-0.3-0.1-0.5c0-0.2,0.1-0.3,0.2-0.5c0.3-0.3,0.2-0.7,0.1-1c-0.1-0.2,0-0.5-0.1-0.7
			c-0.1-0.3,0-0.6-0.1-0.9c-0.1-0.7-0.4-1.5-0.8-2.1c-0.3-0.5-0.7-0.9-1.1-1.3c-0.7-0.6-1.5-1-2.4-1.3c-0.8-0.2-1.6-0.2-2.5-0.1
			c-0.6,0-1.1,0.3-1.7,0.4c-0.1,0-0.2,0-0.3,0.1c-0.2,0-0.4,0.2-0.5,0c-0.1-0.2,0-0.3,0.1-0.5c0.1-0.1,0.2-0.2,0.3-0.3
			c1.4-0.6,2.8-0.8,4.3-0.6c0.1,0,0.2,0.1,0.4,0.1c0.1,0.1,0.3,0.2,0.4,0.2c0.1,0,0.1,0,0.2,0C39.1,27,39.1,27.1,39.2,27.2z"/>
		<path class="st181" d="M42.7,33.3c0.1,0.6,0.4,1.1,0,1.7c-0.2,0.2-0.2,0.5-0.2,0.9c0.2,0.1,0.3-0.2,0.5-0.1c0,0.1,0,0.2,0,0.3
			c-0.3,0.3-0.4,0.6-0.6,1c-0.1,0.4-0.4,0.5-0.6,0.8c-0.4,0.3-0.7,0.6-1,1c-0.5,0.2-1,0.5-1.4,0.7c-0.1,0.1-0.2,0.1-0.4,0.1
			c-0.1-0.3-0.2-0.1-0.4-0.1c-1.4,0.3-2.9,0.4-4.3-0.3c-0.1-0.1-0.5-0.1-0.1-0.4c0.3-0.1,0.5,0.1,0.7,0.2c0.2,0.1,0.5,0.2,0.8,0.2
			c0.2,0,0.3,0,0.5,0c0.5,0,1,0.1,1.6,0c1.2-0.2,2.1-0.8,3-1.5c0.2-0.1,0.3-0.3,0.5-0.5c0.2-0.3,0.3-0.7,0.6-0.9
			c0.3-0.4,0.4-0.8,0.5-1.2c0.2-0.4,0.3-0.9,0.3-1.4C42.6,33.7,42.6,33.5,42.7,33.3z"/>
		<path class="st182" d="M38.1,26.8c-1.2-0.2-2.4-0.1-3.6,0.3c-0.3,0.1-0.5,0.2-0.8,0.3c-0.3-0.1-0.3-0.3-0.2-0.5c0,0,0-0.1,0-0.1
			c0.3,0,0.3-0.3,0.4-0.5c0.2-0.1,0.4,0,0.6,0c0.2,0.1,0.4,0.2,0.6,0c0,0,0,0,0-0.1c0.1-0.1,0.2-0.2,0.4-0.3l0,0
			c0.1-0.1,0.3-0.1,0.4-0.1c0.3,0.3,0.7,0.6,1.1,0.3l0,0c0.1-0.1,0.3-0.1,0.4-0.2c0.2-0.1,0.3,0,0.4,0.1c0,0.4,0.4,0.3,0.6,0.4
			c0.1,0.3,0.2,0.3,0.5,0.2c0.3-0.1,0.3,0,0.3,0.2c0,0.1,0,0.2,0,0.3c-0.1,0-0.2,0-0.2-0.1c-0.1,0-0.1-0.2-0.2,0
			c-0.2,0-0.3,0-0.4-0.2C38.3,26.8,38.3,26.6,38.1,26.8z"/>
		<path class="st5" d="M41.1,5.5C41.1,5.5,41.1,5.6,41.1,5.5c-0.1,0.1-0.2,0-0.2,0C40.9,5.5,41,5.4,41.1,5.5
			C41.1,5.4,41.1,5.4,41.1,5.5z"/>
		<path class="st183" d="M10,16.3c0.1,0,0.2,0,0.3,0c0,0,0.1,0.1,0.1,0.1c0,0.1,0,0.1,0,0.2c-0.1,0-0.1,0.1-0.2,0.1
			c-0.2-0.1-0.4,0-0.5,0c-2.2,0-4.3,0-6.5,0c-0.2,0-0.4,0-0.5,0c0.2-0.2,0.5-0.2,0.8-0.2c1,0.2,2,0.1,3.1,0.1c1,0,2,0,3,0
			C9.7,16.5,10,16.6,10,16.3z"/>
		<path class="st184" d="M2.7,16.6c2.3,0,4.7,0,7,0c0.2,0,0.4-0.1,0.5,0.1c-2.6,0-5.1,0-7.7,0c-0.1,0-0.3,0-0.4-0.1
			C2.3,16.5,2.4,16.5,2.7,16.6C2.6,16.6,2.6,16.6,2.7,16.6z"/>
		<path class="st183" d="M2.6,16.6c-0.1,0-0.3,0-0.4,0c0,0,0-0.1,0-0.1C2.4,16.2,2.4,16.5,2.6,16.6z"/>
		<path class="st185" d="M39.8,40.2c0-0.1,0.1-0.2,0.1-0.3c0.3-0.1,0.7-0.1,1-0.2c0.1,0,0.1,0,0.2-0.1c0,0,0.1,0,0.1,0
			c0,0.6,0,0.6-0.6,0.6C40.3,40.1,40.1,40.3,39.8,40.2z"/>
		<path class="st186" d="M41.8,37.8c0.1-0.4,0.4-0.5,0.6-0.8c0,0.2,0.2,0.3,0.1,0.5c0,0,0,0,0,0c0,0,0,0,0,0
			C42.2,37.5,42.2,37.5,41.8,37.8z"/>
		<path class="st187" d="M41.1,39.6c0,0-0.1,0.1-0.1,0.1c0,0-0.1,0.1-0.1,0.1c-0.2,0-0.5,0.1-0.7-0.1c0.1-0.2,0.3-0.1,0.5-0.1
			C40.7,39.6,40.9,39.6,41.1,39.6z"/>
		<path class="st188" d="M38.5,26.4c0-4.4,0-8.7,0-13.1c0-0.2-0.1-0.3,0.1-0.5c0,0,0,0,0,0c0.1,0.2,0.1,0.5,0.1,0.7
			c0.1,4,0,8.1,0.1,12.1c0,0.2-0.1,0.4,0.2,0.6c0,0,0,0,0,0C38.8,26.4,38.7,26.4,38.5,26.4z"/>
		<path class="st189" d="M39.2,26.3c0.1,0,0.1,0,0.2,0c-0.1,0.4-0.3,0-0.4,0c0,0,0,0,0,0C39.1,26.2,39.1,26.2,39.2,26.3z"/>
		<path class="st190" d="M21.4,2.9c-0.1,0-0.1,0-0.2,0c-1,0-2,0-2.9,0c0.6-0.2,1.1-0.1,1.7-0.1C20.4,2.9,20.9,2.8,21.4,2.9z"/>
		<path class="st191" d="M31.7,15.5c-0.1,0.2-0.3,0.1-0.4,0.1c-4.2,0-8.3,0-12.5,0c-0.5,0-0.6-0.2-0.6-0.6c0-0.9-0.1-0.8,0.8-0.8
			c4,0,8.1,0,12.1,0c0.2,0,0.4-0.1,0.6,0.1c-0.3,0.2-0.5,0.4-0.4,0.8c0,0.2-0.1,0.3-0.3,0.3c-0.6,0-1.2,0-1.8,0c0.6,0,1.1,0,1.7,0
			c0.1,0,0.2,0,0.3,0C31.5,15.2,31.6,15.4,31.7,15.5z"/>
		<path class="st192" d="M32,20.2c-6,0-12,0-17.9,0c-0.3,0-0.5,0-0.5-0.4c0-0.4,0.1-0.5,0.5-0.5c7.1,0,14.3,0,21.4,0
			c0.2,0,0.3,0,0.5,0.1c-0.2,0.2-0.4,0.1-0.6,0.1c-0.9,0-1.8,0-2.7,0c-5.7-0.2-11.5,0-17.2-0.1c-0.1,0-0.3,0-0.3,0c0,0,0.1,0,0.2,0
			c5.5,0,10.9,0,16.4,0c0.1,0,0.2,0,0.2,0C32.2,19.7,32.1,20,32,20.2z"/>
		<path class="st192" d="M20.7,27.2c-2.2,0-4.4,0-6.7,0c-0.3,0-0.5,0-0.5-0.5c0-0.4,0.2-0.4,0.5-0.4c4.5,0,8.9,0,13.4,0
			c0.3,0,0.5,0,0.5,0.4c0,0.4-0.2,0.5-0.5,0.5C25.2,27.2,22.9,27.2,20.7,27.2z"/>
		<path class="st192" d="M36.5,17.7c0,0.2,0,0.3-0.2,0.3c-0.1,0-0.2,0-0.3,0c-7.3,0-14.5,0-21.8,0c-0.3,0-0.6,0.1-0.6-0.4
			c0-0.4,0.1-0.5,0.5-0.5c6,0,12,0,18,0c0,0.2-0.1,0.2-0.3,0.2c-0.1,0-0.3,0-0.4,0c-5.6,0-11.2,0-16.8,0c-0.1,0-0.2,0-0.3,0
			c0.2,0.1,0.4,0,0.6,0c5.4,0,10.9,0,16.3,0c0.4,0,0.7-0.1,1,0.3c0.1,0.1,0.3,0.1,0.5,0.1c0.9,0,1.8,0,2.7,0c0.2,0,0.3,0,0.5-0.1
			C36.1,17.4,36.3,17.5,36.5,17.7z"/>
		<path class="st192" d="M13.6,28.6c4.6,0,9.2,0,13.8,0c0.3,0,0.5,0,0.5,0.4c0,0.4-0.2,0.5-0.5,0.5c-4.5,0-9,0-13.5,0
			c-0.1,0-0.3,0-0.4-0.1c0.1-0.1,0.1-0.1,0.2-0.1c4.5,0,8.9,0,13.4,0c0.1,0,0.3,0,0.3,0.1c-0.1-0.1-0.3-0.1-0.4-0.1
			c-4.3,0-8.5,0-12.8,0C13.6,29.4,13.6,29.4,13.6,28.6z"/>
		<path class="st192" d="M27.8,31c0.1,0.3,0.2,0.5,0,0.8c-0.2-0.1-0.4,0-0.5,0c-4.4,0-8.8,0-13.2,0c-0.2,0-0.4,0-0.5,0
			c0-0.2,0-0.4,0-0.6c0.2-0.1,0.4-0.1,0.6-0.1c4.2,0,8.5,0,12.7,0C27.1,31,27.5,31.1,27.8,31z"/>
		<path class="st192" d="M13.7,33.2c4.6,0,9.2,0,13.7,0c0.4,0,0.5,0.1,0.5,0.5c0,0.4-0.1,0.4-0.5,0.4c-2.2,0-4.3,0-6.5,0
			c-0.3,0.2-0.5,0.2-0.8,0c-0.1,0-0.3,0-0.4,0c-0.2-0.6,0.4-0.4,0.6-0.6c-1.9,0-3.9,0-5.9,0C14.2,33.5,13.9,33.6,13.7,33.2z"/>
		<path class="st192" d="M13.5,21.8c0.1-0.1,0.3-0.1,0.4-0.1c6,0,12,0,18,0c0.1,0.2,0.3,0.1,0.5,0.1c0.7,0,1.4,0,2.1,0
			c0.2,0,0.5-0.1,0.5,0.3c-0.2,0.1-0.4,0.1-0.6,0.1c-6.3,0-12.7,0-19,0c-0.2,0-0.5,0.1-0.7-0.2c0.3-0.2,0.7,0,0.9-0.1
			c-0.4,0-0.8,0-1.2,0.1C14.1,22.1,13.8,22,13.5,21.8z"/>
		<path class="st192" d="M36.5,17.7C36.4,17.7,36.4,17.7,36.5,17.7c-0.4-0.2-0.5,0.2-0.7,0.2c-0.3,0-0.7,0-1,0c-0.3,0-0.7,0-1,0
			c-0.4,0-0.8,0-1.3,0c-0.2,0-0.5,0.1-0.6-0.3c0-0.1-0.3-0.1-0.4-0.1c-3.4,0-6.8,0-10.1,0c-2.4,0-4.8,0-7.2,0
			c-0.3,0-0.2-0.2-0.5-0.3c0.3,0,0.5,0,0.7,0c5.7,0,11.4,0,17,0c0.2,0,0.4,0.1,0.6-0.1c1.3,0,2.6,0,3.9,0
			C36.4,17,36.5,17.2,36.5,17.7z"/>
		<path class="st193" d="M31.1,37.2c-0.3-0.3-0.6-0.7-0.7-1.2c0-0.1-0.1-0.2-0.2-0.2c-0.1,0.1-0.1,0.1-0.2,0
			c-0.3-0.1-0.4-0.4-0.6-0.6c-0.1-0.1-0.2-0.2-0.1-0.3c0.3-0.5,0.2-0.9-0.1-1.3c-0.1-0.2-0.2-0.4,0-0.6c0.3-0.3,0.3-0.7,0.2-1.1
			c-0.1-0.2-0.1-0.4,0-0.6c0-0.1,0.1-0.1,0.1-0.2c0.3-0.3,0.4-0.6,0.3-1c0-0.1,0-0.3,0.1-0.4c0.1-0.1,0.2-0.2,0.3-0.2
			c0.2,0,0.4-0.1,0.4-0.3c0-0.3,0-0.5,0.2-0.7c0.1-0.2,0.3-0.3,0.5-0.2c0.2,0.1,0.4,0,0.6,0c0.2,0,0.3-0.2,0.5-0.1
			c0.1,0.2-0.1,0.3-0.2,0.4c-0.6,0.6-1.2,1.3-1.5,2.1c-0.9,2-0.8,4,0.2,6C31.1,36.8,31.2,37,31.1,37.2z"/>
		<path class="st192" d="M13.7,33.2c0.1,0.2,0.3,0.1,0.5,0.1c2,0,4,0,6.1,0c0.1,0,0.2,0,0.2,0c0.1,0,0.4-0.1,0.4,0.1
			c0,0.2-0.2,0.2-0.3,0.2c-0.3,0-0.4,0.1-0.6,0.2c-0.1,0.1-0.1,0.2-0.1,0.3c-2,0-3.9,0-5.9,0c-0.1,0-0.4,0.1-0.4-0.2
			C13.5,33.7,13.4,33.4,13.7,33.2z"/>
		<path class="st192" d="M35.1,22.1c-0.2-0.2-0.4-0.1-0.7-0.1c-0.7,0-1.4,0-2.1,0c-0.2,0-0.4,0-0.4-0.3c1.4,0,2.7,0,4.1,0
			c0.3,0,0.5,0.1,0.5,0.4c0,0.3-0.1,0.5-0.4,0.5c-7.4,0-14.7,0-22.1,0c-0.6,0-0.4-0.4-0.4-0.7c0.1-0.1,0.2,0,0.3,0.1
			c0.1,0.4,0.3,0.3,0.6,0.3c4.2,0,8.5,0,12.7,0c3,0,5.9,0.1,8.8,0.1c0.1,0,0.2,0.1,0.2,0c0.1,0,0-0.1,0,0c-1.4,0.1-2.8,0-4.1,0
			c-0.1-0.1-0.1-0.2,0-0.2c0.9-0.1,1.7,0,2.6,0C34.7,22.1,34.9,22.2,35.1,22.1z"/>
		<path class="st192" d="M32,22.4c1.4,0,2.9,0,4.4,0c-0.2,0.1-0.4,0.1-0.6,0.1c-7.2,0-14.3,0-21.5,0c-0.4,0-0.6-0.1-0.6-0.5
			c0-0.1-0.1-0.1-0.1-0.1c0,0,0-0.1,0-0.1c0.9,0.2,1.7,0.1,2.6,0.2c-0.4,0-0.9,0-1.3,0c0,0,0,0.1,0,0.1c6.8,0,13.5,0,20.3,0
			c-0.1,0.2-0.3,0.1-0.5,0.1c-0.9,0-1.8,0-2.6,0c-0.2,0.2-0.4,0.1-0.7,0.1c-5.3,0-10.6,0-15.9,0c-0.4,0-0.8,0.1-1.1,0.1
			c0.9-0.1,1.9,0,2.9,0c4.7,0,9.4,0,14.1,0C31.5,22.3,31.8,22.2,32,22.4z"/>
		<path class="st194" d="M36.4,24.8c-7.4,0-14.9,0-22.3,0c-0.3,0-0.5,0.1-0.5-0.4c0-0.4,0.2-0.4,0.5-0.4c7.3,0,14.6,0,21.8,0
			c-0.1,0.3-0.4,0.2-0.6,0.2c-1.1,0-2.2,0-3.4,0c-1.5,0-3,0-4.5,0c-4.3,0-8.5,0-12.8,0c-0.2,0-0.5,0-0.8,0.1
			c0.3,0.2,0.5,0.1,0.7,0.1c5.6,0,11.1,0,16.7,0c0.2,0,0.5,0,0.7,0c1.3,0,2.6,0,3.8,0C36.1,24.5,36.3,24.5,36.4,24.8z"/>
		<path class="st192" d="M32,20.2c0-0.2,0-0.5,0-0.7c1-0.1,1.9,0,2.9,0c0.5,0,1,0.1,1.5-0.1c0.2,0.7,0.2,0.8-0.5,0.8
			C34.6,20.2,33.3,20.2,32,20.2z"/>
		<path class="st192" d="M32,24.1c1.1,0,2.3,0,3.4,0c0.2,0,0.4,0.1,0.5-0.1c0.7,0,0.7,0.1,0.5,0.8c-0.1-0.1-0.3-0.1-0.4-0.1
			c-1.3,0.1-2.6,0-3.9,0C31.9,24.5,31.8,24.4,32,24.1z"/>
		<path class="st195" d="M36.4,19.4c-0.1,0.2-0.3,0.1-0.5,0.1c-1.3,0-2.6,0-3.9,0c-5.7,0-11.4,0-17.1,0c0,0,0-0.1,0-0.1
			c7,0,14,0,21.1,0C36,19.4,36.2,19.4,36.4,19.4z"/>
		<path class="st196" d="M32.4,28.1c-0.3,0.2-0.7,0.1-1,0.3c0,0-0.3,0.1,0-0.1c0.1,0,0-0.1,0-0.1c0.1-0.1,0.2-0.1,0.2-0.2
			c0.2-0.1,0.3-0.2,0.3-0.4c0.1-0.1,0.2-0.2,0.2-0.3c0.1-0.2,0.3-0.3,0.6-0.3c0.3,0,0.6,0,0.8-0.2c0.1,0.2,0.1,0.4,0.2,0.5
			c-0.1,0.1-0.1,0.1-0.2,0.2C33.2,27.8,32.9,28.1,32.4,28.1z"/>
		<path class="st192" d="M13.6,28.6c0,0.1,0.1,0.2,0.1,0.4c-0.1,0.2,0.1,0.3,0.3,0.3c0.1,0,0.3,0,0.4,0c4.2,0,8.5,0,12.7,0
			c0.2,0,0.3-0.1,0.6,0.1c-4.8,0-9.4,0-14.1,0C13.6,29.2,13.4,28.9,13.6,28.6z"/>
		<path class="st192" d="M13.5,31.7c4.6,0,9.2,0,13.7,0c0.2,0,0.4-0.1,0.6,0.1c-4.6,0-9.3,0-13.9,0C13.8,31.8,13.6,31.8,13.5,31.7z"
			/>
		<path class="st192" d="M27.8,31c-0.2,0.2-0.4,0.1-0.6,0.1c-4.6,0-9.2,0-13.7,0c0,0,0-0.1,0-0.1c0.1-0.1,0.3,0,0.4,0
			c4.3,0,8.6,0,12.9,0c0.1,0,0.3,0,0.4,0C27.5,31,27.6,31,27.8,31z"/>
		<path class="st197" d="M27.3,31c-4.6,0-9.1,0-13.7,0c0.1-0.2,0.3-0.1,0.5-0.1c4.2,0,8.5,0,12.7,0C26.9,30.9,27.1,30.8,27.3,31z"/>
		<path class="st198" d="M25.3,37.6c-0.1,0.2-0.3,0.1-0.5,0.1c-1.6,0-3.3,0-4.9,0c-0.2,0-0.4,0-0.5,0.1c0,0,0,0,0,0s0,0,0,0
			c0-0.1-0.1-0.1-0.1-0.2c0.1-0.1,0.2-0.1,0.2-0.1c1.7-0.2,3.5-0.1,5.3-0.1C24.9,37.4,25.1,37.5,25.3,37.6z"/>
		<path class="st199" d="M31.7,15.5c-0.5,0-1.1,0-1.6,0c-0.4,0-0.8,0-1.2,0c0,0,0-0.1,0-0.1c0.6,0,1.3,0,1.9,0c0.3,0,0.4,0,0.3-0.3
			c-0.1-0.4,0-0.8,0.6-0.7C31.8,14.7,31.8,15.1,31.7,15.5z"/>
		<path class="st200" d="M30,29.8c-0.1,0.2-0.1,0.3-0.1,0.5c0.2,0.4,0,0.7-0.4,0.9c0.1-0.4-0.3-0.9,0.2-1.3
			C29.8,29.8,29.8,29.7,30,29.8z"/>
		<path class="st201" d="M30.9,28.4c-0.1,0.3-0.1,0.6-0.1,0.9c-0.1,0.1-0.2,0.2-0.4,0.2c0,0,0,0-0.1,0C30.4,29,30.4,28.6,30.9,28.4z
			"/>
		<path class="st202" d="M30,29.8c-0.1,0-0.2,0.1-0.3,0.1c-0.1-0.3-0.1-0.5,0.3-0.5c0.1,0,0.3,0,0.4,0c0,0,0,0,0,0
			c0,0.1-0.1,0.1-0.1,0.2C30.1,29.6,30,29.7,30,29.8z"/>
		<path class="st203" d="M29.4,36.2c0.2,0.2,0.1,0.4,0.1,0.6c0,0.3,0,0.5,0.2,0.7c-0.3-0.1-0.6-0.2-0.3-0.7
			C29.5,36.6,29.4,36.4,29.4,36.2z"/>
		<path class="st204" d="M36,25.9c-0.2,0-0.3,0-0.5,0c0.2-0.3,0.5-0.3,0.8,0c0,0,0,0,0,0C36.2,26,36.1,25.9,36,25.9z"/>
		<path class="st205" d="M33.9,26.3c-0.1,0.2,0.3,0.8-0.4,0.5C33.6,26.6,33.7,26.4,33.9,26.3z"/>
		<path class="st206" d="M32,27.7c0,0.3-0.1,0.4-0.4,0.4c0.1-0.2,0.1-0.5,0.4-0.6C32,27.5,32,27.6,32,27.7z"/>
		<path class="st207" d="M29.4,31.4c0,0.2,0,0.4,0,0.6c-0.3-0.1-0.1-0.3-0.2-0.5C29.2,31.4,29.3,31.4,29.4,31.4z"/>
		<path class="st208" d="M35.1,26.3c-0.2,0.4-0.4,0.2-0.6,0C34.7,26.3,34.9,26.3,35.1,26.3z"/>
		<path class="st204" d="M35.5,25.9c0,0.2-0.2,0.2-0.4,0.3C35.2,26,35.1,25.7,35.5,25.9z"/>
		<path class="st203" d="M28.8,35.6c0.1,0.1,0.2,0.2,0.3,0.3C28.8,36,28.8,35.8,28.8,35.6z"/>
		<path class="st209" d="M32,27.7c0-0.1,0-0.1,0-0.2c0.1,0,0.1-0.1,0.2-0.1C32.2,27.5,32.2,27.6,32,27.7z"/>
		<path class="st210" d="M30.2,37.7c0.1,0.1,0.2,0.2,0.2,0.3C30.2,38,30.2,37.9,30.2,37.7z"/>
		<path class="st203" d="M29.3,36.3c0,0.1,0,0.1,0,0.2c0,0,0,0.1-0.1,0.1C29.2,36.5,29.2,36.4,29.3,36.3
			C29.2,36.3,29.2,36.3,29.3,36.3z"/>
		<path class="st25" d="M36,25.9c0.1,0,0.2,0,0.3,0c0.2,0.3,0.5,0.1,0.8,0.2C36.7,26.4,36.2,26.3,36,25.9z"/>
		<path class="st65" d="M36.6,12.4c0.2,0,0.4,0,0.6,0.1C36.9,12.5,36.7,12.5,36.6,12.4z"/>
		<path class="st25" d="M37.4,25.9c-0.1,0.1-0.2,0.2-0.4,0.2C37.1,25.9,37.3,25.9,37.4,25.9z"/>
		<path class="st113" d="M31.4,40c0,0.1,0,0.1,0,0.2c-6.4,0-12.8,0-19.2,0c-0.5,0-0.7-0.1-0.6-0.6c0,0,0.1,0,0.1,0c0,0,0.1,0,0.1,0
			c0,0.2,0.2,0.3,0.4,0.3c0.2,0,0.4,0,0.6,0c6,0,11.9,0,17.9,0C30.9,40,31.2,40,31.4,40z"/>
		<path class="st113" d="M11.8,39.6c0-0.3,0-0.5,0-0.8C11.9,39.1,11.9,39.3,11.8,39.6z"/>
		<path class="st211" d="M11.7,39.6L11.7,39.6C11.6,39.6,11.6,39.6,11.7,39.6c-0.1-8.9-0.1-17.8-0.1-26.7c0.2,0.2,0.1,0.4,0.1,0.6
			C11.7,22.2,11.7,30.9,11.7,39.6z"/>
		<path class="st7" d="M43.2,14.9C43.2,14.9,43.3,14.9,43.2,14.9c0.1,0,0.4-0.1,0.2,0.1c-0.2,0.3-0.5,0.3-0.7,0.1c0,0,0.1,0,0.1,0
			C42.9,15,43.1,15,43.2,14.9z"/>
		<path class="st173" d="M43.2,14.9c-0.1,0.2-0.2,0.2-0.4,0.2c0-0.1,0.1-0.1,0.1-0.2C43,14.9,43.1,14.9,43.2,14.9z"/>
		<path class="st212" d="M17.5,11.6c0.1,0,0.1,0,0.2,0c-0.2,0.1-0.5,0.1-0.7,0.1C17.1,11.5,17.3,11.6,17.5,11.6z"/>
		<path class="st213" d="M36.3,12.2c0.1,0,0.2,0,0.3,0.1c0,0-0.1,0-0.1,0.1c-0.1,0-0.3,0-0.4-0.1C36.1,12.1,36.2,12.1,36.3,12.2z"/>
		<path class="st214" d="M36.3,12.2c-0.1,0-0.1,0-0.2,0c-0.1,0-0.2,0-0.3,0C35.9,12,36.1,12,36.3,12.2z"/>
		<path class="st215" d="M39.1,17.7c0-0.2,0-0.3,0-0.5c0-0.1,0.1-0.1,0.1,0c0.2,0.3,0,0.6,0,0.9c0,2.3,0,4.5,0,6.8
			c0,0.1,0.1,0.3-0.1,0.4c0.1-0.1,0.1-0.2,0.1-0.3c0-2.3,0-4.6,0-6.9c0-0.1-0.1-0.4,0.1-0.4c0,2.5,0,4.9,0,7.4c0,0.3,0,0.5,0,0.8
			c0,0.2-0.1,0.2-0.3,0.2c-0.1-0.1,0-0.2,0-0.3c0-2.6,0-5.2,0-7.8C39.1,17.9,39,17.8,39.1,17.7z"/>
		<path class="st216" d="M39.4,17.7c-0.2,0.2-0.1,0.4-0.1,0.6c0,2.2,0,4.5,0,6.7c0,0.2,0,0.3,0,0.5c0,0-0.1,0-0.1,0
			c0-2.7,0-5.5,0-8.2C39.6,17.2,39.3,17.5,39.4,17.7z"/>
		<path class="st217" d="M39.1,17.7c0,2.8,0,5.6,0,8.4c0,0.1,0.1,0.1,0.1,0.2c-0.1,0-0.1,0-0.2,0c0-2.7,0-5.4,0-8.1
			C39,18,38.9,17.8,39.1,17.7z"/>
		<path class="st121" d="M38.4,4.3c0-0.2,0-0.4,0-0.6c0-0.4-0.1-0.7-0.5-0.7c0.5-0.1,0.7,0.1,0.6,0.6C38.5,3.9,38.6,4.1,38.4,4.3z"
			/>
		<path class="st121" d="M32,3.2c-0.1,0-0.3,0-0.4,0C31.7,3,31.8,3,32,3.2z"/>
		<path class="st218" d="M15.3,3.3c-1.1,0-2.3,0-3.4,0c-0.1,0-0.2,0-0.3-0.1c0-0.1,0.1-0.1,0.2-0.1c1.4,0,2.7,0,4.1,0
			c0.1,0,0.2,0,0.3,0.1C16,3.3,15.6,3.2,15.3,3.3z"/>
		<path class="st219" d="M38.9,26.3c-0.4,0.1-0.3-0.2-0.3-0.4c0-1.7,0-3.5,0-5.2c0-2.4,0-4.8,0-7.2c0-0.2,0-0.4,0-0.6
			c0.2,0.1,0.2,0.3,0.2,0.5c0,1,0,2,0,3c0,0.2-0.1,0.4,0.1,0.5c0,0.3,0,0.5,0,0.8c-0.1,0.1,0,0.2,0,0.3c0,2.4,0,4.8,0,7.2
			c0,0.1,0,0.2,0,0.3C38.9,25.7,38.9,26,38.9,26.3z"/>
		<path class="st220" d="M38.9,25.5c-0.1-0.1-0.1-0.3-0.1-0.5c0-2.3,0-4.6,0-6.9c0-0.2-0.1-0.3,0.1-0.5
			C38.9,20.3,38.9,22.9,38.9,25.5z"/>
		<path class="st63" d="M9.4,13.6c0.2-0.2,0.3-0.1,0.5-0.1C9.8,13.7,9.7,13.6,9.4,13.6z"/>
		<path class="st221" d="M18.9,3.4c-0.1,0-0.1,0-0.2,0c0.2-0.1,0.3-0.1,0.5-0.1c0,0,0,0.1,0,0.1C19.1,3.3,19,3.3,18.9,3.4z"/>
		<path class="st222" d="M31.1,37.2c-0.1-0.6-0.5-1.1-0.7-1.6c-0.4-1.2-0.5-2.3-0.2-3.5c0.1-0.5,0.2-1,0.5-1.5
			c0-0.1,0.1-0.1,0.1-0.2c0.1-0.1,0.1-0.3,0.3-0.3c0.2,0,0.2,0.2,0.2,0.4c0,0.1,0,0.3-0.1,0.4c-0.3,0.5-0.3,1-0.4,1.5
			c0,0,0,0.1-0.1,0.1c-0.1,0.2,0,0.3,0,0.5c0,0.7,0.1,1.3,0.2,2c0.2,0.6,0.5,1.2,0.9,1.8c0.1,0.2,0.3,0.4,0.5,0.6
			c0.3,0.3,0.7,0.6,1,0.9c0.2,0.1,0.4,0.3,0.7,0.4c0.1,0.1,0.3,0.1,0.3,0.3c0,0,0,0,0,0c0,0-0.1,0,0,0.1c0.9,0.5,1.9,0.5,2.8,0.5
			c0.7,0,1.3-0.1,2.1-0.4c-0.1,0.2-0.1,0.3-0.1,0.4c0,0,0,0,0,0c-0.2,0.2-0.6,0.1-0.8,0.3c-0.9,0.3-1.8,0.1-2.8,0.1
			c-0.5,0-0.9-0.3-1.4-0.5c-0.2,0-0.3-0.1-0.5-0.1C32.6,38.9,31.9,38,31.1,37.2z"/>
		<path class="st223" d="M40.9,39.7C40.9,39.7,40.9,39.7,40.9,39.7c-0.2,0.4-0.6,0.1-1,0.2c0-0.1,0.1-0.1,0.2-0.1
			C40.3,39.7,40.6,39.8,40.9,39.7z"/>
		<path class="st224" d="M35.1,40.6c-0.2,0.1-0.5,0-0.7-0.1C34.6,40.5,34.9,40.3,35.1,40.6z"/>
		<path class="st181" d="M38.2,39.9c0.2-0.3,0.5-0.2,0.8-0.3C38.8,39.8,38.5,39.8,38.2,39.9z"/>
		<path class="st225" d="M38.9,40.5c-0.2,0.2-0.5,0-0.7,0.1C38.4,40.3,38.7,40.4,38.9,40.5z"/>
		<path class="st226" d="M40.9,39.7c-0.3,0.2-0.5,0.1-0.8,0.1c0,0,0,0,0-0.1C40.4,39.7,40.6,39.7,40.9,39.7z"/>
		<path class="st227" d="M37,40.8c-0.2,0-0.5,0-0.7,0C36.6,40.6,36.8,40.6,37,40.8z"/>
		<path class="st228" d="M37.8,40.9c-0.2,0.3-0.4,0.3-0.6,0C37.4,41,37.6,41,37.8,40.9z"/>
		<path class="st229" d="M39.6,40.5c-0.1,0.2-0.3,0.3-0.5,0.1C39.3,40.5,39.4,40.5,39.6,40.5z"/>
		<path class="st230" d="M30,35.9c0.1,0,0.1,0,0.2,0c0,0.1,0,0.2,0,0.3c0,0.1,0.1,0.2,0,0.2c0,0-0.1-0.1-0.2-0.1
			C30,36.1,30,36,30,35.9z"/>
		<path class="st231" d="M30,36.9c0,0,0.1-0.1,0.1-0.1c0.2,0.1,0,0.2,0.1,0.3C30.1,37.1,30,37,30,36.9z"/>
		<path class="st232" d="M30.8,37.5c0.1-0.1,0.1-0.1,0.2,0c0.1,0.1,0,0.2-0.1,0.2C30.8,37.6,30.8,37.5,30.8,37.5z"/>
		<path class="st233" d="M31.2,38.6c0.1,0,0.1,0,0.2,0c-0.1,0.1-0.2,0.2-0.3,0.1C31,38.7,31.1,38.6,31.2,38.6z"/>
		<path class="st234" d="M33.2,39.8c-0.3,0-0.5,0-0.8,0C32.7,39.7,33,39.7,33.2,39.8z"/>
		<path class="st235" d="M30.9,35.2c-0.2-0.7-0.3-1.4-0.3-2.2c0.1-0.1,0-0.3,0.1-0.5l0,0c0.4-0.5,0.9-1,1.3-1.4
			c1.1-1.1,2.2-2.2,3.2-3.2c0.2-0.2,0.3-0.3,0.5-0.4c0.9-0.2,1.8-0.1,2.6,0.1c0.2,0.1,0.2,0.3,0,0.4c-0.5,0.5-1,1.1-1.6,1.5
			c-0.3,0.1-0.4,0.3-0.5,0.5c-0.1,0.2-0.2,0.4-0.3,0.5c-0.5,0.3-0.7,0.8-1.2,1.1c-0.2,0.2-0.4,0.4-0.6,0.5c-0.4,0.1-0.8,0-1.2,0.1
			c-0.3,0.1-0.3,0.2-0.2,0.4c0.2,0.2,0.4,0.4,0.4,0.7c-0.6,0.2-0.9,0.8-1.3,1.2c-0.2,0.2-0.5,0.5-0.7,0.7
			C31.2,35.2,31.1,35.3,30.9,35.2z"/>
		<path class="st236" d="M41.9,30.2c0.4,0.7,0.7,1.4,0.8,2.2c0.1,0.2,0,0.3-0.2,0.5c-0.4,0.3-0.7,0.7-1,1.1
			c-0.6,0.5-1.1,1.2-1.8,1.7c-0.1,0-0.1,0.1-0.1,0.2c0,0.2,0,0.4-0.1,0.7c-0.3,0.1-0.2-0.1-0.3-0.3c-0.1-0.1,0-0.3-0.1-0.5
			c-0.5-1,0.1-1.7,0.7-2.3c0.3-0.3,0.5-0.6,0.8-0.9c0.2-0.2,0.1-0.3-0.2-0.3c-0.5,0-1,0-1.6,0c-0.6,0-0.8-0.3-0.9-0.9
			c0.2-0.1,0.3,0,0.4,0.1c0.3,0.3,0.8,0.2,1.2,0.2c0.2,0,0.3-0.2,0.3-0.3c0-0.2,0-0.4,0-0.6c-0.1-0.4,0.1-0.6,0.5-0.6
			c0.2,0,0.5-0.1,0.7-0.2C41.2,29.8,41.5,30.1,41.9,30.2z"/>
		<path class="st237" d="M38.1,31.5c-0.1-0.1-0.2-0.1-0.3-0.2c-0.1,0-0.2,0-0.2-0.1c-0.2-0.5-0.5-0.8-0.7-1.3c0-0.1-0.1-0.3-0.1-0.4
			c0,0,0,0,0-0.1c0.5-0.5,1-1,1.4-1.5c0.1-0.1,0.3-0.2,0.1-0.4c0.8,0.4,1.7,0.7,2.4,1.4c0,0.1-0.1,0.2-0.1,0.3
			c-0.7,0.7-1.4,1.3-2.1,2.1C38.4,31.4,38.3,31.5,38.1,31.5z"/>
		<path class="st238" d="M35.8,27.5c-1.2,1.3-2.4,2.5-3.7,3.7c-0.3-0.1-0.2-0.3-0.2-0.5c0-0.3,0-0.7,0-1c0.2-0.6,0.7-0.9,1.1-1.2
			c0.3-0.3,0.8-0.4,1.2-0.6C34.7,27.7,35.2,27.4,35.8,27.5z"/>
		<path class="st238" d="M41.4,33.8c0.3-0.3,0.7-0.7,1-1c0.1-0.1,0.3-0.2,0.3-0.4c0.2,0.3,0.1,0.7,0.1,1c0,0.7,0.1,1.4-0.4,2
			c-0.1,0.4-0.5,0.7-0.5,1.2c-0.3,0.2-0.3,0.6-0.5,0.9c-0.3-0.4-0.1-0.8-0.1-1.1c0-0.3-0.1-0.5-0.5-0.5c-0.1-0.2,0-0.4,0.1-0.5
			c0.3-0.3,0.4-0.6,0.3-1C41.2,34,41.3,33.9,41.4,33.8z"/>
		<path class="st239" d="M38.1,31.5c0.6-0.6,1.2-1.2,1.8-1.8c0.3-0.3,0.5-0.5,0.8-0.8c0.5,0.3,0.8,0.8,1.1,1.3
			c-0.3-0.1-0.5-0.1-0.8-0.2c-0.3-0.1-0.8,0.2-1.3,0.3c-0.1,0.1,0,0.2,0,0.4c0.1,1.1,0.1,1.1-1,1.1C38.5,31.8,38.3,31.7,38.1,31.5z"
			/>
		<path class="st240" d="M34.1,27.8c-0.1,0.2-0.3,0.2-0.5,0.3c-0.7,0.4-1.2,0.9-1.7,1.4c-0.1,0.6-0.2,0.8-0.7,1c0-0.1,0-0.2,0-0.4
			c-0.2,0.2-0.3,0.3-0.5,0.4c0.1-0.6,0.5-1,0.8-1.5c0.2-0.4,0.6-0.6,0.9-1c0.4-0.2,0.6-0.5,1.1-0.6C33.4,28,33.4,28,34.1,27.8z"/>
		<path class="st25" d="M38.1,26.8c0,0-0.1-0.1-0.1-0.1c0,0,0.1,0,0.1,0c0.1,0,0.3,0.1,0.3,0.3C38.3,26.8,38.2,26.8,38.1,26.8z"/>
		<path class="st25" d="M38.8,27.1c0-0.1-0.3-0.1-0.1-0.2c0.2-0.1,0.2,0.1,0.3,0.2C38.9,27.1,38.9,27.1,38.8,27.1z"/>
		<path class="st236" d="M34.3,39c-0.1-0.1-0.2-0.1-0.3-0.2c-0.2-0.1-0.4-0.3-0.7-0.4c-0.4-0.2-0.7-0.6-1.1-0.9
			c-0.1-0.2,0-0.3,0.1-0.4c0.5-0.4,0.9-0.9,1.3-1.4c0.3-0.1,0.3-0.5,0.7-0.4c0,0.5-0.2,0.9-0.3,1.3c0,0.1-0.1,0.2,0,0.3
			c0.1,0.1,0.2,0,0.3,0c0.7-0.3,1.3-0.7,2.1-1c0.2,0,0.3,0,0.5,0c0.6,0.3,1.2,0.4,1.6,0.8c-0.1,0.3-0.4,0.3-0.6,0.5
			c-0.7,0.5-1.2,1.2-1.8,1.8c-0.2,0.2-0.3,0.3-0.6,0.3c-0.2,0-0.5-0.1-0.7-0.1C34.7,39.1,34.5,39,34.3,39z"/>
		<path class="st241" d="M37.9,37.2c0.2-0.2,0.4-0.3,0.6-0.4c0.3-0.1,0.5,0.2,0.8,0.2c0.1-0.2-0.1-0.4,0.1-0.5c0-0.3,0-0.5,0-0.8
			c0.2,0,0.3,0.1,0.5-0.1c0.2-0.1,0.6-0.1,0.8,0.1c0.1,0,0.2-0.1,0.3-0.1c0.2-0.1,0.3,0,0.3,0.2c0,0.5,0,1.1,0,1.6
			c-0.3,0.3-0.6,0.6-0.9,0.8c-1.3,1-2.7,1.4-4.3,1.3c-0.1-0.3,0.1-0.5,0.3-0.8C37,38.1,37.4,37.6,37.9,37.2z"/>
		<path class="st242" d="M37.9,37.2c0,0.2-0.2,0.3-0.3,0.4c-0.4,0.3-0.7,0.8-1.1,1.2c-0.2,0.2-0.2,0.5-0.3,0.7c-0.2,0-0.3,0-0.5,0
			c0,0,0,0,0-0.1c0,0,0,0,0,0c0.5-0.3,0.8-0.7,1.2-1.1C37.2,37.8,37.5,37.4,37.9,37.2z"/>
		<path class="st241" d="M41.9,36.5c-0.2-0.6,0.2-0.8,0.5-1.2C42.3,35.7,42.2,36.1,41.9,36.5z"/>
		<path class="st241" d="M35.7,39.3C35.7,39.3,35.7,39.4,35.7,39.3c-0.3,0.1-0.5,0-0.8-0.1C35.2,39.2,35.4,39.3,35.7,39.3z"/>
		<path class="st195" d="M14.6,19.8c-0.3,0-0.5,0-0.7,0c-0.1,0-0.2-0.1-0.2-0.2c0-0.2,0.1,0,0.2,0C14.1,19.7,14.3,19.5,14.6,19.8z"
			/>
		<path class="st243" d="M14.1,17.3c5.9,0,11.8,0,17.8,0c0,0,0,0,0,0C25.9,17.3,20,17.3,14.1,17.3C14,17.3,14.1,17.3,14.1,17.3z"/>
		<path class="st244" d="M30.3,29.6c0-0.1,0.1-0.1,0.1-0.2c0.1,0,0.3-0.1,0.4-0.1C30.7,29.5,30.5,29.6,30.3,29.6z"/>
		<path class="st197" d="M32,22.4c-6,0-11.9,0-17.9,0c2-0.3,3.9-0.2,5.9-0.2c2,0,4,0,6,0c2,0,4,0,6,0C32,22.2,32,22.3,32,22.4z"/>
		<path class="st192" d="M32,24.1c0,0.2,0.1,0.4,0.1,0.6c-5.9,0-11.9,0-17.8,0c-0.2,0-0.6,0.2-0.6-0.2c0-0.4,0.3-0.4,0.6-0.4
			C20.2,24.1,26.1,24.1,32,24.1z"/>
		<path class="st193" d="M25.3,37.6c-0.2-0.1-0.5-0.1-0.8-0.1c-1.2,0-2.5,0-3.7,0c-0.5,0-0.9,0.2-1.4,0.1c-0.3-0.4-0.2-0.8-0.2-1.2
			c0.1-0.2,0.3-0.1,0.5-0.1c1.6,0,3.1,0,4.7,0c0.2,0,0.4,0.1,0.5-0.1l0,0c0.1,0.1,0.3,0,0.4,0.2c0,0-0.1,0.1-0.1,0.1
			c0,0.2,0,0.5,0,0.7C25.3,37.4,25.2,37.5,25.3,37.6C25.3,37.6,25.3,37.6,25.3,37.6z"/>
		<path class="st245" d="M19.2,36.5c0.3,0.4,0,0.8,0.2,1.2c-0.1,0-0.1,0-0.2,0C19.2,37.3,19.1,36.9,19.2,36.5z"/>
		<path class="st246" d="M25.3,37.5c-0.1,0-0.1-0.1-0.1-0.2c-0.1-0.3-0.1-0.6,0-0.9c0,0,0.1,0,0.1,0C25.3,36.8,25.3,37.2,25.3,37.5z
			"/>
		<path class="st238" d="M33.7,35.8c-0.4,0.6-0.9,1.1-1.4,1.5c-0.1,0.1-0.1,0.2-0.1,0.3c-0.1-0.2-0.4-0.3-0.5-0.6
			c0.1-0.6,0-1.3,0-1.9c0-0.2,0-0.5,0.2-0.7c0.3-0.3,0.6-0.7,0.9-1c0.1-0.2,0.3-0.1,0.4,0c0.2,0,0.3,0.1,0.3,0.3
			c0.1,0.2,0.2,0.5,0.1,0.7c0,0.1-0.1,0.1,0,0.2C33.9,34.8,33.7,35.3,33.7,35.8z"/>
		<path class="st247" d="M32,34.3c0,0.7,0,1.5,0,2.2c0,0.2,0.1,0.4-0.2,0.4c-0.3-0.6-0.7-1.1-0.9-1.8C31.3,35,31.6,34.6,32,34.3z"/>
		<path class="st248" d="M31.2,30.6c0.4-0.2,0.5-0.6,0.7-1c0.2,0.3,0.1,0.6,0.1,0.9c0,0.2-0.1,0.5,0.1,0.7c-0.4,0.5-0.9,1-1.4,1.4
			C30.8,31.9,31,31.3,31.2,30.6z"/>
		<path class="st249" d="M33.3,38.4c0.3,0,0.5,0.2,0.7,0.4C33.7,38.8,33.5,38.6,33.3,38.4z"/>
		<path class="st248" d="M30.7,32.5c0,0.2,0.1,0.4-0.1,0.5C30.6,32.9,30.5,32.7,30.7,32.5z"/>
		<path class="st250" d="M33.5,33.5c0-0.2-0.1-0.2-0.2-0.3c-0.2-0.3-0.4-0.6-0.7-0.9c-0.1-0.2-0.2-0.3,0.1-0.3
			c0.5-0.1,1-0.1,1.5-0.1c0,0,0,0,0.1,0c0.2,0,0.4,0.1,0.6-0.1c0.4-0.4,0.5-1,1-1.4c0.1-0.2,0.3-0.5,0.4-0.7
			c0.1-0.2,0.2-0.3,0.4-0.3c0,0,0,0,0,0c0.1,0.1,0.1,0.3,0.2,0.4c0.3,0.5,0.5,1,0.8,1.5c0.2,0.5,0.5,0.9,1.2,0.8
			c0.5-0.1,0.9,0,1.4-0.1c0.1,0,0.3,0,0.4,0.1c0.1,0.1-0.1,0.2-0.1,0.3c-0.5,0.6-0.9,1.2-1.4,1.7c-0.2,0.3-0.4,0.6-0.2,1
			c0.2,0.4,0.1,0.9,0.4,1.3c0,0.2,0.3,0.5,0.1,0.6c-0.2,0.2-0.4-0.1-0.6-0.2c-0.1-0.1-0.2-0.1-0.4-0.1c-0.5-0.3-1-0.5-1.6-0.8
			c-0.2-0.1-0.4-0.1-0.6,0c-0.7,0.4-1.5,0.7-2.2,1.1c-0.1,0-0.2,0.1-0.3,0c-0.1-0.1,0-0.2,0-0.3c0.1-0.5,0.3-1,0.4-1.5
			c0,0-0.1-0.1-0.1-0.1C34.4,34.5,33.9,34,33.5,33.5z"/>
		<path class="st251" d="M36,30.4c-0.2,0.6-0.6,1.1-0.9,1.6c-0.3,0.1-0.5,0.1-0.8,0c0,0,0,0,0,0C34.8,31.4,35.3,30.8,36,30.4z"/>
		<path class="st247" d="M40.8,35.7c-0.2,0-0.4,0-0.5,0c-0.3,0-0.5,0-0.5,0.4c0-0.3-0.2-0.3-0.3-0.4c0.7-0.6,1.3-1.2,2-1.9
			c0,0.1-0.1,0.2,0,0.3c0.1,0.4,0,0.8-0.3,1.1C40.9,35.3,40.8,35.5,40.8,35.7z"/>
		<path class="st235" d="M37,29.8c-0.2-0.1-0.2-0.2-0.2-0.4C37,29.5,37,29.6,37,29.8z"/>
		<path class="st252" d="M33.5,33.5c0.4,0.3,0.6,0.7,0.9,1c0.2,0.3-0.2,0.5-0.1,0.8c-0.2,0.1-0.3,0.4-0.6,0.5
			c-0.1-0.1-0.3-0.2-0.2-0.3c0.4-0.5-0.2-1,0.1-1.5C33.8,33.8,33.5,33.7,33.5,33.5z"/>
		<path class="st253" d="M36.4,36c0.2-0.3,0.4-0.3,0.6,0C36.8,36,36.6,36,36.4,36z"/>
		<path class="st198" d="M20.2,37.4c0.2-0.2,0.4-0.1,0.6-0.1C20.7,37.1,20.7,37,21,37c0.4,0,0.9,0,1.3,0c0.7,0,1.4,0,2.1,0
			c0.2,0,0.4,0,0.4,0.3c0,0.3-0.2,0.2-0.4,0.2C23.1,37.4,21.7,37.4,20.2,37.4z"/>
		<path class="st254" d="M25.2,36.5c0,0.3,0,0.6,0,0.9C25,37.1,25,36.8,25.2,36.5z"/>
		<path class="st255" d="M39.2,32.3c0.2,0,0.5,0,0.7,0c0.1,0,0.3,0,0.3,0.1c0,0.1,0,0.3-0.1,0.4c-0.4,0.4-0.8,0.9-1.2,1.3
			c-0.2,0.2-0.4,0.1-0.6,0.1c-0.2,0-0.1-0.3-0.2-0.4c-0.1-0.4,0.2-0.8-0.2-1.2c-0.1-0.1,0.1-0.2,0.2-0.2
			C38.6,32.3,38.9,32.3,39.2,32.3C39.2,32.2,39.2,32.2,39.2,32.3z"/>
		<path class="st235" d="M34.3,32c0.3,0,0.5,0,0.8,0C34.8,32.1,34.6,32.1,34.3,32z"/>
	</g>
</g>
<g>
	<path class="st192" d="M14.9,10l-3.4,0.7l-0.8-4.2L14,5.8l0.2,1l-2.1,0.4l0.1,0.6l2-0.4l0.2,1l-2,0.4l0.1,0.6L14.7,9L14.9,10z"/>
	<path class="st192" d="M16.7,8.9l-0.2,0.6l-0.1,0.4L15.1,10l0.8-1.7L14.8,7l0-0.1L16,6.8l0.3,0.3l0.3,0.4L16.7,7l0.2-0.4L18,6.5
		l0,0.1l-0.7,1.6l1.2,1.4l-1.2,0.2l-0.2-0.3L16.7,8.9z"/>
	<path class="st192" d="M20.1,10.6L19,10.7l-0.4-4.3l1-0.1l0.1,0.3c0.2-0.3,0.6-0.5,1-0.5c0.9,0,1.4,0.5,1.5,1.4
		c0.1,0.9-0.4,1.6-1.3,1.7c-0.4,0-0.7-0.1-0.9-0.2L20.1,10.6z M21,7.7c0-0.4-0.3-0.6-0.7-0.6c-0.4,0-0.6,0.4-0.5,0.7
		c0,0.4,0.3,0.7,0.7,0.6C20.8,8.4,21.1,8.1,21,7.7z"/>
	<path class="st192" d="M28.1,8.4c-0.5,0.5-1.1,0.7-1.7,0.7c-1.7,0-2.4-1-2.4-2.2c0-1.1,0.7-2.3,2.3-2.3c0.6,0,1.2,0.2,1.7,0.7
		L27.2,6c-0.3-0.3-0.6-0.4-0.9-0.4c-0.8,0-1.1,0.7-1.1,1.3c0,0.6,0.3,1.2,1.2,1.2c0.3,0,0.7-0.1,1-0.5L28.1,8.4z"/>
	<path class="st192" d="M31.5,7.9l-2.1-0.1c0.1,0.3,0.4,0.4,0.7,0.4c0.3,0,0.6-0.1,0.8-0.2l0.5,0.6C31,9,30.4,9.1,29.9,9.1
		c-1,0-1.8-0.6-1.7-1.7c0-1.1,0.9-1.6,1.8-1.5C31.1,5.9,31.8,6.7,31.5,7.9z M30.5,7.1c0-0.5-1-0.5-1.1,0L30.5,7.1z"/>
	<path class="st192" d="M33.2,6.2l0,0.3c0.2-0.3,0.5-0.4,0.8-0.3c0.3,0,0.6,0.2,0.8,0.4l-0.5,0.8c-0.2-0.2-0.3-0.2-0.5-0.2
		c-0.3,0-0.5,0.1-0.6,0.5L33,9.2l-1.1-0.1l0.3-3L33.2,6.2z"/>
	<path class="st192" d="M36.7,5.8l-0.1,0.9l0.7,0.1l-0.1,0.9l-0.7-0.1l-0.2,1c0,0.2,0.1,0.3,0.3,0.3c0.1,0,0.2,0,0.3-0.1L37,9.7
		c-0.3,0.1-0.6,0.1-0.9,0.1c-0.6-0.1-1.1-0.5-0.9-1.4l0.2-1l-0.5-0.1L35,6.4l0.5,0.1l0.1-0.8L36.7,5.8z"/>
	<path class="st192" d="M38.1,8.9c0.8,0.2,0.6,1.3-0.2,1.1C37.1,9.9,37.3,8.8,38.1,8.9z"/>
</g>
</svg>
