<svg id="Layer_1" data-name="Layer 1" xmlns="http://www.w3.org/2000/svg" viewBox="0 0 609.83 153.88"><defs><style>.cls-1{fill:#fa0001;}.cls-2{fill:#fff;}</style></defs><title>Artboard 1</title><path class="cls-1" d="M114.35,144.4q-44.92,0-89.85,0C13.25,144.41,9,140.3,9,129.23Q8.74,77.6,8.54,26c0-12,3.77-15.79,15.82-15.83q90.6-.35,181.2-.61c8.94,0,13.65,4.34,13.72,13.35q.41,54.12.48,108.24c0,7.78-5,12.45-13.07,12.46q-46.17.07-92.34,0Z"/><path class="cls-2" d="M239.37,144.5V13.19c8.74,0,17.5-.31,26.23.11A67.65,67.65,0,0,1,281.67,16c10.21,3.1,16.56,10.4,18.9,20.69a89.62,89.62,0,0,1,2.3,18.22c.3,17.45.19,34.91.08,52.36-.1,15.18-7.64,26.25-20.19,33.89-3.49,2.12-8.11,3.06-12.27,3.24C260.24,144.8,250,144.5,239.37,144.5Zm23.78-26c8.36.8,13.61-2.94,13.73-10.78.32-20.23.13-40.48,0-60.72a15,15,0,0,0-1.3-5.28c-2.17-5.39-6.56-7.31-12.47-5.59Z"/><path class="cls-2" d="M451.07,50.39c-.49-5-.77-9.46-1.42-13.88-.48-3.26-1.72-6.28-5.75-6.4s-6,2.27-7.1,5.79c-2.16,7.18-.57,13.62,4.57,18.88C446.82,60.36,453,65.28,458.3,71a110.72,110.72,0,0,1,12.37,15.54c9.36,14.49,8.58,29.62,1.17,44.56-5.62,11.33-17.56,16.33-32.83,14.56-12.17-1.41-22.29-9.68-24.71-21.42-1.46-7-1.38-14.39-2-22.06h23.49c0,3.78-.29,7.41.06,11,.6,6,3.4,9,8,9.06s7.6-2.78,8.8-8.45c1.46-6.83-.61-12.5-5.73-17-5.71-5.08-11.64-9.92-17.32-15-9.71-8.72-16.24-19.24-18-32.39a43.88,43.88,0,0,1,4-25.24c6-12.55,17-16.56,30.12-16,12,.47,20.33,6.44,25.08,17.38,3.44,7.92,4.15,16.24,3.75,25Z"/><path class="cls-2" d="M407.2,142.32H352.1v-130h57.22V35.6c-8.53,0-16.81.19-25.07-.08-4-.13-5.65.85-5.44,5.19.35,7.11.1,14.24.1,22h22.48V89.51H378.93v31c7.55,0,15,.23,22.42-.09,4.5-.19,6.27,1.14,5.93,5.83C406.9,131.46,407.2,136.75,407.2,142.32Z"/><path class="cls-2" d="M485,11.41h56.3V35.62H518.53c-6.79,0-6.8,0-6.8,6.65,0,5.32.34,10.67-.11,16-.41,4.85,1.57,6,6,5.68,4.95-.32,9.95-.07,15.35-.07V89h-22v31.34h29.42v22H485Z"/><path class="cls-2" d="M576.89,120h24.4v22.37h-52V12.86h27.56Z"/><path class="cls-2" d="M314.32,11h26V142.3h-26Z"/><path class="cls-2" d="M120.7,73.73C116,77.79,112.92,85,107.68,87c-6.48,2.43-8.8,7.23-12.27,11.71-3,3.93-5.86,8.06-9,11.91-5.86,7.12-10.26,7.59-17.33,1.63-5.44-4.58-10.55-9.57-15.8-14.37-6.14,5.72-6.42,5.71-12.16-.5A35.21,35.21,0,0,1,37,92.82c-1.83-2.91-2.34-5.45,2.29-6.46a14.1,14.1,0,0,0,5.61-3.13c7.5-6.29,14.7-13,22.36-19,3.8-3,5.63-6.18,3.77-10.77-1.63-4,.43-5.65,3.72-7.1,7.41-3.29,14.9-6.46,22-10.3,4.69-2.53,7.9-1.53,12,1.41,5.77,4.2,10.37,10.92,18.45,10C131.58,58.07,129.16,66.47,120.7,73.73Zm-45.62-.32c-4,3.26-7.6,7-11.35,10.57C60.38,87.16,60,90.58,63,94.25c.93,1.15,1.76,2.38,2.74,3.48,7.71,8.66,12,8.68,19.6-.15A70.83,70.83,0,0,0,93.24,87c5.57-9.69,1.26-16.87-10.34-17.8C80.27,70.56,77.34,71.57,75.08,73.41Z"/><path class="cls-2" d="M41.55,101.72l-4.36-6.44c-7.85,5.59-13,13-17.07,21.32-3.94,8.1-5.6,16.69-6.14,25.51a16.59,16.59,0,0,0,8,2.21C22.76,127.64,28.48,113.29,41.55,101.72Z"/><path class="cls-2" d="M131.53,49.67l1.08,11.38c3.66,0,7.34.33,10.93-.07C154.27,59.79,164,62,172.33,69c3.7,3.11,7,2.27,10.28-.68,2.66-2.37,3.16-4.45-.24-6.53-6.14-3.73-12.26-7.5-18.41-11.21a5.45,5.45,0,0,0-2.55-.9C151.66,49.65,141.92,49.67,131.53,49.67Z"/><path class="cls-2" d="M182.17,78.66c-3.35,7.32-6.89,14.57-10,22-2.23,5.38,0,9.84,4.42,13a10.8,10.8,0,0,0,12.95.1c4.64-3.09,6.69-7.75,4.66-13-2.93-7.48-6.67-14.65-10.06-22Z"/><path class="cls-2" d="M93.65,82.2c-.72-5.58-6.15-9.62-10.13-7.68C76,78.16,69.1,82.93,61.93,87.23l.75,2.11c1.39,0,2.95.41,4.14-.08,2.89-1.2,5.57-2.9,8.39-4.26C80.83,82.3,86,77.24,93.65,82.2Z"/></svg>