<svg id="Layer_1" data-name="Layer 1" xmlns="http://www.w3.org/2000/svg" viewBox="0 0 600 600"><title>Artboard 1 copy 2</title><path d="M300.59,94C186.38,93.9,94.05,185.77,94,299.54A205.73,205.73,0,0,0,300.07,506C413.51,506,505.93,414.06,506,301.12,506.07,186.4,414.51,94.08,300.59,94ZM429.74,404c-1.58,2-2.92,2-5.06,1.09-5.45-2.43-11.06-4.51-16.52-6.92-2-.89-3.26-.59-4.79,1-7.26,7.43-14.72,14.67-21.92,22.15a5,5,0,0,0-.86,4.31c1.91,5.32,4.2,10.5,6.32,15.67-51.9,34.2-126.46,33-176.76-1.89,1.85-4.52,3.88-9.06,5.49-13.73a5.11,5.11,0,0,0-.81-4.36q-11-11.38-22.35-22.34a5,5,0,0,0-4.31-.63c-5.59,2-11.06,4.43-16.91,6.83-19.75-24.51-31.76-51.9-36-82.65-.66-4.79-.83-9.64-1.41-14.44-.29-2.49.37-3.89,2.88-4.79a116.17,116.17,0,0,0,12.95-5.5,5.54,5.54,0,0,0,2.62-4c.22-10.24,0-20.49.18-30.74,0-2.42-.81-3.56-3-4.34-3.06-1.09-6-2.5-9-3.76C152,205.15,204.41,137.61,293.34,133.87c85.52-3.6,149.25,56.49,166.2,120.2-.56.27-1.15.63-1.77.87-8.8,3.28-8.8,3.28-8.8,12.93,0,8.25.17,16.51-.08,24.76-.1,3.28,1,4.86,4.06,5.86A66.59,66.59,0,0,1,463.54,303a5.42,5.42,0,0,1,2.56,4Q463.6,361.34,429.74,404Z"/><path d="M437,256.84A317.83,317.83,0,0,0,379,244.59c-52.05-6.44-104.15-6.89-156.22-.05-20.47,2.68-40.66,6.75-60.24,13.52-2.56.88-3.51,2.09-3.46,4.84.17,9.25-.17,18.51.19,27.74a20.06,20.06,0,0,0,2.77,9.07c7.85,13.17,16.72,25.78,23.84,39.33,5.84,11.11,10.1,23.12,14.33,35,1.95,5.48,1.9,11.54-2.18,17.1,6.33,6.3,12.35,12.34,18.42,18.33,4.74,4.67,4.75,4.62,10.91,1.62,2.3-1.12,4.62-2.2,7-3.18,21.59-9,43.81-14,67.39-11.53a290.38,290.38,0,0,1,70.37,16.68c2.56.94,4.05.63,5.9-1.27q8.93-9.18,18.19-18c1.87-1.79,2.13-3.24,1.52-5.86-.87-3.74-1.35-8-.5-11.64a197.55,197.55,0,0,1,22-55.74c5.25-8.93,11.16-17.45,20-23.47a4.87,4.87,0,0,0,1.55-3.51c.22-10.24.1-20.49.48-30.72C441.35,259.33,440.21,257.87,437,256.84ZM299.86,358.52a42.94,42.94,0,1,1,43-43.13A42.93,42.93,0,0,1,299.86,358.52Z"/><path d="M299.94,284.51a31.3,31.3,0,0,0-31.12,31.68c.2,16.6,14.36,30.48,31.09,30.49s31.2-13.91,31.29-30.3A31.28,31.28,0,0,0,299.94,284.51Z"/></svg>