<svg width="16" height="13" viewBox="0 0 16 13" fill="none" xmlns="http://www.w3.org/2000/svg">
<path d="M16 5.93752C16 7.43577 16 8.93403 16 10.4323C15.5789 10.4323 15.1578 10.4323 14.6653 10.4323C14.6653 11.0219 14.7224 11.5698 14.651 12.097C14.5654 12.7768 13.8088 13.1583 13.1451 12.9294C12.5955 12.7421 12.3171 12.3328 12.3029 11.7016C12.2957 11.2785 12.3029 10.8623 12.3029 10.4531C9.39796 10.4531 6.55016 10.4531 3.68094 10.4531C3.68094 10.8831 3.68808 11.2855 3.68094 11.6878C3.67381 12.1733 3.53106 12.6034 3.05999 12.8461C2.2392 13.2762 1.34703 12.7629 1.30421 11.8265C1.2828 11.3687 1.29707 10.9109 1.29707 10.4115C0.84028 10.4115 0.433452 10.4115 0.0123483 10.4115C0.0123483 8.94096 -0.0233384 7.51207 0.026623 6.09012C0.0480351 5.34793 0.497688 4.82077 1.21142 4.50863C1.34703 4.4462 1.49692 4.31441 1.55401 4.18262C1.94657 3.24621 2.32485 2.30287 2.68885 1.35953C3.06713 0.374563 3.60243 0 4.69445 0C6.89989 0 9.09819 0 11.3036 0C12.3956 0 12.9167 0.367627 13.3092 1.35953C13.6804 2.31674 14.0658 3.26702 14.4512 4.2173C14.4869 4.30748 14.544 4.43927 14.6154 4.46008C15.3862 4.68204 15.7859 5.22308 16 5.93752ZM13.2093 4.41846C12.8167 3.41962 12.4527 2.46241 12.0602 1.51906C11.9389 1.23467 11.6391 1.17918 11.3393 1.17918C9.11246 1.17918 6.89275 1.17918 4.6659 1.17918C4.18056 1.17918 3.98785 1.31097 3.81655 1.76183C3.60243 2.30981 3.40259 2.85778 3.1956 3.41269C3.07427 3.7387 2.9458 4.0647 2.80305 4.4254C6.28607 4.41846 9.70486 4.41846 13.2093 4.41846ZM13.4662 5.67394C12.8453 5.68781 12.3385 6.21498 12.36 6.83231C12.3814 7.44271 12.8953 7.92826 13.5091 7.91438C14.1157 7.90051 14.6154 7.37335 14.6011 6.77682C14.5868 6.17336 14.0586 5.66007 13.4662 5.67394ZM3.63098 6.80457C3.63098 6.19417 3.14564 5.68088 2.53897 5.67394C1.92516 5.66007 1.39699 6.18723 1.40413 6.80457C1.41127 7.41497 1.91802 7.92132 2.52469 7.91438C3.13137 7.90745 3.63098 7.41497 3.63098 6.80457Z" fill="black"/>
</svg>
