<svg id="Layer_1" data-name="Layer 1" xmlns="http://www.w3.org/2000/svg" viewBox="0 0 400 400"><defs><style>.cls-1{fill:#c9cbce;}</style></defs><title>Artboard 1</title><path class="cls-1" d="M27.85,353.61C30.54,325,43.54,302.4,64,284.14c31.58-28.17,69.4-41.68,111.05-46.33,34.84-3.89,68.78-.06,101.35,12,38.35,14.22,70.77,36.43,87.55,75.86,3.61,8.49,5.29,17.81,8.19,27.92Z"/><path class="cls-1" d="M199.38,229.72c-35.9.21-69.24-26.31-80.12-61.15-13.55-43.4,4.39-85.71,32.47-106.55C194.49,30.28,257.44,49,277.27,99.27c15.37,39,8.24,74.36-18.26,106.09C246.89,219.87,222,229.58,199.38,229.72Z"/></svg>